<svg width="24" height="24" viewBox="0 0 24 24" fill="none" xmlns="http://www.w3.org/2000/svg">
<g id="ic_clip_line">
<path id="Vector" d="M5.87999 20.7879C5.36916 20.7893 4.86318 20.6886 4.39175 20.4919C3.92032 20.2952 3.49292 20.0063 3.13462 19.6422C2.40792 18.9111 2.00003 17.9222 2.00003 16.8914C2.00003 15.8606 2.40792 14.8717 3.13462 14.1406L12.8623 4.41292C13.8995 3.47488 15.2565 2.96977 16.6546 3.0014C18.0527 3.03303 19.3855 3.599 20.3792 4.58297C21.3728 5.56695 21.9518 6.89418 21.9972 8.29187C22.0425 9.68956 21.5507 11.0515 20.6229 12.0978L12.938 19.7827C12.8876 19.8331 12.8278 19.873 12.7619 19.9003C12.6961 19.9276 12.6255 19.9416 12.5543 19.9416C12.483 19.9416 12.4124 19.9276 12.3466 19.9003C12.2808 19.873 12.221 19.8331 12.1706 19.7827C12.1202 19.7323 12.0802 19.6725 12.0529 19.6066C12.0257 19.5408 12.0116 19.4702 12.0116 19.399C12.0116 19.3277 12.0257 19.2572 12.0529 19.1913C12.0802 19.1255 12.1202 19.0657 12.1706 19.0153L19.8663 11.3304C20.6045 10.4943 20.9966 9.40843 20.963 8.29356C20.9293 7.17869 20.4724 6.11847 19.6851 5.32841C18.8978 4.53835 17.8392 4.07773 16.7244 4.04018C15.6097 4.00264 14.5225 4.39098 13.6838 5.12628L3.95607 14.908C3.52821 15.4451 3.09878 16.2057 3.13462 16.8914C3.17046 17.5771 3.47455 18.3961 3.95607 18.8856C4.43758 19.3751 5.19498 19.5595 5.87999 19.6066C6.565 19.6537 7.32477 19.3045 7.86876 18.8856L15.2186 11.5574C15.4284 11.3399 15.5448 11.0489 15.5428 10.7467C15.5469 10.5931 15.5182 10.4403 15.4585 10.2987C15.3989 10.157 15.3097 10.0297 15.197 9.92528C15.0894 9.81678 14.9615 9.73066 14.8205 9.67189C14.6795 9.61312 14.5283 9.58286 14.3755 9.58286C14.2228 9.58286 14.0715 9.61312 13.9305 9.67189C13.7895 9.73066 13.6616 9.81678 13.5541 9.92528L8.36596 15.0702C8.26274 15.1215 8.14581 15.1385 8.03226 15.1186C7.9187 15.0988 7.81447 15.0431 7.73479 14.9598C7.65511 14.8765 7.60415 14.7699 7.58936 14.6556C7.57457 14.5413 7.59673 14.4252 7.65259 14.3244L12.8407 9.13626C13.0468 8.91629 13.295 8.74001 13.5705 8.61789C13.8461 8.49577 14.1434 8.43031 14.4447 8.4254C14.7461 8.42048 15.0454 8.47622 15.3248 8.58928C15.6042 8.70235 15.858 8.87045 16.0711 9.08357C16.2842 9.2967 16.4523 9.5505 16.5654 9.8299C16.6785 10.1093 16.7342 10.4086 16.7293 10.7099C16.7244 11.0113 16.6589 11.3086 16.5368 11.5842C16.4147 11.8597 16.2384 12.1079 16.0184 12.314L8.63617 19.6422C8.27623 20.0071 7.847 20.2964 7.3737 20.4932C6.90039 20.6899 6.39255 20.7901 5.87999 20.7879Z" fill="#3A3D40"/>
</g>
</svg>
