<svg width="24" height="24" viewBox="0 0 24 24" fill="none" xmlns="http://www.w3.org/2000/svg">
<g id="ic_new_line">
<path id="Vector" d="M12.07 2C9.41782 2 6.87428 3.05357 4.99892 4.92893C3.12356 6.8043 2.06999 9.34784 2.06999 12V20.81C2.06867 20.9658 2.09822 21.1203 2.15692 21.2646C2.21563 21.409 2.30234 21.5402 2.41205 21.6509C2.52175 21.7615 2.65228 21.8493 2.7961 21.9092C2.93992 21.9692 3.09418 22 3.24999 22H9.24999H12.08C14.7322 22 17.2757 20.9464 19.1511 19.0711C21.0264 17.1957 22.08 14.6522 22.08 12C22.08 9.34784 21.0264 6.8043 19.1511 4.92893C17.2757 3.05357 14.7322 2 12.08 2H12.07ZM12.07 21H9.23999H3.23999C3.19135 20.9974 3.14555 20.9763 3.11206 20.9409C3.07856 20.9056 3.05992 20.8587 3.05999 20.81V12C3.05999 10.22 3.58783 8.47991 4.57676 6.99987C5.5657 5.51983 6.9713 4.36627 8.61584 3.68508C10.2604 3.0039 12.07 2.82567 13.8158 3.17293C15.5616 3.5202 17.1653 4.37737 18.424 5.63604C19.6826 6.89471 20.5398 8.49836 20.8871 10.2442C21.2343 11.99 21.0561 13.7996 20.3749 15.4442C19.6937 17.0887 18.5402 18.4943 17.0601 19.4832C15.5801 20.4722 13.84 21 12.06 21H12.07Z" fill="#3A3D40"/>
<path id="Vector_2" d="M14.6 8.47004C14.4674 8.47004 14.3402 8.52272 14.2465 8.61649C14.1527 8.71025 14.1 8.83743 14.1 8.97004V14.51L9.00001 8.64004C8.9342 8.56252 8.84589 8.50739 8.74734 8.48231C8.64879 8.45722 8.54488 8.46342 8.45001 8.50004C8.34465 8.53305 8.25318 8.59999 8.18987 8.69044C8.12656 8.78089 8.09496 8.88975 8.10001 9.00004V16C8.10001 16.1326 8.15269 16.2598 8.24646 16.3536C8.34023 16.4474 8.4674 16.5 8.60001 16.5C8.73262 16.5 8.8598 16.4474 8.95356 16.3536C9.04733 16.2598 9.10001 16.1326 9.10001 16V10.3L14.23 16.17C14.295 16.2501 14.3835 16.3076 14.483 16.3344C14.5825 16.3612 14.6879 16.3559 14.7843 16.3194C14.8806 16.2828 14.963 16.2169 15.0197 16.1308C15.0764 16.0447 15.1045 15.943 15.1 15.84V9.00004C15.1041 8.9319 15.0942 8.86364 15.0709 8.79947C15.0476 8.7353 15.0115 8.67658 14.9646 8.62693C14.9178 8.57727 14.8612 8.53774 14.7985 8.51075C14.7358 8.48377 14.6683 8.46992 14.6 8.47004Z" fill="#3A3D40"/>
</g>
</svg>
