<svg width="24" height="24" viewBox="0 0 24 24" fill="none" xmlns="http://www.w3.org/2000/svg">
<g id="ic_personcircle_line">
<path id="Union" fill-rule="evenodd" clip-rule="evenodd" d="M12 21C16.9706 21 21 16.9706 21 12C21 7.02944 16.9706 3 12 3C7.02944 3 3 7.02944 3 12C3 16.9706 7.02944 21 12 21ZM22 12C22 17.5228 17.5228 22 12 22C6.47715 22 2 17.5228 2 12C2 6.47715 6.47715 2 12 2C17.5228 2 22 6.47715 22 12ZM12 11C13.6569 11 15 9.65685 15 8C15 6.34315 13.6569 5 12 5C10.3431 5 9 6.34315 9 8C9 9.65685 10.3431 11 12 11ZM15.7242 19.2061C14.5683 19.7398 13.2948 20.0116 12.0064 19.9996C10.7142 20.0111 9.43735 19.7369 8.27945 19.1992C7.12154 18.6615 6.11522 17.8755 5.34215 16.9049C5.12507 16.6369 5.00522 16.3108 5.00017 15.9743C4.99511 15.6378 5.10511 15.3086 5.31406 15.035C6.09478 14.07 7.10824 13.292 8.27146 12.7648C9.43468 12.2376 10.7146 11.9761 12.0064 12.0017C13.2984 11.9811 14.5773 12.2471 15.7388 12.7781C16.9002 13.309 17.9112 14.0899 18.6893 15.0569C18.8962 15.3313 19.0049 15.6602 18.9998 15.9962C18.9948 16.3322 18.8762 16.658 18.6612 16.9269C17.8861 17.8917 16.8801 18.6724 15.7242 19.2061Z" fill="#3A3D40"/>
</g>
</svg>
