<svg width="24" height="24" viewBox="0 0 24 24" fill="none" xmlns="http://www.w3.org/2000/svg">
<g id="ic_board_line">
<path id="Union" fill-rule="evenodd" clip-rule="evenodd" d="M2.5 2C2.22386 2 2 2.22386 2 2.5V16.5C2 16.7761 2.22386 17 2.5 17C2.77614 17 3 16.7761 3 16.5V3H18.5C18.7761 3 19 2.77614 19 2.5C19 2.22386 18.7761 2 18.5 2H2.5ZM22 5.5C22 5.22386 21.7761 5 21.5 5H5.5C5.22386 5 5 5.22386 5 5.5V20C5 20.2761 5.22386 20.5 5.5 20.5H17.8974L21.303 21.9596C21.4575 22.0258 21.6349 22.0099 21.7752 21.9174C21.9156 21.8249 22 21.6681 22 21.5V5.5ZM21 6V20.7417L18.197 19.5404C18.1347 19.5138 18.0677 19.5 18 19.5H6V6H21ZM8 9.5C8 9.22386 8.22386 9 8.5 9H17.5C17.7761 9 18 9.22386 18 9.5C18 9.77614 17.7761 10 17.5 10H8.5C8.22386 10 8 9.77614 8 9.5ZM8.5 12.25C8.22386 12.25 8 12.4739 8 12.75C8 13.0261 8.22386 13.25 8.5 13.25H14.5C14.7761 13.25 15 13.0261 15 12.75C15 12.4739 14.7761 12.25 14.5 12.25H8.5ZM8 16C8 15.7239 8.22386 15.5 8.5 15.5H16C16.2761 15.5 16.5 15.7239 16.5 16C16.5 16.2761 16.2761 16.5 16 16.5H8.5C8.22386 16.5 8 16.2761 8 16Z" fill="#3A3D40"/>
</g>
</svg>
