<svg width="24" height="24" viewBox="0 0 24 24" fill="none" xmlns="http://www.w3.org/2000/svg">
<g id="ic_timecalendar_filled">
<path id="Vector" d="M17.0572 12.1548C16.0832 12.1528 15.1305 12.4398 14.3197 12.9795C13.5088 13.5192 12.8763 14.2874 12.5022 15.1867C12.1281 16.086 12.0292 17.0761 12.218 18.0316C12.4068 18.9872 12.8749 19.8652 13.5629 20.5547C14.2509 21.2441 15.128 21.7139 16.0832 21.9047C17.0384 22.0954 18.0287 21.9985 18.9287 21.6262C19.8288 21.254 20.5982 20.623 21.1395 19.8133C21.6809 19.0036 21.9698 18.0514 21.9698 17.0774C21.9698 15.7736 21.4526 14.523 20.5316 13.6001C19.6106 12.6772 18.3611 12.1574 17.0572 12.1548ZM18.2954 16.5781C18.4278 16.5781 18.5548 16.6307 18.6484 16.7244C18.742 16.818 18.7946 16.945 18.7946 17.0774C18.7946 17.2098 18.742 17.3368 18.6484 17.4304C18.5548 17.5241 18.4278 17.5766 18.2954 17.5766H17.0572C16.9248 17.5766 16.7978 17.5241 16.7042 17.4304C16.6106 17.3368 16.558 17.2098 16.558 17.0774V14.6111C16.558 14.4787 16.6106 14.3517 16.7042 14.2581C16.7978 14.1645 16.9248 14.1119 17.0572 14.1119C17.1888 14.1144 17.3143 14.1678 17.4074 14.2609C17.5005 14.354 17.5539 14.4795 17.5565 14.6111V16.6081L18.2954 16.5781Z" fill="#3A3D40"/>
<path id="Vector_2" d="M16.4782 10.008C16.4782 9.87563 16.4256 9.74864 16.332 9.65502C16.2383 9.56139 16.1114 9.50879 15.9789 9.50879H7.99095C7.85854 9.50879 7.73155 9.56139 7.63793 9.65502C7.5443 9.74864 7.4917 9.87563 7.4917 10.008C7.4917 10.1404 7.5443 10.2674 7.63793 10.3611C7.73155 10.4547 7.85854 10.5073 7.99095 10.5073H15.9789C16.1114 10.5073 16.2383 10.4547 16.332 10.3611C16.4256 10.2674 16.4782 10.1404 16.4782 10.008Z" fill="#3A3D40"/>
<path id="Vector_3" d="M20.9715 4.01697H15.8392V2.49925C15.8392 2.36684 15.7866 2.23985 15.693 2.14623C15.5994 2.0526 15.4724 2 15.34 2C15.2075 2 15.0806 2.0526 14.9869 2.14623C14.8933 2.23985 14.8407 2.36684 14.8407 2.49925V4.01697H9.12929V2.49925C9.12929 2.36684 9.07669 2.23985 8.98306 2.14623C8.88943 2.0526 8.76245 2 8.63004 2C8.49763 2 8.37064 2.0526 8.27702 2.14623C8.18339 2.23985 8.13079 2.36684 8.13079 2.49925V4.01697H2.9985C2.73368 4.01697 2.47971 4.12217 2.29245 4.30942C2.1052 4.49668 2 4.75065 2 5.01547V20.9915C2 21.2563 2.1052 21.5103 2.29245 21.6975C2.47971 21.8848 2.73368 21.99 2.9985 21.99H11.6355C11.7679 21.99 11.8949 21.9374 11.9885 21.8437C12.0822 21.7501 12.1348 21.6231 12.1348 21.4907C12.1348 21.3583 12.0822 21.2313 11.9885 21.1377C11.8949 21.0441 11.7679 20.9915 11.6355 20.9915H2.9985V5.01547H8.13079V6.49325C8.13079 6.62566 8.18339 6.75265 8.27702 6.84627C8.37064 6.9399 8.49763 6.9925 8.63004 6.9925C8.76245 6.9925 8.88943 6.9399 8.98306 6.84627C9.07669 6.75265 9.12929 6.62566 9.12929 6.49325V5.01547H14.8407V6.49325C14.8407 6.62566 14.8933 6.75265 14.9869 6.84627C15.0806 6.9399 15.2075 6.9925 15.34 6.9925C15.4724 6.9925 15.5994 6.9399 15.693 6.84627C15.7866 6.75265 15.8392 6.62566 15.8392 6.49325V5.01547H20.9715V11.6655C20.9715 11.7979 21.0241 11.9249 21.1177 12.0185C21.2114 12.1121 21.3383 12.1647 21.4707 12.1647C21.6032 12.1647 21.7301 12.1121 21.8238 12.0185C21.9174 11.9249 21.97 11.7979 21.97 11.6655V5.01547C21.97 4.75065 21.8648 4.49668 21.6775 4.30942C21.4903 4.12217 21.2363 4.01697 20.9715 4.01697Z" fill="#3A3D40"/>
</g>
</svg>
