<svg width="24" height="24" viewBox="0 0 24 24" fill="none" xmlns="http://www.w3.org/2000/svg">
<g id="ic_sharecircle_filled">
<path id="Vector" d="M12 2C10.0222 2 8.08879 2.58649 6.4443 3.6853C4.79981 4.78412 3.51809 6.3459 2.76121 8.17317C2.00433 10.0004 1.8063 12.0111 2.19215 13.9509C2.578 15.8907 3.53041 17.6725 4.92894 19.0711C6.32746 20.4696 8.10929 21.422 10.0491 21.8079C11.9889 22.1937 13.9996 21.9957 15.8268 21.2388C17.6541 20.4819 19.2159 19.2002 20.3147 17.5557C21.4135 15.9112 22 13.9778 22 12C22 10.6868 21.7413 9.38642 21.2388 8.17317C20.7363 6.95991 19.9997 5.85752 19.0711 4.92893C18.1425 4.00035 17.0401 3.26375 15.8268 2.7612C14.6136 2.25866 13.3132 2 12 2ZM6.81 8.34H17.17C17.3026 8.34 17.4298 8.39268 17.5236 8.48645C17.6173 8.58021 17.67 8.70739 17.67 8.84C17.67 8.97261 17.6173 9.09978 17.5236 9.19355C17.4298 9.28732 17.3026 9.34 17.17 9.34H6.81C6.6782 9.33744 6.5525 9.28394 6.45928 9.19072C6.36607 9.0975 6.31256 8.97181 6.31 8.84C6.31 8.70739 6.36268 8.58021 6.45645 8.48645C6.55022 8.39268 6.6774 8.34 6.81 8.34ZM6.81 16.41C6.67812 16.4081 6.55232 16.3542 6.46 16.26C6.41217 16.2151 6.37405 16.1609 6.34799 16.1007C6.32193 16.0405 6.30849 15.9756 6.30849 15.91C6.30849 15.8444 6.32193 15.7795 6.34799 15.7193C6.37405 15.6591 6.41217 15.6049 6.46 15.56L11.61 10.41C11.6547 10.362 11.7089 10.3238 11.7691 10.298C11.8294 10.2721 11.8944 10.2592 11.96 10.26C12.0271 10.259 12.0936 10.2718 12.1556 10.2976C12.2175 10.3234 12.2735 10.3617 12.32 10.41L17.53 15.61C17.6223 15.7051 17.6738 15.8325 17.6738 15.965C17.6738 16.0975 17.6223 16.2248 17.53 16.32C17.4346 16.4157 17.3051 16.4697 17.17 16.47C17.1046 16.4696 17.0399 16.4562 16.9798 16.4304C16.9197 16.4046 16.8654 16.3671 16.82 16.32L12 11.47L7.17 16.26C7.07462 16.3557 6.94514 16.4097 6.81 16.41Z" fill="#3A3D40"/>
</g>
</svg>
