<svg width="24" height="24" viewBox="0 0 24 24" fill="none" xmlns="http://www.w3.org/2000/svg">
<g id="ic_picture_line">
<path id="Vector" d="M20.1 3H3.9C3.66131 3 3.43239 3.09482 3.2636 3.2636C3.09482 3.43239 3 3.66131 3 3.9V20.1C3 20.3387 3.09482 20.5676 3.2636 20.7364C3.43239 20.9052 3.66131 21 3.9 21H20.1C20.3387 21 20.5676 20.9052 20.7364 20.7364C20.9052 20.5676 21 20.3387 21 20.1V3.9C21 3.66131 20.9052 3.43239 20.7364 3.2636C20.5676 3.09482 20.3387 3 20.1 3ZM20.1 3.9V15.6L15.681 11.181C15.6406 11.138 15.5918 11.1036 15.5376 11.0802C15.4834 11.0567 15.425 11.0446 15.366 11.0446C15.307 11.0446 15.2486 11.0567 15.1944 11.0802C15.1402 11.1036 15.0914 11.138 15.051 11.181L12.702 13.53L8.472 9.3C8.43017 9.25782 8.3804 9.22434 8.32556 9.2015C8.27072 9.17865 8.21191 9.16689 8.1525 9.16689C8.09309 9.16689 8.03428 9.17865 7.97944 9.2015C7.9246 9.22434 7.87483 9.25782 7.833 9.3L3.9 13.197V3.9H20.1ZM3.9 20.1V14.475L8.157 10.2L12.378 14.43C12.4636 14.513 12.5782 14.5595 12.6975 14.5595C12.8168 14.5595 12.9314 14.513 13.017 14.43L15.366 12.081L20.1 16.833V20.1H3.9Z" fill="#3A3D40"/>
<path id="Vector_2" d="M16.6169 9.20999C16.9729 9.20999 17.3209 9.10442 17.6169 8.90663C17.9129 8.70885 18.1436 8.42772 18.2799 8.09882C18.4161 7.76991 18.4518 7.40799 18.3823 7.05882C18.3129 6.70966 18.1414 6.38893 17.8897 6.13719C17.638 5.88546 17.3172 5.71403 16.9681 5.64457C16.6189 5.57512 16.257 5.61077 15.9281 5.747C15.5992 5.88324 15.318 6.11395 15.1202 6.40996C14.9225 6.70597 14.8169 7.05398 14.8169 7.40999C14.8169 7.88738 15.0065 8.34521 15.3441 8.68278C15.6817 9.02034 16.1395 9.20999 16.6169 9.20999ZM16.6169 6.50999C16.7949 6.50999 16.9689 6.56277 17.1169 6.66166C17.2649 6.76056 17.3803 6.90112 17.4484 7.06557C17.5165 7.23002 17.5343 7.41098 17.4996 7.58557C17.4649 7.76015 17.3792 7.92052 17.2533 8.04638C17.1274 8.17225 16.9671 8.25797 16.7925 8.29269C16.6179 8.32742 16.4369 8.3096 16.2725 8.24148C16.108 8.17336 15.9675 8.058 15.8686 7.91C15.7697 7.762 15.7169 7.58799 15.7169 7.40999C15.7169 7.17129 15.8117 6.94237 15.9805 6.77359C16.1493 6.60481 16.3782 6.50999 16.6169 6.50999Z" fill="#3A3D40"/>
</g>
</svg>
