<svg width="24" height="24" viewBox="0 0 24 24" fill="none" xmlns="http://www.w3.org/2000/svg">
<g id="ic_sharecircle_line">
<path id="Vector" d="M17.17 16.4701C17.1046 16.4697 17.0399 16.4562 16.9798 16.4305C16.9197 16.4047 16.8654 16.3672 16.82 16.3201L12 11.4701L7.16999 16.2601C7.12351 16.3069 7.06821 16.3441 7.00728 16.3695C6.94635 16.3949 6.881 16.408 6.81499 16.408C6.74898 16.408 6.68363 16.3949 6.6227 16.3695C6.56177 16.3441 6.50647 16.3069 6.45999 16.2601C6.41216 16.2152 6.37404 16.161 6.34798 16.1008C6.32192 16.0406 6.30847 15.9757 6.30847 15.9101C6.30847 15.8445 6.32192 15.7796 6.34798 15.7194C6.37404 15.6592 6.41216 15.605 6.45999 15.5601L11.61 10.4101C11.6546 10.362 11.7088 10.3239 11.7691 10.298C11.8294 10.2722 11.8944 10.2593 11.96 10.2601C12.0271 10.2591 12.0936 10.2719 12.1556 10.2977C12.2175 10.3235 12.2734 10.3617 12.32 10.4101L17.53 15.6101C17.6222 15.7052 17.6738 15.8325 17.6738 15.9651C17.6738 16.0976 17.6222 16.2249 17.53 16.3201C17.4346 16.4158 17.3051 16.4697 17.17 16.4701Z" fill="#3A3D40"/>
<path id="Vector_2" d="M12 3C13.78 3 15.5201 3.52784 17.0001 4.51677C18.4802 5.50571 19.6337 6.91131 20.3149 8.55585C20.9961 10.2004 21.1743 12.01 20.8271 13.7558C20.4798 15.5016 19.6226 17.1053 18.364 18.364C17.1053 19.6226 15.5016 20.4798 13.7558 20.8271C12.01 21.1743 10.2004 20.9961 8.55585 20.3149C6.91132 19.6337 5.50571 18.4802 4.51678 17.0001C3.52785 15.5201 3 13.78 3 12C3 9.61305 3.94822 7.32387 5.63604 5.63604C7.32387 3.94821 9.61306 3 12 3ZM12 2C10.0222 2 8.08879 2.58649 6.4443 3.6853C4.79981 4.78412 3.51809 6.3459 2.76121 8.17317C2.00433 10.0004 1.8063 12.0111 2.19215 13.9509C2.578 15.8907 3.53041 17.6725 4.92894 19.0711C6.32746 20.4696 8.10929 21.422 10.0491 21.8079C11.9889 22.1937 13.9996 21.9957 15.8268 21.2388C17.6541 20.4819 19.2159 19.2002 20.3147 17.5557C21.4135 15.9112 22 13.9778 22 12C22 10.6868 21.7413 9.38642 21.2388 8.17317C20.7363 6.95991 19.9997 5.85752 19.0711 4.92893C18.1425 4.00035 17.0401 3.26375 15.8268 2.7612C14.6136 2.25866 13.3132 2 12 2Z" fill="#3A3D40"/>
<path id="Vector_3" d="M17.17 9.33997H6.81C6.67819 9.33741 6.5525 9.28391 6.45928 9.19069C6.36606 9.09747 6.31256 8.97177 6.31 8.83997C6.31 8.70736 6.36268 8.58018 6.45644 8.48641C6.55021 8.39264 6.67739 8.33997 6.81 8.33997H17.17C17.3026 8.33997 17.4298 8.39264 17.5236 8.48641C17.6173 8.58018 17.67 8.70736 17.67 8.83997C17.67 8.97257 17.6173 9.09975 17.5236 9.19352C17.4298 9.28729 17.3026 9.33997 17.17 9.33997Z" fill="#3A3D40"/>
</g>
</svg>
