<svg width="24" height="24" viewBox="0 0 24 24" fill="none" xmlns="http://www.w3.org/2000/svg">
<g id="ic_home_filled">
<path id="Vector" d="M21.814 11.0229L12.643 2.26607C12.4638 2.09528 12.2258 2 11.9782 2C11.7307 2 11.4927 2.09528 11.3135 2.26607L2.14248 11.0229C2.09733 11.0677 2.0615 11.1209 2.03704 11.1796C2.01259 11.2383 2 11.3013 2 11.3649C2 11.4285 2.01259 11.4914 2.03704 11.5501C2.0615 11.6088 2.09733 11.6621 2.14248 11.7069C2.18726 11.752 2.24053 11.7878 2.29923 11.8123C2.35792 11.8367 2.42088 11.8493 2.48447 11.8493C2.54805 11.8493 2.61101 11.8367 2.66971 11.8123C2.7284 11.7878 2.78168 11.752 2.82645 11.7069L3.7898 10.8302V20.3095C3.7898 20.565 3.8913 20.8101 4.07196 20.9907C4.25262 21.1714 4.49765 21.2729 4.75315 21.2729H19.2611C19.5166 21.2729 19.7617 21.1714 19.9423 20.9907C20.123 20.8101 20.2245 20.565 20.2245 20.3095V10.8398L21.1878 11.7165C21.2317 11.761 21.2843 11.796 21.3423 11.8192C21.4003 11.8424 21.4625 11.8534 21.525 11.8514C21.6205 11.85 21.7134 11.8204 21.7919 11.7662C21.8705 11.7119 21.9312 11.6356 21.9663 11.5468C22.0014 11.4581 22.0093 11.3609 21.989 11.2676C21.9688 11.1743 21.9213 11.0891 21.8525 11.0229H21.814ZM11.9782 16.6874C11.4066 16.6874 10.8479 16.5179 10.3726 16.2003C9.89736 15.8827 9.52694 15.4314 9.3082 14.9033C9.08946 14.3752 9.03222 13.7941 9.14374 13.2335C9.25525 12.6729 9.5305 12.1579 9.93468 11.7538C10.3389 11.3496 10.8538 11.0743 11.4144 10.9628C11.975 10.8513 12.5561 10.9085 13.0842 11.1273C13.6123 11.346 14.0637 11.7164 14.3812 12.1917C14.6988 12.667 14.8683 13.2257 14.8683 13.7973C14.8683 14.5638 14.5638 15.2989 14.0218 15.8409C13.4798 16.3829 12.7447 16.6874 11.9782 16.6874Z" fill="#3A3D40"/>
</g>
</svg>
