<svg width="24" height="24" viewBox="0 0 24 24" fill="none" xmlns="http://www.w3.org/2000/svg">
<path d="M11.1438 19.25H4.19595C4.07767 19.25 3.96422 19.2042 3.88059 19.1228C3.79696 19.0413 3.75 18.9308 3.75 18.8156V5.18439C3.75 5.06918 3.79696 4.95869 3.88059 4.87723C3.96422 4.79577 4.07767 4.75 4.19595 4.75H19.8041C19.9216 4.75222 20.0337 4.7987 20.1168 4.87969C20.2 4.96068 20.2477 5.06988 20.25 5.18439V10.484" stroke="#252729" stroke-width="1.5" stroke-miterlimit="10" stroke-linecap="round"/>
<path d="M9 2.75V6.25" stroke="#252729" stroke-width="1.5" stroke-miterlimit="10" stroke-linecap="round"/>
<path d="M15 2.75V6.25" stroke="#252729" stroke-width="1.5" stroke-miterlimit="10" stroke-linecap="round"/>
<path d="M8.5 9.5H15.5" stroke="#252729" stroke-width="1.5" stroke-miterlimit="10" stroke-linecap="round"/>
<path d="M14.3685 15.7961C15.013 15.1516 14.9438 14.0374 14.2139 13.3075C13.484 12.5776 12.3698 12.5084 11.7253 13.1529C11.0808 13.7974 11.1501 14.9115 11.88 15.6414C12.6099 16.3713 13.724 16.4406 14.3685 15.7961Z" fill="#252729" stroke="#252729" stroke-width="1.5" stroke-miterlimit="10"/>
<path d="M14.3677 15.797L17.8075 19.2368" stroke="#252729" stroke-width="1.5" stroke-miterlimit="10" stroke-linecap="round"/>
<path d="M17.1711 15.7772L13.7313 19.217" stroke="#252729" stroke-width="1.5" stroke-miterlimit="10" stroke-linecap="round"/>
<path d="M20.1437 14.9819C19.2788 15.8468 18.0958 16.0556 17.4893 15.4492C16.8829 14.8427 17.1016 13.6597 17.9566 12.8047L20.1437 14.9819Z" fill="#252729" stroke="#252729" stroke-width="1.5" stroke-miterlimit="10"/>
<path d="M17.8384 12.8046L18.753 11.89" stroke="#252729" stroke-width="1.33" stroke-miterlimit="10" stroke-linecap="round"/>
<path d="M20.2583 14.9818L21.1729 14.0671" stroke="#252729" stroke-width="1.33" stroke-miterlimit="10" stroke-linecap="round"/>
<path d="M19.0502 13.8982L19.9747 12.9736" stroke="#252729" stroke-width="1.33" stroke-miterlimit="10" stroke-linecap="round"/>
</svg>
