<svg width="24" height="24" viewBox="0 0 24 24" fill="none" xmlns="http://www.w3.org/2000/svg">
<g id="ic_person_line">
<path id="Vector" d="M12.005 10.0663C12.8027 10.0663 13.5824 9.82977 14.2457 9.3866C14.9089 8.94343 15.4259 8.31354 15.7311 7.57658C16.0364 6.83961 16.1163 6.02868 15.9606 5.24633C15.805 4.46397 15.4209 3.74533 14.8569 3.18129C14.2928 2.61724 13.5742 2.23312 12.7918 2.0775C12.0095 1.92188 11.1985 2.00175 10.4616 2.30701C9.7246 2.61227 9.09471 3.12921 8.65154 3.79246C8.20837 4.4557 7.97183 5.23547 7.97183 6.03316C7.97183 7.10281 8.39675 8.12866 9.15312 8.88503C9.90948 9.64139 10.9353 10.0663 12.005 10.0663ZM12.005 3.00829C12.6032 3.00829 13.1881 3.1857 13.6855 3.51807C14.1829 3.85045 14.5707 4.32287 14.7996 4.87559C15.0285 5.42831 15.0884 6.03651 14.9717 6.62328C14.855 7.21004 14.5669 7.74902 14.1439 8.17206C13.7209 8.59509 13.1819 8.88318 12.5951 8.9999C12.0083 9.11661 11.4001 9.05671 10.8474 8.82777C10.2947 8.59882 9.82228 8.21112 9.4899 7.71368C9.15753 7.21624 8.98012 6.63142 8.98012 6.03316C8.98012 5.23091 9.29881 4.46153 9.86608 3.89425C10.4334 3.32698 11.2027 3.00829 12.005 3.00829Z" fill="#3A3D40"/>
<path id="Vector_2" d="M12.0049 10.8024C9.28681 10.8737 6.70781 12.0196 4.83298 13.9889C2.95815 15.9582 1.94039 18.5904 2.0027 21.3087C2.0027 21.4424 2.05582 21.5707 2.15036 21.6652C2.24491 21.7598 2.37314 21.8129 2.50685 21.8129H21.4929C21.6266 21.8129 21.7549 21.7598 21.8494 21.6652C21.9439 21.5707 21.9971 21.4424 21.9971 21.3087C22.0621 18.5914 21.0466 15.9591 19.1734 13.9895C17.3001 12.0199 14.7221 10.8737 12.0049 10.8024ZM3.02107 20.8046C3.08461 18.441 4.05121 16.1916 5.72216 14.5188C7.39311 12.846 9.64144 11.8768 12.0049 11.8107C14.3682 11.8745 16.6168 12.8432 18.2867 14.5168C19.9565 16.1904 20.9201 18.4412 20.9787 20.8046H3.02107Z" fill="#3A3D40"/>
</g>
</svg>
