<svg width="24" height="24" viewBox="0 0 24 24" fill="none" xmlns="http://www.w3.org/2000/svg">
<path fill-rule="evenodd" clip-rule="evenodd" d="M12 4.5C10.8264 4.5 9.875 5.45139 9.875 6.625C9.875 7.7986 10.8264 8.75 12 8.75C13.1736 8.75 14.125 7.7986 14.125 6.625C14.125 5.4514 13.1736 4.5 12 4.5ZM8.375 6.625C8.375 4.62297 9.99797 3 12 3C14.002 3 15.625 4.62297 15.625 6.625C15.625 8.62703 14.002 10.25 12 10.25C9.99797 10.25 8.375 8.62703 8.375 6.625Z" fill="#252729"/>
<path fill-rule="evenodd" clip-rule="evenodd" d="M3.00055 19.9691C3.18626 15.1396 7.11744 11.25 12 11.25C16.8772 11.25 20.8527 15.1355 20.9997 19.9752L21 19.9864L21 19.9975C21.0002 20.2738 20.8851 20.5291 20.696 20.7121C20.5084 20.8937 20.2625 20.9918 20.0131 20.9996L20.0014 21H3.99864L3.98694 20.9996C3.73748 20.9918 3.49157 20.8937 3.30401 20.7121C3.11491 20.5291 2.99984 20.2738 3 19.9975L3.00001 19.9833L3.00055 19.9691ZM4.53774 19.5H19.4665C19.0886 15.7135 15.8875 12.75 12 12.75C8.11926 12.75 4.94452 15.7072 4.53774 19.5Z" fill="#252729"/>
</svg>
