<svg width="24" height="24" viewBox="0 0 24 24" fill="none" xmlns="http://www.w3.org/2000/svg">
<g id="ic_x_line">
<path id="Vector" d="M12.8293 11.9841L21.823 2.99036C21.8789 2.93793 21.9234 2.8746 21.9539 2.80429C21.9843 2.73398 22 2.65817 22 2.58155C22 2.50494 21.9843 2.42913 21.9539 2.35882C21.9234 2.28851 21.8789 2.22518 21.823 2.17275C21.7687 2.11801 21.7041 2.07456 21.633 2.04491C21.5618 2.01527 21.4855 2 21.4084 2C21.3313 2 21.2549 2.01527 21.1838 2.04491C21.1126 2.07456 21.048 2.11801 20.9937 2.17275L11.9883 11.1665L2.99459 2.17275C2.88617 2.06433 2.73911 2.00342 2.58578 2.00342C2.43245 2.00342 2.2854 2.06433 2.17698 2.17275C2.06855 2.28117 2.00764 2.42822 2.00764 2.58155C2.00764 2.73489 2.06855 2.88194 2.17698 2.99036L11.1707 11.9841L2.17698 20.9895C2.12111 21.0419 2.07658 21.1053 2.04614 21.1756C2.0157 21.2459 2 21.3217 2 21.3983C2 21.4749 2.0157 21.5507 2.04614 21.621C2.07658 21.6914 2.12111 21.7547 2.17698 21.8071C2.22912 21.8632 2.29244 21.9078 2.36284 21.938C2.43325 21.9681 2.50919 21.9833 2.58578 21.9823C2.66217 21.9819 2.73769 21.9661 2.8079 21.9361C2.87811 21.906 2.94159 21.8621 2.99459 21.8071L11.9883 12.8134L20.9821 21.8071C21.0935 21.9189 21.2447 21.9819 21.4025 21.9823C21.5566 21.9801 21.7035 21.9172 21.8113 21.8071C21.8672 21.7547 21.9117 21.6914 21.9422 21.621C21.9726 21.5507 21.9883 21.4749 21.9883 21.3983C21.9883 21.3217 21.9726 21.2459 21.9422 21.1756C21.9117 21.1053 21.8672 21.0419 21.8113 20.9895L12.8293 11.9841Z" fill="#3A3D40"/>
</g>
</svg>
