<svg width="24" height="24" viewBox="0 0 24 24" fill="none" xmlns="http://www.w3.org/2000/svg">
<g id="ic_new_filled">
<path id="Vector" d="M12.07 2C9.41782 2 6.87428 3.05357 4.99892 4.92893C3.12356 6.8043 2.06999 9.34784 2.06999 12V20.81C2.06867 20.9658 2.09822 21.1203 2.15692 21.2646C2.21563 21.409 2.30234 21.5402 2.41205 21.6509C2.52175 21.7615 2.65228 21.8493 2.7961 21.9092C2.93992 21.9692 3.09418 22 3.24999 22H9.24999H12.08C14.7322 22 17.2757 20.9464 19.1511 19.0711C21.0264 17.1957 22.08 14.6522 22.08 12C22.08 9.34784 21.0264 6.8043 19.1511 4.92893C17.2757 3.05357 14.7322 2 12.08 2H12.07ZM15.07 15.84C15.0699 15.9428 15.0382 16.043 14.9792 16.1271C14.9201 16.2112 14.8366 16.2751 14.74 16.31C14.6453 16.3482 14.541 16.3552 14.4421 16.33C14.3432 16.3048 14.2549 16.2488 14.19 16.17L9.09999 10.3V16C9.09999 16.1326 9.04731 16.2598 8.95354 16.3536C8.85977 16.4473 8.7326 16.5 8.59999 16.5C8.46738 16.5 8.3402 16.4473 8.24644 16.3536C8.15267 16.2598 8.09999 16.1326 8.09999 16V9C8.09927 8.89843 8.12951 8.79905 8.18668 8.71509C8.24384 8.63112 8.32522 8.56656 8.41999 8.53C8.51548 8.4828 8.62376 8.468 8.72841 8.48785C8.83307 8.5077 8.92841 8.56111 8.99999 8.64L14.14 14.51V9C14.14 8.86739 14.1927 8.74021 14.2864 8.64645C14.3802 8.55268 14.5074 8.5 14.64 8.5C14.7726 8.5 14.8998 8.55268 14.9935 8.64645C15.0873 8.74021 15.14 8.86739 15.14 9L15.07 15.84Z" fill="#3A3D40"/>
</g>
</svg>
