<svg width="24" height="24" viewBox="0 0 24 24" fill="none" xmlns="http://www.w3.org/2000/svg">
<path fill-rule="evenodd" clip-rule="evenodd" d="M12 3.58337C9.7678 3.58337 7.62699 4.47013 6.04856 6.04856C4.47013 7.62699 3.58337 9.7678 3.58337 12C3.58337 13.2463 3.60001 15.5347 3.61668 17.5146C3.62501 18.5038 3.63334 19.415 3.63959 20.0789L3.64282 20.4167H12C14.2323 20.4167 16.3731 19.53 17.9515 17.9515C19.53 16.3731 20.4167 14.2323 20.4167 12C20.4167 9.7678 19.53 7.62699 17.9515 6.04856C16.3731 4.47013 14.2323 3.58337 12 3.58337ZM2.15008 21.1742C2.15419 21.5855 2.48875 21.9167 2.90004 21.9167H12C14.6301 21.9167 17.1524 20.8719 19.0122 19.0122C20.8719 17.1524 21.9167 14.6301 21.9167 12C21.9167 9.36998 20.8719 6.84763 19.0122 4.9879C17.1524 3.12816 14.6301 2.08337 12 2.08337C9.36998 2.08337 6.84763 3.12816 4.9879 4.9879C3.12816 6.84763 2.08337 9.36998 2.08337 12C2.08337 13.2538 2.10007 15.5487 2.11673 17.5272C2.12507 18.5171 2.13341 19.4288 2.13966 20.093L2.15008 21.1742Z" fill="#252729"/>
<path fill-rule="evenodd" clip-rule="evenodd" d="M18.4817 18.4819C20.2008 16.7628 21.1666 14.4312 21.1666 12C21.1666 9.56889 20.2008 7.23731 18.4817 5.51823C16.7626 3.79914 14.4311 2.83337 11.9999 2.83337C9.56877 2.83337 7.23719 3.79914 5.51811 5.51823C3.79902 7.23731 2.83325 9.56889 2.83325 12C2.83325 14.5 2.89992 21.1667 2.89992 21.1667H11.9999C14.4311 21.1667 16.7626 20.2009 18.4817 18.4819ZM7.55548 8.19446C7.14127 8.19446 6.80548 8.53024 6.80548 8.94446C6.80548 9.35867 7.14127 9.69446 7.55548 9.69446H16.4444C16.8586 9.69446 17.1944 9.35867 17.1944 8.94446C17.1944 8.53024 16.8586 8.19446 16.4444 8.19446H7.55548ZM6.80548 12C6.80548 11.5858 7.14127 11.25 7.55548 11.25H13.1221C13.5364 11.25 13.8721 11.5858 13.8721 12C13.8721 12.4142 13.5364 12.75 13.1221 12.75H7.55548C7.14127 12.75 6.80548 12.4142 6.80548 12ZM7.55548 14.3055C7.14127 14.3055 6.80548 14.6413 6.80548 15.0555C6.80548 15.4698 7.14127 15.8055 7.55548 15.8055H14.6666C15.0808 15.8055 15.4166 15.4698 15.4166 15.0555C15.4166 14.6413 15.0808 14.3055 14.6666 14.3055H7.55548Z" fill="#252729"/>
</svg>
