<svg width="24" height="24" viewBox="0 0 24 24" fill="none" xmlns="http://www.w3.org/2000/svg">
<g clip-path="url(#clip0_3874_6080)">
<path d="M7.25 12L4.75 12L4.75 2.76L7.25 2.76L7.25 12Z" stroke="#252729" stroke-width="1.5" stroke-linecap="round" stroke-linejoin="round"/>
<path d="M13.32 15C16.6 15 19.25 12.86 19.25 9.27C19.25 5.68 16.59 2.76 13.32 2.76L7.38998 2.76L7.38998 9.28C7.38998 11.19 7.02998 13.39 8.71998 14.69" fill="#252729"/>
<path d="M13.32 15C16.6 15 19.25 12.86 19.25 9.27C19.25 5.68 16.59 2.76 13.32 2.76L7.38998 2.76L7.38998 9.28C7.38998 11.19 7.02998 13.39 8.71998 14.69" stroke="#252729" stroke-width="1.5" stroke-linecap="round" stroke-linejoin="round"/>
<path d="M8.70001 14.69C8.70001 14.69 9.40001 20.53 10.05 21C10.7 21.47 12.26 21.06 12.89 19.84C13.52 18.62 13.27 15 13.27 15" fill="#252729"/>
<path d="M8.70001 14.69C8.70001 14.69 9.40001 20.53 10.05 21C10.7 21.47 12.26 21.06 12.89 19.84C13.52 18.62 13.27 15 13.27 15" stroke="#252729" stroke-width="1.5" stroke-linecap="round" stroke-linejoin="round"/>
<path d="M13.32 15C14.8579 14.9984 16.3353 14.4003 17.4413 13.3316C18.5473 12.263 19.1956 10.807 19.25 9.27C19.25 5.68 16.59 2.76 13.32 2.76" fill="#252729"/>
<path d="M13.32 15C14.8579 14.9984 16.3353 14.4003 17.4413 13.3316C18.5473 12.263 19.1956 10.807 19.25 9.27C19.25 5.68 16.59 2.76 13.32 2.76" stroke="#252729" stroke-width="1.5" stroke-linecap="round" stroke-linejoin="round"/>
</g>
<defs>
<clipPath id="clip0_3874_6080">
<rect width="16" height="20" fill="white" transform="matrix(1 -8.74228e-08 -8.74228e-08 -1 4 22)"/>
</clipPath>
</defs>
</svg>
