<svg width="24" height="24" viewBox="0 0 24 24" fill="none" xmlns="http://www.w3.org/2000/svg">
<path d="M21.25 7.01001H2.75V19.25H21.25V7.01001Z" stroke="#252729" stroke-width="1.5" stroke-linecap="round" stroke-linejoin="round"/>
<path d="M12 14.8301C12.9389 14.8301 13.7 14.0689 13.7 13.1301C13.7 12.1912 12.9389 11.4301 12 11.4301C11.0611 11.4301 10.3 12.1912 10.3 13.1301C10.3 14.0689 11.0611 14.8301 12 14.8301Z" stroke="#252729" stroke-width="1.5" stroke-linecap="round" stroke-linejoin="round"/>
<path d="M12 16.91C14.0876 16.91 15.78 15.2176 15.78 13.13C15.78 11.0423 14.0876 9.34998 12 9.34998C9.91236 9.34998 8.22 11.0423 8.22 13.13C8.22 15.2176 9.91236 16.91 12 16.91Z" stroke="#252729" stroke-width="1.5" stroke-linecap="round" stroke-linejoin="round"/>
<path d="M7.99999 4.75H15.78C15.9927 4.75 16.2034 4.7919 16.3999 4.87332C16.5965 4.95473 16.7751 5.07406 16.9255 5.22449C17.0759 5.37492 17.1953 5.55351 17.2767 5.75005C17.3581 5.9466 17.4 6.15726 17.4 6.37V7H6.39999V6.37C6.39996 5.94379 6.56789 5.53474 6.86739 5.2315C7.16689 4.92826 7.57382 4.75526 7.99999 4.75V4.75Z" stroke="#252729" stroke-width="1.5" stroke-linecap="round" stroke-linejoin="round"/>
</svg>
