<svg width="24" height="24" viewBox="0 0 24 24" fill="none" xmlns="http://www.w3.org/2000/svg">
<g id="ic_pen_filled">
<path id="Subtract" fill-rule="evenodd" clip-rule="evenodd" d="M18.2144 2.1571C18.1114 2.0555 17.9723 1.99899 17.8276 2.00001C17.683 2.00104 17.5446 2.05951 17.4431 2.16256L16.0869 3.53908L20.1676 7.61975L21.5782 6.18802C21.6807 6.08399 21.7371 5.9432 21.7349 5.79719C21.7327 5.65118 21.6721 5.51215 21.5665 5.41126L19.8468 3.7678L18.2144 2.1571ZM4.72327 15.0732L15.3851 4.25145L19.4658 8.33212L8.80394 19.1539L4.72327 15.0732ZM4.12362 15.8878L2.08939 20.4904L2.08668 20.4967C2.00152 20.6962 1.97843 20.9167 2.02042 21.1295C2.06242 21.3423 2.16755 21.5375 2.32211 21.6897C2.47667 21.8419 2.67349 21.944 2.88692 21.9827C3.10035 22.0214 3.32048 21.9949 3.51863 21.9066L3.53394 21.8995L7.98537 19.7495L4.12362 15.8878Z" fill="#3A3D40"/>
</g>
</svg>
