<svg width="24" height="24" viewBox="0 0 24 24" fill="none" xmlns="http://www.w3.org/2000/svg">
<g id="ic_star_filled">
<path id="Vector" d="M21.9466 9.18612C21.8938 9.02535 21.7967 8.8825 21.6663 8.77377C21.5359 8.66504 21.3775 8.5948 21.209 8.571L15.4081 7.72974L12.8127 2.51029C12.7382 2.35735 12.6217 2.22836 12.4768 2.13812C12.3318 2.04787 12.1642 2 11.9932 2C11.8221 2 11.6545 2.04787 11.5095 2.13812C11.3646 2.22836 11.2481 2.35735 11.1736 2.51029L8.57821 7.72974L2.77736 8.571C2.60882 8.5948 2.45037 8.66504 2.31998 8.77377C2.1896 8.8825 2.09251 9.02535 2.03973 9.18612C1.99142 9.34322 1.98708 9.51043 2.02719 9.6698C2.0673 9.82916 2.15034 9.97467 2.26739 10.0907L6.47461 14.2066L5.48199 19.9235C5.44851 20.0923 5.46414 20.267 5.52704 20.4272C5.58994 20.5874 5.69751 20.7265 5.83715 20.8281C5.9934 20.9405 6.18153 21.0007 6.37443 21C6.52269 20.9981 6.66875 20.9642 6.80244 20.9005L11.9932 18.1867L17.1839 20.9005C17.3176 20.9642 17.4636 20.9981 17.6119 21C17.8048 21.0007 17.9929 20.9405 18.1492 20.8281C18.2888 20.7265 18.3964 20.5874 18.4593 20.4272C18.5222 20.267 18.5378 20.0923 18.5043 19.9235L17.5117 14.2066L21.7189 10.145C21.8461 10.0241 21.9353 9.86921 21.9757 9.69904C22.0161 9.52886 22.006 9.3507 21.9466 9.18612Z" fill="#3A3D40"/>
</g>
</svg>
