<svg width="24" height="24" viewBox="0 0 24 24" fill="none" xmlns="http://www.w3.org/2000/svg">
<g id="ic_ground_line">
<path id="Vector" d="M18.08 7.06995H12.08C11.9474 7.06995 11.8202 7.12262 11.7264 7.21639C11.6327 7.31016 11.58 7.43734 11.58 7.56995C11.58 7.70255 11.6327 7.82973 11.7264 7.9235C11.8202 8.01727 11.9474 8.06995 12.08 8.06995H18.08C18.2126 8.06995 18.3398 8.01727 18.4336 7.9235C18.5273 7.82973 18.58 7.70255 18.58 7.56995C18.58 7.43734 18.5273 7.31016 18.4336 7.21639C18.3398 7.12262 18.2126 7.06995 18.08 7.06995Z" fill="#3A3D40"/>
<path id="Vector_2" d="M12.05 10H15.77C15.8357 10 15.9007 9.98707 15.9613 9.96194C16.022 9.93681 16.0771 9.89998 16.1236 9.85355C16.17 9.80712 16.2068 9.752 16.2319 9.69134C16.2571 9.63068 16.27 9.56566 16.27 9.5C16.27 9.36739 16.2173 9.24021 16.1236 9.14645C16.0298 9.05268 15.9026 9 15.77 9H12.05C11.9174 9 11.7902 9.05268 11.6964 9.14645C11.6027 9.24021 11.55 9.36739 11.55 9.5C11.55 9.63261 11.6027 9.75979 11.6964 9.85355C11.7902 9.94732 11.9174 10 12.05 10Z" fill="#3A3D40"/>
<path id="Vector_3" d="M17 10.92H12.05C11.9174 10.92 11.7902 10.9727 11.6964 11.0665C11.6027 11.1603 11.55 11.2874 11.55 11.42C11.55 11.5527 11.6027 11.6798 11.6964 11.7736C11.7902 11.8674 11.9174 11.92 12.05 11.92H17C17.1326 11.92 17.2598 11.8674 17.3536 11.7736C17.4473 11.6798 17.5 11.5527 17.5 11.42C17.5 11.2874 17.4473 11.1603 17.3536 11.0665C17.2598 10.9727 17.1326 10.92 17 10.92Z" fill="#3A3D40"/>
<path id="Vector_4" d="M15.55 16.8599C15.4911 16.8315 15.427 16.8151 15.3616 16.8118C15.2962 16.8084 15.2309 16.8183 15.1693 16.8406C15.1078 16.863 15.0514 16.8975 15.0034 16.942C14.9554 16.9866 14.9169 17.0403 14.89 17.0999C13.6 19.8399 11.92 20.9999 9.08 20.9999C7.4887 20.9999 5.96257 20.3678 4.83736 19.2426C3.71214 18.1174 3.08 16.5912 3.08 14.9999C3.08 12.1899 4.42 10.1999 6.84 9.40995C6.90566 9.38959 6.96667 9.35651 7.01954 9.31257C7.07241 9.26864 7.11612 9.21472 7.14815 9.1539C7.18019 9.09308 7.19993 9.02654 7.20625 8.95809C7.21257 8.88964 7.20535 8.82061 7.185 8.75495C7.16464 8.68929 7.13155 8.62828 7.08762 8.57541C7.04369 8.52253 6.98977 8.47883 6.92895 8.44679C6.86813 8.41476 6.80159 8.39501 6.73314 8.38869C6.66469 8.38237 6.59566 8.38959 6.53 8.40995C5.15758 8.83205 3.96594 9.70137 3.14496 10.8794C2.32399 12.0574 1.92092 13.4763 2 14.9099C2.01309 16.7624 2.75479 18.5353 4.06472 19.8452C5.37465 21.1552 7.14753 21.8969 9 21.9099C12.25 21.9099 14.25 20.5899 15.71 17.4899C15.7628 17.3831 15.7757 17.2609 15.7463 17.1454C15.717 17.0299 15.6474 16.9287 15.55 16.8599Z" fill="#3A3D40"/>
<path id="Vector_5" d="M15.13 2.00001C14.2304 1.99869 13.3394 2.17457 12.5079 2.5176C11.6763 2.86063 10.9204 3.3641 10.2834 3.99925C9.64638 4.63441 9.14071 5.38881 8.79525 6.21939C8.4498 7.04996 8.27132 7.94045 8.27 8.84001V14.89C8.27 15.1048 8.35534 15.3109 8.50725 15.4628C8.65915 15.6147 8.86518 15.7 9.08 15.7H13.19H15.13C16.8827 15.6053 18.5325 14.8423 19.7397 13.568C20.9469 12.2938 21.6197 10.6053 21.6197 8.85001C21.6197 7.09472 20.9469 5.40621 19.7397 4.13198C18.5325 2.85775 16.8827 2.09475 15.13 2.00001ZM15.13 14.72H13.19H9.27V8.84001C9.27396 7.68187 9.621 6.55087 10.2673 5.58983C10.9136 4.6288 11.8302 3.88082 12.9013 3.44035C13.9724 2.99989 15.15 2.88669 16.2854 3.11505C17.4209 3.34342 18.4631 3.9031 19.2807 4.72343C20.0982 5.54375 20.6543 6.58793 20.8788 7.72411C21.1033 8.86029 20.9861 10.0375 20.542 11.1071C20.0979 12.1767 19.3468 13.0908 18.3836 13.7338C17.4203 14.3768 16.2881 14.72 15.13 14.72Z" fill="#3A3D40"/>
</g>
</svg>
