<svg width="24" height="24" viewBox="0 0 24 24" fill="none" xmlns="http://www.w3.org/2000/svg">
<g id="ic_calendar_filled">
<path id="Vector" d="M20.981 4.01798H15.8462V2.4995C15.8462 2.36702 15.7935 2.23997 15.6999 2.1463C15.6062 2.05263 15.4791 2 15.3467 2C15.2142 2 15.0871 2.05263 14.9935 2.1463C14.8998 2.23997 14.8472 2.36702 14.8472 2.4995V4.01798H9.13287V2.4995C9.13287 2.36702 9.08024 2.23997 8.98657 2.1463C8.89289 2.05263 8.76584 2 8.63337 2C8.50089 2 8.37384 2.05263 8.28017 2.1463C8.18649 2.23997 8.13387 2.36702 8.13387 2.4995V4.01798H2.999C2.73405 4.01798 2.47995 4.12323 2.2926 4.31058C2.10525 4.49793 2 4.75203 2 5.01698V21.001C2 21.266 2.10525 21.5201 2.2926 21.7074C2.47995 21.8947 2.73405 22 2.999 22H20.981C21.246 22 21.5001 21.8947 21.6874 21.7074C21.8748 21.5201 21.98 21.266 21.98 21.001V5.01698C21.98 4.75203 21.8748 4.49793 21.6874 4.31058C21.5001 4.12323 21.246 4.01798 20.981 4.01798ZM16.4855 10.012C16.4855 10.1445 16.4329 10.2715 16.3392 10.3652C16.2455 10.4589 16.1185 10.5115 15.986 10.5115H7.99401C7.86153 10.5115 7.73448 10.4589 7.64081 10.3652C7.54713 10.2715 7.4945 10.1445 7.4945 10.012C7.4945 9.87951 7.54713 9.75246 7.64081 9.65879C7.73448 9.56511 7.86153 9.51249 7.99401 9.51249H15.986C16.1185 9.51249 16.2455 9.56511 16.3392 9.65879C16.4329 9.75246 16.4855 9.87951 16.4855 10.012Z" fill="#3A3D40"/>
</g>
</svg>
