<svg width="24" height="24" viewBox="0 0 24 24" fill="none" xmlns="http://www.w3.org/2000/svg">
<path fill-rule="evenodd" clip-rule="evenodd" d="M4.18776 6.859C3.86313 6.4122 3.96218 5.78683 4.40899 5.4622L8.85858 2.22938C9.30539 1.90476 9.93076 2.00381 10.2554 2.45062L14.3916 8.14366L14.6924 7.92514C15.4743 7.35705 16.5687 7.53038 17.1368 8.3123C17.7049 9.09421 17.5316 10.1886 16.7496 10.7567L13.9424 12.7962L19.7322 20.7651C19.9757 21.1003 19.9014 21.5693 19.5663 21.8127C19.2312 22.0562 18.7621 21.9819 18.5187 21.6468L12.7289 13.6779L9.873 15.7529C9.09109 16.321 7.99669 16.1476 7.4286 15.3657C6.8605 14.5838 7.03384 13.4894 7.81575 12.9213L8.324 12.5521L4.18776 6.859Z" fill="#252729"/>
</svg>
