<svg width="24" height="24" viewBox="0 0 24 24" fill="none" xmlns="http://www.w3.org/2000/svg">
<g id="ic_rank_filled">
<path id="Vector" d="M11.6711 2L3 6.98339V17.0166L11.6711 22L20.3422 17.0166V7.01661L11.6711 2ZM13.3987 16.186L11.7375 13.495H9.97675V16.2193H9.01329V8.07973H11.8704C11.9037 8.07973 11.9701 8.07973 12.0033 8.07973C13.4319 8.14618 14.5282 9.34219 14.4618 10.7708C14.5282 11.9003 13.8306 12.9635 12.7342 13.3289L14.495 16.186H13.3987Z" fill="#3A3D40"/>
<path id="Vector_2" d="M13.5315 10.7707C13.5315 10.7375 13.5315 10.7042 13.5315 10.671C13.5315 9.74078 12.8006 9.00989 11.8704 9.00989H10.0099V12.5315H11.9036C11.9368 12.5315 11.97 12.5315 12.0032 12.5315C12.9003 12.465 13.5979 11.7009 13.5315 10.7707Z" fill="#3A3D40"/>
</g>
</svg>
