<svg width="24" height="24" viewBox="0 0 24 24" fill="none" xmlns="http://www.w3.org/2000/svg">
<g clip-path="url(#clip0_3874_6082)">
<path d="M3.99098 7.55176L2.79038 7.85191C2.56611 7.90857 2.36652 8.037 2.22202 8.21762C2.07751 8.39825 1.99603 8.62117 1.98998 8.85241V13.2346C1.98433 13.4659 2.059 13.692 2.20129 13.8744C2.34357 14.0568 2.54468 14.1843 2.77037 14.2351L3.99098 14.5352V7.55176Z" fill="#252729"/>
<path d="M5.49176 7.18158V14.8754L16.2772 17.3667V4.48022L5.49176 7.18158Z" fill="#252729"/>
<path d="M15.5568 4.75037V17.2166" stroke="#252729" stroke-width="1.5" stroke-miterlimit="10" stroke-linecap="round"/>
<path d="M6.22211 14.2952V19.2476" stroke="#252729" stroke-width="1.5" stroke-linecap="round" stroke-linejoin="round"/>
<path d="M17.7379 9.66284C18.0721 9.6918 18.3834 9.84506 18.6102 10.0923C18.837 10.3396 18.9628 10.663 18.9628 10.9985C18.9628 11.334 18.837 11.6574 18.6102 11.9047C18.3834 12.152 18.0721 12.3052 17.7379 12.3342" stroke="#252729" stroke-width="1.5" stroke-linecap="round" stroke-linejoin="round"/>
<path d="M17.6078 7.34167C18.086 7.34167 18.5596 7.43587 19.0015 7.61889C19.4433 7.80191 19.8448 8.07017 20.1829 8.40834C20.5211 8.74651 20.7894 9.14799 20.9724 9.58983C21.1554 10.0317 21.2496 10.5052 21.2496 10.9835C21.2496 11.4617 21.1554 11.9353 20.9724 12.3772C20.7894 12.819 20.5211 13.2205 20.1829 13.5587C19.8448 13.8968 19.4433 14.1651 19.0015 14.3481C18.5596 14.5311 18.086 14.6253 17.6078 14.6253" stroke="#252729" stroke-width="1.5" stroke-linecap="round" stroke-linejoin="round"/>
</g>
<defs>
<clipPath id="clip0_3874_6082">
<rect width="20" height="15.998" fill="white" transform="translate(2 4)"/>
</clipPath>
</defs>
</svg>
