<svg width="24" height="24" viewBox="0 0 24 24" fill="none" xmlns="http://www.w3.org/2000/svg">
<g clip-path="url(#clip0_3874_6088)">
<path d="M13.38 18.25C13.4413 18.9783 13.2133 19.7014 12.7455 20.2629C12.2776 20.8243 11.6074 21.179 10.88 21.25C10.1544 21.1765 9.48676 20.8208 9.02098 20.2596C8.55519 19.6985 8.32859 18.9767 8.39001 18.25" stroke="#252729" stroke-width="1.5" stroke-miterlimit="10"/>
<path d="M16.41 18.13H13.41L8.62999 18.16L5.62999 18.21C5.28453 18.1801 4.95204 18.0643 4.66276 17.8731C4.37347 17.6819 4.13657 17.4214 3.9736 17.1154C3.81063 16.8093 3.72676 16.4673 3.72962 16.1206C3.73249 15.7739 3.82199 15.4333 3.98999 15.13L4.99999 13V8C5.00455 4.5495 9.49999 3 11 3C12.5 3 16.988 4.84281 17 8V13L18.02 15.13C18.1725 15.428 18.2505 15.7586 18.2472 16.0933C18.244 16.428 18.1596 16.757 18.0013 17.052C17.843 17.3469 17.6155 17.5991 17.3383 17.7869C17.0612 17.9746 16.7426 18.0924 16.41 18.13Z" fill="#252729"/>
<path d="M13.41 18.13V17.38L13.4053 17.38L13.41 18.13ZM16.41 18.13V18.88H16.4523L16.4943 18.8753L16.41 18.13ZM18.02 15.13L17.3436 15.4539L17.3478 15.4629L17.3524 15.4717L18.02 15.13ZM17 13H16.25V13.1703L16.3235 13.3239L17 13ZM17 8H17.75L17.75 7.99716L17 8ZM4.99999 8L4.24999 7.99901V8H4.99999ZM4.99999 13L5.67766 13.3213L5.74999 13.1688V13H4.99999ZM3.98999 15.13L4.64608 15.4934L4.65754 15.4727L4.66766 15.4513L3.98999 15.13ZM3.72962 16.1206L2.97965 16.1144L3.72962 16.1206ZM5.62999 18.21L5.56524 18.9572L5.6038 18.9606L5.64249 18.9599L5.62999 18.21ZM8.62999 18.16L8.62528 17.41L8.61749 17.4101L8.62999 18.16ZM13.41 18.88H16.41V17.38H13.41V18.88ZM16.4943 18.8753C16.9475 18.824 17.3814 18.6636 17.759 18.4078L16.9177 17.166C16.7409 17.2857 16.5378 17.3608 16.3257 17.3848L16.4943 18.8753ZM17.759 18.4078C18.1366 18.152 18.4465 17.8085 18.6621 17.4066L17.3404 16.6973C17.2395 16.8854 17.0944 17.0462 16.9177 17.166L17.759 18.4078ZM18.6621 17.4066C18.8778 17.0048 18.9927 16.5566 18.9972 16.1006L17.4973 16.086C17.4952 16.2995 17.4414 16.5092 17.3404 16.6973L18.6621 17.4066ZM18.9972 16.1006C19.0016 15.6446 18.8954 15.1943 18.6876 14.7883L17.3524 15.4717C17.4496 15.6617 17.4993 15.8725 17.4973 16.086L18.9972 16.1006ZM18.6964 14.8061L17.6764 12.6761L16.3235 13.3239L17.3436 15.4539L18.6964 14.8061ZM17.75 13V8H16.25V13H17.75ZM4.24999 8V13H5.74999V8H4.24999ZM4.32231 12.6787L3.31232 14.8087L4.66766 15.4513L5.67766 13.3213L4.32231 12.6787ZM3.3339 14.7666C3.10532 15.1793 2.98354 15.6426 2.97965 16.1144L4.4796 16.1268C4.48143 15.9051 4.53866 15.6873 4.64608 15.4934L3.3339 14.7666ZM2.97965 16.1144C2.97575 16.5862 3.08986 17.0514 3.3116 17.4679L4.6356 16.7629C4.53139 16.5672 4.47777 16.3485 4.4796 16.1268L2.97965 16.1144ZM3.3116 17.4679C3.53333 17.8843 3.85565 18.2387 4.24925 18.4988L5.07626 17.2474C4.89129 17.1251 4.73981 16.9586 4.6356 16.7629L3.3116 17.4679ZM4.24925 18.4988C4.64284 18.7589 5.09522 18.9165 5.56524 18.9572L5.69474 17.4628C5.47385 17.4437 5.26124 17.3696 5.07626 17.2474L4.24925 18.4988ZM5.64249 18.9599L8.64249 18.9099L8.61749 17.4101L5.61749 17.4601L5.64249 18.9599ZM8.6347 18.91L13.4147 18.88L13.4053 17.38L8.62528 17.41L8.6347 18.91ZM5.74999 8.00099C5.75178 6.64541 6.62876 5.59585 7.83626 4.84234C9.05321 4.08292 10.4163 3.75 11 3.75V2.25C10.0836 2.25 8.44905 2.69183 7.04214 3.56979C5.62577 4.45365 4.25276 5.90409 4.24999 7.99901L5.74999 8.00099ZM11 3.75C11.2543 3.75 11.7249 3.83569 12.3199 4.04484C12.9007 4.24896 13.5477 4.55242 14.1482 4.94419C15.3834 5.75007 16.2454 6.80417 16.25 8.00284L17.75 7.99716C17.7426 6.03864 16.3546 4.59274 14.9678 3.68792C14.2573 3.22434 13.5003 2.86977 12.8173 2.6297C12.1486 2.39466 11.4957 2.25 11 2.25V3.75Z" fill="#252729"/>
</g>
<defs>
<clipPath id="clip0_3874_6088">
<rect width="16" height="20" fill="white" transform="translate(3 2)"/>
</clipPath>
</defs>
</svg>
