<svg width="24" height="24" viewBox="0 0 24 24" fill="none" xmlns="http://www.w3.org/2000/svg">
<g clip-path="url(#clip0_3951_4394)">
<path d="M10.5 12C10.5 12.9665 11.2835 13.75 12.25 13.75C13.2165 13.75 14 12.9665 14 12C14 11.0335 13.2165 10.25 12.25 10.25C11.2835 10.25 10.5 11.0335 10.5 12Z" fill="#252729"/>
<path d="M10.5 20.25C10.5 21.2165 11.2835 22 12.25 22C13.2165 22 14 21.2165 14 20.25C14 19.2835 13.2165 18.5 12.25 18.5C11.2835 18.5 10.5 19.2835 10.5 20.25Z" fill="#252729"/>
<path d="M10.5 3.75C10.5 4.7165 11.2835 5.5 12.25 5.5C13.2165 5.5 14 4.7165 14 3.75C14 2.7835 13.2165 2 12.25 2C11.2835 2 10.5 2.7835 10.5 3.75Z" fill="#252729"/>
</g>
<defs>
<clipPath id="clip0_3951_4394">
<rect width="20" height="3.5" fill="white" transform="translate(14 2) rotate(90)"/>
</clipPath>
</defs>
</svg>
