<svg width="24" height="24" viewBox="0 0 24 24" fill="none" xmlns="http://www.w3.org/2000/svg">
<g id="ic_lock_line">
<path id="Vector" d="M19.06 9.57H18.27V9.45C18.27 5.36 15.46 2 12 2C8.53997 2 5.72997 5.36 5.72997 9.45V9.57H4.93997C4.80072 9.56943 4.66289 9.59796 4.5353 9.65374C4.40771 9.70953 4.29318 9.79135 4.19904 9.89396C4.1049 9.99657 4.03323 10.1177 3.98862 10.2496C3.94401 10.3815 3.92744 10.5213 3.93997 10.66V20.91C3.92744 21.0487 3.94401 21.1885 3.98862 21.3204C4.03323 21.4523 4.1049 21.5734 4.19904 21.676C4.29318 21.7787 4.40771 21.8605 4.5353 21.9163C4.66289 21.972 4.80072 22.0006 4.93997 22H19.06C19.1992 22.0006 19.3371 21.972 19.4646 21.9163C19.5922 21.8605 19.7068 21.7787 19.8009 21.676C19.895 21.5734 19.9667 21.4523 20.0113 21.3204C20.0559 21.1885 20.0725 21.0487 20.06 20.91V10.66C20.0725 10.5213 20.0559 10.3815 20.0113 10.2496C19.9667 10.1177 19.895 9.99657 19.8009 9.89396C19.7068 9.79135 19.5922 9.70953 19.4646 9.65374C19.3371 9.59796 19.1992 9.56943 19.06 9.57ZM6.72997 9.45C6.72997 5.91 9.09997 3 12 3C14.9 3 17.27 5.88 17.27 9.42V9.54H6.72997V9.45ZM19.06 21H4.99997C4.98766 20.9678 4.98766 20.9322 4.99997 20.9V10.66C4.99997 10.6 4.99997 10.57 4.99997 10.57H19C19.0099 10.5992 19.0099 10.6308 19 10.66V20.91C19.06 21 19 21 19.06 21Z" fill="#3A3D40"/>
<path id="Vector_2" d="M12 13.28C11.5055 13.28 11.0222 13.4267 10.6111 13.7014C10.2 13.9761 9.87952 14.3665 9.6903 14.8233C9.50108 15.2801 9.45157 15.7828 9.54804 16.2678C9.6445 16.7527 9.8826 17.1982 10.2322 17.5478C10.5819 17.8974 11.0273 18.1355 11.5123 18.232C11.9972 18.3285 12.4999 18.2789 12.9567 18.0897C13.4135 17.9005 13.804 17.5801 14.0787 17.169C14.3534 16.7578 14.5 16.2745 14.5 15.78C14.5 15.117 14.2366 14.4811 13.7678 14.0123C13.2989 13.5434 12.663 13.28 12 13.28ZM12 17.28C11.7033 17.28 11.4133 17.1921 11.1666 17.0272C10.92 16.8624 10.7277 16.6281 10.6142 16.3541C10.5007 16.08 10.4709 15.7784 10.5288 15.4874C10.5867 15.1964 10.7296 14.9291 10.9393 14.7194C11.1491 14.5096 11.4164 14.3667 11.7074 14.3089C11.9983 14.251 12.2999 14.2807 12.574 14.3942C12.8481 14.5077 13.0824 14.7 13.2472 14.9467C13.412 15.1933 13.5 15.4834 13.5 15.78C13.5 16.1779 13.342 16.5594 13.0607 16.8407C12.7794 17.122 12.3978 17.28 12 17.28Z" fill="#3A3D40"/>
</g>
</svg>
