<svg width="24" height="24" viewBox="0 0 24 24" fill="none" xmlns="http://www.w3.org/2000/svg">
<path fill-rule="evenodd" clip-rule="evenodd" d="M17.3272 3.21215C17.6243 3.50083 17.6311 3.97565 17.3423 4.2727L15.9114 5.74463C16.1595 5.92762 16.3956 6.12627 16.6184 6.33938L18.0113 4.98279C18.3081 4.69375 18.7831 4.69995 19.0722 4.99664C19.3614 5.29333 19.3552 5.76816 19.0584 6.05721L17.6592 7.4199C17.8897 7.67404 18.1052 7.94125 18.3048 8.22017L19.7174 6.76726C20.0062 6.47024 20.4812 6.46348 20.7783 6.75218C21.0754 7.04088 21.0822 7.51571 20.7934 7.81274L19.1083 9.54592L19.1124 9.55336L18.7218 9.95369C17.5442 11.1606 15.7224 11.6452 14.3703 10.8766L12.856 12.4324L19.4126 19.1669C19.7016 19.4637 19.6951 19.9386 19.3982 20.2275C19.1013 20.5164 18.6263 20.5099 18.3373 20.2131L11.8093 13.5079L4.73815 20.773C4.44921 21.0699 3.97423 21.0764 3.67727 20.7875C3.3803 20.4987 3.3738 20.0238 3.66275 19.727L10.7624 12.4326L8.60355 10.2152C7.17918 11.0312 5.27082 10.4425 4.10712 9.12479C2.81059 7.65668 2.52687 5.38377 3.97289 4.10753C5.41891 2.83129 7.63982 3.39446 8.93635 4.86257C10.0125 6.08109 10.3909 7.85402 9.66163 9.15135L11.8091 11.3571L13.3109 9.81418C12.5377 8.44445 13.022 6.57009 14.1945 5.35851L16.2663 3.2273C16.5551 2.93025 17.03 2.92347 17.3272 3.21215Z" fill="#252729"/>
<line x1="0.75" y1="-0.75" x2="14.6023" y2="-0.75" transform="matrix(-0.6979 0.716195 -0.716409 -0.69768 13.8833 9.24976)" stroke="#252729" stroke-width="1.5" stroke-linecap="round"/>
<line x1="0.75" y1="-0.75" x2="15.2524" y2="-0.75" transform="matrix(-0.6979 -0.716195 0.716409 -0.69768 20.4609 20.25)" stroke="#252729" stroke-width="1.5" stroke-linecap="round"/>
</svg>
