<svg width="24" height="24" viewBox="0 0 24 24" fill="none" xmlns="http://www.w3.org/2000/svg">
<g clip-path="url(#clip0_4002_4059)">
<path d="M3.75 11C3.75 9.36831 4.23385 7.77325 5.14038 6.41655C6.0469 5.05984 7.33537 4.00242 8.84286 3.378C10.3504 2.75357 12.0092 2.5902 13.6095 2.90853C15.2098 3.22685 16.6798 4.01259 17.8336 5.16637C18.9874 6.32016 19.7732 7.79017 20.0915 9.39051C20.4098 10.9909 20.2464 12.6497 19.622 14.1571C18.9976 15.6646 17.9402 16.9531 16.5835 17.8596C15.2267 18.7662 13.6317 19.25 12 19.25" stroke="black" stroke-width="1.5" stroke-miterlimit="10" stroke-linecap="round"/>
<path d="M13 21.75L10.5 19.25L13 16.75" stroke="black" stroke-width="1.5" stroke-linecap="round" stroke-linejoin="round"/>
</g>
<defs>
<clipPath id="clip0_4002_4059">
<rect width="18" height="20.5" fill="white" transform="translate(3 2)"/>
</clipPath>
</defs>
</svg>
