<svg width="24" height="24" viewBox="0 0 24 24" fill="none" xmlns="http://www.w3.org/2000/svg">
<g id="ic_arrow_down_line">
<path id="Vector" d="M12.037 17.537C11.9019 17.5367 11.7724 17.4828 11.677 17.387L2.14705 7.85705C2.05289 7.76289 2 7.6352 2 7.50205C2 7.3689 2.05289 7.2412 2.14705 7.14705C2.2412 7.05289 2.3689 7 2.50205 7C2.6352 7 2.76289 7.05289 2.85705 7.14705L12.037 16.327L21.107 7.26705C21.153 7.22108 21.2076 7.18462 21.2676 7.15975C21.3277 7.13487 21.392 7.12207 21.457 7.12207C21.522 7.12207 21.5864 7.13487 21.6465 7.15975C21.7065 7.18462 21.7611 7.22108 21.807 7.26705C21.853 7.31301 21.8895 7.36757 21.9143 7.42763C21.9392 7.48768 21.952 7.55204 21.952 7.61705C21.952 7.68205 21.9392 7.74641 21.9143 7.80646C21.8895 7.86652 21.853 7.92108 21.807 7.96705L12.387 17.397C12.2931 17.4876 12.1675 17.5378 12.037 17.537Z" fill="#3A3D40"/>
</g>
</svg>
