<svg width="24" height="24" viewBox="0 0 24 24" fill="none" xmlns="http://www.w3.org/2000/svg">
<g id="ic_book_filled">
<path id="Vector" d="M20.73 4.08L12.73 5.34C12.4542 5.34575 12.1876 5.44045 11.97 5.61C11.7569 5.43924 11.493 5.34425 11.22 5.34L3.21998 4.08C2.89195 4.08786 2.58016 4.22439 2.35192 4.46012C2.12367 4.69585 1.99726 5.01188 1.99998 5.34V16.49C1.99998 16.8215 2.13168 17.1395 2.3661 17.3739C2.60052 17.6083 2.91846 17.74 3.24998 17.74L11.25 19C11.5242 18.9929 11.7882 18.8944 12 18.72C12.2167 18.8925 12.4832 18.9907 12.76 19L20.76 17.74C21.089 17.7348 21.4028 17.6011 21.6345 17.3675C21.8663 17.1339 21.9974 16.819 22 16.49V5.34C22 5.17369 21.9671 5.00902 21.9031 4.85549C21.8392 4.70197 21.7455 4.56262 21.6274 4.44549C21.5093 4.32835 21.3693 4.23575 21.2152 4.17302C21.0612 4.11029 20.8963 4.07868 20.73 4.08ZM14.49 12.55H14.4C14.2828 12.5516 14.1689 12.5111 14.079 12.4358C13.9891 12.3606 13.9291 12.2556 13.91 12.14C13.8895 12.009 13.9209 11.8752 13.9974 11.7669C14.074 11.6586 14.1897 11.5844 14.32 11.56L19 10.79H19.09C19.2226 10.7794 19.354 10.8219 19.4553 10.9082C19.5565 10.9944 19.6194 11.1174 19.63 11.25C19.6406 11.3826 19.5981 11.514 19.5118 11.6153C19.4256 11.7165 19.3026 11.7794 19.17 11.79L14.49 12.55ZM19.16 9L14.49 9.78H14.4C14.3343 9.78525 14.2683 9.77752 14.2056 9.75724C14.1429 9.73697 14.0849 9.70455 14.0347 9.66183C13.9846 9.61912 13.9433 9.56695 13.9133 9.50829C13.8834 9.44964 13.8652 9.38566 13.86 9.32C13.8547 9.25433 13.8625 9.18828 13.8827 9.12561C13.903 9.06294 13.9354 9.00487 13.9781 8.95473C14.0209 8.90458 14.073 8.86334 14.1317 8.83336C14.1903 8.80338 14.2543 8.78525 14.32 8.78L19 8H19.09C19.2226 7.98939 19.354 8.03189 19.4553 8.11816C19.5565 8.20442 19.6194 8.32739 19.63 8.46C19.6406 8.5926 19.5981 8.72399 19.5118 8.82526C19.4256 8.92653 19.3026 8.98939 19.17 9H19.16ZM14.32 14.39L19 13.59H19.09C19.2081 13.5908 19.3221 13.6335 19.4118 13.7104C19.5015 13.7872 19.5611 13.8934 19.58 14.01C19.6004 14.141 19.5691 14.2748 19.4925 14.3831C19.416 14.4914 19.3003 14.5656 19.17 14.59L14.5 15.36H14.4C14.2819 15.3592 14.1678 15.3165 14.0781 15.2396C13.9885 15.1628 13.9289 15.0566 13.91 14.94C13.8895 14.809 13.9209 14.6752 13.9974 14.5669C14.074 14.4586 14.1897 14.3844 14.32 14.36V14.39ZM4.82998 11.74C4.76432 11.7354 4.70021 11.7179 4.6413 11.6885C4.5824 11.6592 4.52986 11.6185 4.48668 11.5688C4.4435 11.5191 4.41053 11.4614 4.38965 11.399C4.36877 11.3366 4.36039 11.2707 4.36498 11.205C4.36958 11.1393 4.38706 11.0752 4.41644 11.0163C4.44581 10.9574 4.4865 10.9049 4.53618 10.8617C4.58586 10.8185 4.64355 10.7855 4.70598 10.7647C4.7684 10.7438 4.83432 10.7354 4.89998 10.74H4.99998L9.66998 11.52C9.73531 11.5283 9.79823 11.55 9.85482 11.5837C9.91141 11.6174 9.96046 11.6624 9.99891 11.7159C10.0374 11.7693 10.0644 11.8301 10.0784 11.8945C10.0923 11.9589 10.0929 12.0254 10.08 12.09C10.0611 12.2066 10.0015 12.3128 9.91182 12.3896C9.82212 12.4665 9.70811 12.5092 9.58998 12.51H9.49998L4.82998 11.74ZM4.82998 8.94C4.69965 8.91559 4.58395 8.84138 4.50742 8.7331C4.43088 8.62483 4.39952 8.491 4.41998 8.36C4.43857 8.24505 4.49669 8.1402 4.58432 8.06352C4.67195 7.98685 4.78359 7.94316 4.89998 7.94H4.99998L9.66998 8.71C9.80259 8.7206 9.92555 8.78346 10.0118 8.88473C10.0981 8.986 10.1406 9.11739 10.13 9.25C10.1194 9.3826 10.0565 9.50557 9.95525 9.59183C9.85398 9.6781 9.72259 9.7206 9.58998 9.71H9.49998L4.82998 8.94ZM4.89998 13.55H4.99998L9.66998 14.33C9.73531 14.3383 9.79823 14.36 9.85482 14.3937C9.91141 14.4274 9.96046 14.4724 9.99891 14.5259C10.0374 14.5793 10.0644 14.6401 10.0784 14.7045C10.0923 14.7689 10.0929 14.8354 10.08 14.9C10.063 15.0175 10.004 15.1248 9.91389 15.2021C9.82377 15.2793 9.70867 15.3212 9.58998 15.32H9.49998L4.82998 14.55C4.70439 14.5279 4.592 14.4586 4.51578 14.3564C4.43957 14.2542 4.4053 14.1267 4.41998 14C4.42989 13.8788 4.48451 13.7656 4.57322 13.6825C4.66193 13.5993 4.7784 13.5521 4.89998 13.55Z" fill="#3A3D40"/>
</g>
</svg>
