<svg width="24" height="24" viewBox="0 0 24 24" fill="none" xmlns="http://www.w3.org/2000/svg">
<g id="ic_playcircle_filled">
<path id="Vector" d="M12 2C10.0222 2 8.08879 2.58649 6.4443 3.6853C4.79981 4.78412 3.51809 6.3459 2.76121 8.17317C2.00433 10.0004 1.8063 12.0111 2.19215 13.9509C2.578 15.8907 3.53041 17.6725 4.92894 19.0711C6.32746 20.4696 8.10929 21.422 10.0491 21.8079C11.9889 22.1937 13.9996 21.9957 15.8268 21.2388C17.6541 20.4819 19.2159 19.2002 20.3147 17.5557C21.4135 15.9112 22 13.9778 22 12C22 10.6868 21.7413 9.38642 21.2388 8.17317C20.7363 6.95991 19.9997 5.85752 19.0711 4.92893C18.1425 4.00035 17.0401 3.26375 15.8268 2.7612C14.6136 2.25866 13.3132 2 12 2ZM9.68 17.42C9.6003 17.4236 9.52104 17.4063 9.45 17.37C9.36772 17.3274 9.2989 17.2627 9.25122 17.1833C9.20354 17.1038 9.17889 17.0127 9.18 16.92V7.22C9.18107 7.12779 9.20663 7.03752 9.25407 6.95844C9.30152 6.87937 9.36914 6.81433 9.45 6.77C9.52604 6.75611 9.60397 6.75611 9.68 6.77C9.78855 6.76768 9.89456 6.80302 9.98 6.87L16.62 11.72C16.684 11.7653 16.7362 11.8252 16.7722 11.8948C16.8082 11.9644 16.827 12.0416 16.827 12.12C16.827 12.1984 16.8082 12.2756 16.7722 12.3452C16.7362 12.4148 16.684 12.4747 16.62 12.52L10 17.33C9.90672 17.3956 9.79381 17.4274 9.68 17.42Z" fill="#3A3D40"/>
</g>
</svg>
