<svg width="24" height="24" viewBox="0 0 24 24" fill="none" xmlns="http://www.w3.org/2000/svg">
<g clip-path="url(#clip0_4003_4471)">
<path fill-rule="evenodd" clip-rule="evenodd" d="M2.26246 4.18009C2.42903 4.0376 2.64959 3.97511 2.86615 4.00905L12.1161 5.45905C12.4811 5.51626 12.75 5.83063 12.75 6.20001V19.25C12.75 19.4692 12.6541 19.6774 12.4875 19.8199C12.321 19.9624 12.1004 20.0249 11.8839 19.991L2.63385 18.541C2.26894 18.4838 2 18.1694 2 17.8V4.75001C2 4.53081 2.09589 4.32258 2.26246 4.18009ZM3.5 5.62673V17.1584L11.25 18.3733V6.8416L3.5 5.62673Z" fill="#252729"/>
<path fill-rule="evenodd" clip-rule="evenodd" d="M21.7375 4.18009C21.9041 4.32258 22 4.53081 22 4.75001V17.8C22 18.1694 21.7311 18.4838 21.3661 18.541L12.1161 19.991C11.8996 20.0249 11.679 19.9624 11.5125 19.8199C11.3459 19.6774 11.25 19.4692 11.25 19.25V6.20001C11.25 5.83063 11.5189 5.51626 11.8839 5.45905L21.1339 4.00905C21.3504 3.97511 21.571 4.0376 21.7375 4.18009ZM12.75 6.8416V18.3733L20.5 17.1584V5.62673L12.75 6.8416Z" fill="#252729"/>
<path fill-rule="evenodd" clip-rule="evenodd" d="M2.75 17.8L12 19.25V6.2L2.75 4.75V17.8ZM5.79334 7.84536C5.39313 7.73857 4.98212 7.97644 4.87533 8.37665C4.76854 8.77686 5.00641 9.18787 5.40662 9.29466L9.41662 10.3647C9.81683 10.4714 10.2278 10.2336 10.3346 9.83337C10.4414 9.43316 10.2035 9.02215 9.80334 8.91536L5.79334 7.84536ZM4.87533 11.0467C4.98212 10.6465 5.39313 10.4086 5.79334 10.5154L9.80334 11.5854C10.2035 11.6922 10.4414 12.1032 10.3346 12.5034C10.2278 12.9036 9.81683 13.1415 9.41662 13.0347L5.40662 11.9647C5.00641 11.8579 4.76854 11.4469 4.87533 11.0467ZM5.79165 13.1949C5.39119 13.089 4.98074 13.3279 4.87488 13.7283C4.76903 14.1288 5.00785 14.5392 5.40831 14.6451L9.41831 15.7051C9.81877 15.8109 10.2292 15.5721 10.3351 15.1717C10.4409 14.7712 10.2021 14.3607 9.80165 14.2549L5.79165 13.1949Z" fill="#252729"/>
<path fill-rule="evenodd" clip-rule="evenodd" d="M21.25 17.8L12 19.25V6.2L21.25 4.75V17.8ZM18.5934 9.29466C18.9936 9.18787 19.2315 8.77686 19.1247 8.37665C19.0179 7.97644 18.6069 7.73857 18.2067 7.84536L14.1967 8.91536C13.7964 9.02215 13.5586 9.43316 13.6654 9.83337C13.7722 10.2336 14.1832 10.4714 14.5834 10.3647L18.5934 9.29466ZM19.1247 11.0467C19.2315 11.4469 18.9936 11.8579 18.5934 11.9647L14.5834 13.0347C14.1832 13.1415 13.7722 12.9036 13.6654 12.5034C13.5586 12.1032 13.7964 11.6922 14.1967 11.5854L18.2067 10.5154C18.6069 10.4086 19.0179 10.6465 19.1247 11.0467ZM18.5917 14.6451C18.9921 14.5392 19.231 14.1288 19.1251 13.7283C19.0193 13.3279 18.6088 13.089 18.2083 13.1949L14.1983 14.2549C13.7979 14.3607 13.5591 14.7712 13.6649 15.1717C13.7708 15.5721 14.1812 15.8109 14.5817 15.7051L18.5917 14.6451Z" fill="#252729"/>
</g>
<defs>
<clipPath id="clip0_4003_4471">
<rect width="20" height="16" fill="white" transform="translate(2 4)"/>
</clipPath>
</defs>
</svg>
