<svg width="24" height="24" viewBox="0 0 24 24" fill="none" xmlns="http://www.w3.org/2000/svg">
<path fill-rule="evenodd" clip-rule="evenodd" d="M8.26754 8.8951C8.40493 9.28586 8.19954 9.71402 7.80878 9.85142C7.02255 10.1279 6.31845 10.5996 5.76218 11.2231C5.20588 11.8466 4.81554 12.6014 4.62776 13.4176C4.43998 14.2337 4.46094 15.0843 4.68866 15.8901C4.91638 16.6959 5.34338 17.4304 5.92964 18.0255C6.51587 18.6205 7.24228 19.0567 8.04111 19.2938C8.83993 19.5309 9.68545 19.5612 10.499 19.382C11.3126 19.2028 12.0681 18.8198 12.6951 18.2684C13.3221 17.7169 13.8002 17.0149 14.0846 16.2276C14.2253 15.838 14.6552 15.6363 15.0448 15.777C15.4344 15.9178 15.6361 16.3477 15.4954 16.7372C15.1253 17.7618 14.5028 18.6761 13.6857 19.3947C12.8686 20.1134 11.8834 20.613 10.8217 20.8469C9.76002 21.0808 8.65663 21.0412 7.61432 20.7318C6.57203 20.4225 5.62495 19.8535 4.8611 19.0782C4.09727 18.3029 3.54149 17.3465 3.2452 16.298C2.9489 15.2496 2.92165 14.143 3.16596 13.0812C3.41026 12.0194 3.91826 11.0366 4.64293 10.2244C5.36762 9.41223 6.28548 8.79701 7.31122 8.43634C7.70198 8.29895 8.13014 8.50434 8.26754 8.8951Z" fill="#252729"/>
<path fill-rule="evenodd" clip-rule="evenodd" d="M11.605 7.82003C11.605 7.45276 11.9027 7.15503 12.27 7.15503H17.43C17.7973 7.15503 18.095 7.45276 18.095 7.82003C18.095 8.1873 17.7973 8.48503 17.43 8.48503H12.27C11.9027 8.48503 11.605 8.1873 11.605 7.82003Z" fill="#252729"/>
<path fill-rule="evenodd" clip-rule="evenodd" d="M11.605 9.50997C11.605 9.1427 11.9027 8.84497 12.27 8.84497H15.42C15.7873 8.84497 16.085 9.1427 16.085 9.50997C16.085 9.87724 15.7873 10.175 15.42 10.175H12.27C11.9027 10.175 11.605 9.87724 11.605 9.50997Z" fill="#252729"/>
<path fill-rule="evenodd" clip-rule="evenodd" d="M11.605 11.2C11.605 10.8328 11.9027 10.535 12.27 10.535H16.49C16.8573 10.535 17.155 10.8328 17.155 11.2C17.155 11.5673 16.8573 11.865 16.49 11.865H12.27C11.9027 11.865 11.605 11.5673 11.605 11.2Z" fill="#252729"/>
<path d="M15 4.5C16.1935 4.5 17.3381 4.97411 18.182 5.81802C19.0259 6.66193 19.5 7.80653 19.5 9C19.5 10.1935 19.0259 11.3381 18.182 12.182C17.3381 13.0259 16.1935 13.5 15 13.5C14 13.5 11.93 13.5 10.5 13.42V9C10.5 7.80653 10.9741 6.66193 11.818 5.81802C12.6619 4.97411 13.8065 4.5 15 4.5ZM15 3C13.4087 3 11.8826 3.63214 10.7574 4.75736C9.63214 5.88258 9 7.4087 9 9V14.89C9 14.89 13.44 15 15 15C16.5913 15 18.1174 14.3679 19.2426 13.2426C20.3679 12.1174 21 10.5913 21 9C21 7.4087 20.3679 5.88258 19.2426 4.75736C18.1174 3.63214 16.5913 3 15 3Z" fill="#252729"/>
</svg>
