<svg width="24" height="24" viewBox="0 0 24 24" fill="none" xmlns="http://www.w3.org/2000/svg">
<g id="ic_plus_line">
<path id="Vector" d="M21.51 11.45H12.51V2.45003C12.4974 2.32453 12.4379 2.20841 12.3433 2.12496C12.2487 2.04151 12.1261 1.99688 12 2.00003C11.8674 2.00003 11.7402 2.05271 11.6464 2.14648C11.5527 2.24025 11.5 2.36743 11.5 2.50003V11.5H2.5C2.36739 11.5 2.24021 11.5527 2.14645 11.6465C2.05268 11.7402 2 11.8674 2 12C2 12.1326 2.05268 12.2598 2.14645 12.3536C2.24021 12.4474 2.36739 12.5 2.5 12.5H11.5V21.5C11.5 21.6326 11.5527 21.7598 11.6464 21.8536C11.7402 21.9474 11.8674 22 12 22C12.1326 22 12.2598 21.9474 12.3536 21.8536C12.4473 21.7598 12.5 21.6326 12.5 21.5V12.5H21.5C21.6326 12.5 21.7598 12.4474 21.8536 12.3536C21.9473 12.2598 22 12.1326 22 12C22.0069 11.9311 21.9995 11.8615 21.9781 11.7957C21.9567 11.7298 21.9219 11.6691 21.8758 11.6174C21.8298 11.5657 21.7735 11.5241 21.7105 11.4953C21.6475 11.4665 21.5792 11.4511 21.51 11.45Z" fill="#3A3D40"/>
</g>
</svg>
