<svg width="24" height="24" viewBox="0 0 24 24" fill="none" xmlns="http://www.w3.org/2000/svg">
<path fill-rule="evenodd" clip-rule="evenodd" d="M4.5 5.5V18.5H11.1438C11.558 18.5 11.8938 18.8358 11.8938 19.25C11.8938 19.6642 11.558 20 11.1438 20H4.19595C3.88505 20 3.58299 19.8799 3.35727 19.66C3.13083 19.4394 3 19.1361 3 18.8156V5.18439C3 4.86392 3.13083 4.56056 3.35727 4.33999C3.583 4.1201 3.88506 4 4.19595 4H19.8111L19.8182 4.00013C20.1236 4.00591 20.4185 4.12656 20.6402 4.34245C20.8624 4.5589 20.9936 4.85484 20.9999 5.16944L21 5.17692V10.484C21 10.8982 20.6642 11.234 20.25 11.234C19.8358 11.234 19.5 10.8982 19.5 10.484V5.5H4.5Z" fill="#252729"/>
<path fill-rule="evenodd" clip-rule="evenodd" d="M9 2C9.41421 2 9.75 2.33579 9.75 2.75V6.25C9.75 6.66421 9.41421 7 9 7C8.58579 7 8.25 6.66421 8.25 6.25V2.75C8.25 2.33579 8.58579 2 9 2Z" fill="#252729"/>
<path fill-rule="evenodd" clip-rule="evenodd" d="M15 2C15.4142 2 15.75 2.33579 15.75 2.75V6.25C15.75 6.66421 15.4142 7 15 7C14.5858 7 14.25 6.66421 14.25 6.25V2.75C14.25 2.33579 14.5858 2 15 2Z" fill="#252729"/>
<path fill-rule="evenodd" clip-rule="evenodd" d="M7.75 9.5C7.75 9.08579 8.08579 8.75 8.5 8.75H15.5C15.9142 8.75 16.25 9.08579 16.25 9.5C16.25 9.91421 15.9142 10.25 15.5 10.25H8.5C8.08579 10.25 7.75 9.91421 7.75 9.5Z" fill="#252729"/>
<path fill-rule="evenodd" clip-rule="evenodd" d="M12.2557 13.6832C11.9642 13.9747 11.9093 14.6101 12.4103 15.1111C12.9113 15.6121 13.5467 15.5572 13.8382 15.2658C14.1297 14.9743 14.1845 14.3388 13.6835 13.8379C13.1826 13.3369 12.5471 13.3917 12.2557 13.6832ZM11.3496 16.1718C10.3908 15.2129 10.1975 13.62 11.195 12.6225C12.1925 11.6251 13.7854 11.8184 14.7442 12.7772C15.7031 13.736 15.8963 15.3289 14.8989 16.3264C13.9014 17.3239 12.3085 17.1306 11.3496 16.1718Z" fill="#252729"/>
<path fill-rule="evenodd" clip-rule="evenodd" d="M13.8373 15.2667C14.1302 14.9738 14.6051 14.9738 14.898 15.2667L18.3378 18.7065C18.6307 18.9994 18.6307 19.4742 18.3378 19.7671C18.0449 20.06 17.57 20.06 17.2771 19.7671L13.8373 16.3273C13.5444 16.0344 13.5444 15.5596 13.8373 15.2667Z" fill="#252729"/>
<path fill-rule="evenodd" clip-rule="evenodd" d="M17.7015 15.2469C17.9944 15.5398 17.9944 16.0147 17.7015 16.3076L14.2617 19.7474C13.9688 20.0403 13.4939 20.0403 13.2011 19.7474C12.9082 19.4545 12.9082 18.9796 13.2011 18.6867L16.6409 15.2469C16.9338 14.954 17.4086 14.954 17.7015 15.2469Z" fill="#252729"/>
<path fill-rule="evenodd" clip-rule="evenodd" d="M17.9554 11.7452L21.2056 14.9807L20.6741 15.5122C20.1469 16.0394 19.4996 16.3914 18.8497 16.5059C18.2015 16.6201 17.4814 16.5019 16.959 15.9795C16.4348 15.4552 16.321 14.7332 16.4367 14.0878C16.5527 13.4405 16.9042 12.7964 17.4263 12.2744L17.9554 11.7452ZM18.0456 13.9515C17.9794 14.0911 17.9356 14.2271 17.9132 14.3524C17.8574 14.6639 17.9375 14.8367 18.0197 14.9188C18.1038 15.0029 18.2784 15.0835 18.5895 15.0287C18.7156 15.0065 18.8528 14.9626 18.994 14.8956L18.0456 13.9515Z" fill="#252729"/>
<path fill-rule="evenodd" clip-rule="evenodd" d="M19.2232 11.4197C19.4829 11.6794 19.4829 12.1005 19.2232 12.3602L18.3086 13.2748C18.0489 13.5345 17.6278 13.5345 17.3681 13.2748C17.1084 13.0151 17.1084 12.5941 17.3681 12.3344L18.2828 11.4197C18.5425 11.1601 18.9635 11.1601 19.2232 11.4197Z" fill="#252729"/>
<path fill-rule="evenodd" clip-rule="evenodd" d="M21.6432 13.5969C21.9029 13.8566 21.9029 14.2776 21.6432 14.5373L20.7286 15.452C20.4689 15.7117 20.0479 15.7117 19.7882 15.452C19.5285 15.1923 19.5285 14.7712 19.7882 14.5115L20.7028 13.5969C20.9625 13.3372 21.3835 13.3372 21.6432 13.5969Z" fill="#252729"/>
<path fill-rule="evenodd" clip-rule="evenodd" d="M20.445 12.5034C20.7047 12.7631 20.7047 13.1841 20.445 13.4438L19.5204 14.3684C19.2607 14.6281 18.8396 14.6281 18.5799 14.3684C18.3202 14.1087 18.3202 13.6876 18.5799 13.4279L19.5045 12.5034C19.7642 12.2437 20.1853 12.2437 20.445 12.5034Z" fill="#252729"/>
</svg>
