<svg width="24" height="24" viewBox="0 0 24 24" fill="none" xmlns="http://www.w3.org/2000/svg">
<g id="ic_pin_filled">
<path id="Union" fill-rule="evenodd" clip-rule="evenodd" d="M9.41673 1.99988L4 5.98323L9.27472 13.156L8.64949 13.6158C8.0942 14.0241 7.97508 14.8053 8.38343 15.3606L8.47668 15.4874C8.88503 16.0427 9.66622 16.1619 10.2215 15.7535L13.243 13.5316C13.2443 13.5335 13.2457 13.5354 13.2471 13.5373L19.6897 22.2961C19.8534 22.5185 20.1663 22.5662 20.3888 22.4026C20.6112 22.239 20.6589 21.926 20.4953 21.7036L14.0527 12.9448C14.0513 12.9429 14.0499 12.941 14.0485 12.9392L17.0604 10.7244C17.6157 10.316 17.7348 9.53481 17.3264 8.97952L17.2332 8.85271C16.8248 8.29741 16.0436 8.17829 15.4883 8.58665L14.6914 9.17266L9.41673 1.99988Z" fill="#3A3D40"/>
</g>
</svg>
