<svg width="24" height="24" viewBox="0 0 24 24" fill="none" xmlns="http://www.w3.org/2000/svg">
<g id="ic_arrow_up_line">
<path id="Vector" d="M21.4615 17.5438C21.3263 17.5435 21.1968 17.4896 21.1015 17.3938L11.9815 8.21384L2.86146 17.2738C2.81498 17.3207 2.75968 17.3579 2.69875 17.3833C2.63782 17.4087 2.57246 17.4217 2.50646 17.4217C2.44045 17.4217 2.3751 17.4087 2.31417 17.3833C2.25324 17.3579 2.19794 17.3207 2.15146 17.2738C2.10363 17.2289 2.0655 17.1747 2.03944 17.1145C2.01338 17.0543 1.99994 16.9894 1.99994 16.9238C1.99994 16.8582 2.01338 16.7933 2.03944 16.7331C2.0655 16.6729 2.10363 16.6187 2.15146 16.5738L11.5715 7.14384C11.6666 7.05159 11.7939 7 11.9265 7C12.059 7 12.1863 7.05159 12.2815 7.14384L21.8115 16.6738C21.8583 16.7203 21.8955 16.7756 21.9209 16.8365C21.9463 16.8975 21.9594 16.9628 21.9594 17.0288C21.9594 17.0948 21.9463 17.1602 21.9209 17.2211C21.8955 17.2821 21.8583 17.3374 21.8115 17.3838C21.7669 17.4327 21.713 17.4721 21.6528 17.4996C21.5927 17.5271 21.5276 17.5422 21.4615 17.5438Z" fill="#3A3D40"/>
</g>
</svg>
