<svg width="24" height="24" viewBox="0 0 24 24" fill="none" xmlns="http://www.w3.org/2000/svg">
<path fill-rule="evenodd" clip-rule="evenodd" d="M4.5 5.5V18.5H11.1438C11.558 18.5 11.8938 18.8358 11.8938 19.25C11.8938 19.6642 11.558 20 11.1438 20H4.19595C3.88505 20 3.58299 19.8799 3.35727 19.66C3.13083 19.4394 3 19.1361 3 18.8156V5.18439C3 4.86392 3.13083 4.56056 3.35727 4.33999C3.583 4.1201 3.88506 4 4.19595 4H19.8111L19.8182 4.00013C20.1236 4.00591 20.4185 4.12656 20.6402 4.34245C20.8624 4.5589 20.9936 4.85484 20.9999 5.16944L21 5.17692V10.484C21 10.8982 20.6642 11.234 20.25 11.234C19.8358 11.234 19.5 10.8982 19.5 10.484V5.5H4.5Z" fill="#252729"/>
<path fill-rule="evenodd" clip-rule="evenodd" d="M9 2C9.41421 2 9.75 2.33579 9.75 2.75V6.25C9.75 6.66421 9.41421 7 9 7C8.58579 7 8.25 6.66421 8.25 6.25V2.75C8.25 2.33579 8.58579 2 9 2Z" fill="#252729"/>
<path fill-rule="evenodd" clip-rule="evenodd" d="M15 2C15.4142 2 15.75 2.33579 15.75 2.75V6.25C15.75 6.66421 15.4142 7 15 7C14.5858 7 14.25 6.66421 14.25 6.25V2.75C14.25 2.33579 14.5858 2 15 2Z" fill="#252729"/>
<path fill-rule="evenodd" clip-rule="evenodd" d="M7.75 9.5C7.75 9.08579 8.08579 8.75 8.5 8.75H15.5C15.9142 8.75 16.25 9.08579 16.25 9.5C16.25 9.91421 15.9142 10.25 15.5 10.25H8.5C8.08579 10.25 7.75 9.91421 7.75 9.5Z" fill="#252729"/>
<path fill-rule="evenodd" clip-rule="evenodd" d="M13.5 16.0135C13.5 15.5993 13.8358 15.2635 14.25 15.2635H20.25C20.6642 15.2635 21 15.5993 21 16.0135V19.2129C21 19.6272 20.6642 19.9629 20.25 19.9629C19.8358 19.9629 19.5 19.6272 19.5 19.2129V16.7635H15V19.2129C15 19.6272 14.6642 19.9629 14.25 19.9629C13.8358 19.9629 13.5 19.6272 13.5 19.2129V16.0135Z" fill="#252729"/>
<path fill-rule="evenodd" clip-rule="evenodd" d="M16.9949 10.8822C17.2478 10.7814 17.5367 10.8451 17.7239 11.0428L20.2979 13.7618C20.4808 13.9551 20.5309 14.2387 20.4253 14.483C20.3197 14.7272 20.0787 14.885 19.8126 14.884L17.9059 14.8773V16.0136C17.9059 16.3808 17.6082 16.6786 17.2409 16.6786C16.8737 16.6786 16.5759 16.3808 16.5759 16.0136V14.2104C16.5759 14.2101 16.5759 14.2099 16.5759 14.2096V11.5C16.5759 11.2277 16.7419 10.9829 16.9949 10.8822ZM17.9059 13.5473L18.2645 13.5486L17.9059 13.1698V13.5473Z" fill="#252729"/>
</svg>
