<svg width="24" height="24" viewBox="0 0 24 24" fill="none" xmlns="http://www.w3.org/2000/svg">
<g clip-path="url(#clip0_3932_4512)">
<path d="M19.5 4.5V19.5H4.49999V4.5H19.5ZM20.08 3H3.90999C3.78705 2.99988 3.66536 3.02468 3.55226 3.07289C3.43916 3.1211 3.33701 3.19173 3.25196 3.28052C3.16692 3.3693 3.10074 3.4744 3.05744 3.58946C3.01413 3.70453 2.99459 3.82717 2.99999 3.95V20.09C2.99999 20.3313 3.09587 20.5628 3.26653 20.7335C3.43719 20.9041 3.66865 21 3.90999 21H20.08C20.3223 21 20.5548 20.9045 20.727 20.7341C20.8993 20.5637 20.9974 20.3323 21 20.09V3.95C20.9974 3.70774 20.8993 3.47629 20.727 3.30592C20.5548 3.13554 20.3223 3.03999 20.08 3.04V3Z" fill="#252729"/>
<path d="M3.89999 13.75L7.96999 9.70996L12.65 14.13L15.23 11.46L20 16.63" stroke="#252729" stroke-width="1.5" stroke-miterlimit="10"/>
<path d="M16.54 8.77001C17.3022 8.77001 17.92 8.15216 17.92 7.39001C17.92 6.62786 17.3022 6.01001 16.54 6.01001C15.7779 6.01001 15.16 6.62786 15.16 7.39001C15.16 8.15216 15.7779 8.77001 16.54 8.77001Z" stroke="#252729" stroke-width="1.5" stroke-miterlimit="10"/>
</g>
<defs>
<clipPath id="clip0_3932_4512">
<rect width="18" height="18" fill="white" transform="translate(3 3)"/>
</clipPath>
</defs>
</svg>
