<svg width="24" height="24" viewBox="0 0 24 24" fill="none" xmlns="http://www.w3.org/2000/svg">
<g id="ic_comment_filled">
<path id="Vector" d="M12 2C10.6868 2 9.38646 2.25866 8.17321 2.7612C6.95995 3.26375 5.85756 4.00035 4.92897 4.92893C3.05361 6.8043 2.00004 9.34784 2.00004 12V20.79C1.99872 20.9458 2.02827 21.1003 2.08698 21.2446C2.14569 21.389 2.2324 21.5202 2.3421 21.6309C2.45181 21.7415 2.58233 21.8293 2.72615 21.8892C2.86997 21.9492 3.02424 21.98 3.18004 21.98H9.18004L12 22C14.6522 22 17.1957 20.9464 19.0711 19.0711C20.9465 17.1957 22 14.6522 22 12C22 9.34784 20.9465 6.8043 19.0711 4.92893C17.1957 3.05357 14.6522 2 12 2ZM6.55004 9.7C6.55004 9.56739 6.60272 9.44022 6.69649 9.34645C6.79026 9.25268 6.91744 9.2 7.05004 9.2H17C17.1327 9.2 17.2598 9.25268 17.3536 9.34645C17.4474 9.44022 17.5 9.56739 17.5 9.7C17.5 9.83261 17.4474 9.95979 17.3536 10.0536C17.2598 10.1473 17.1327 10.2 17 10.2H7.05004C6.91744 10.2 6.79026 10.1473 6.69649 10.0536C6.60272 9.95979 6.55004 9.83261 6.55004 9.7ZM7.05004 12H13.18C13.3127 12 13.4398 12.0527 13.5336 12.1464C13.6274 12.2402 13.68 12.3674 13.68 12.5C13.68 12.6326 13.6274 12.7598 13.5336 12.8536C13.4398 12.9473 13.3127 13 13.18 13H7.05004C6.91824 12.9974 6.79254 12.9439 6.69932 12.8507C6.6061 12.7575 6.5526 12.6318 6.55004 12.5C6.55004 12.3674 6.60272 12.2402 6.69649 12.1464C6.79026 12.0527 6.91744 12 7.05004 12ZM7.05004 14.74H15.16C15.2927 14.74 15.4198 14.7927 15.5136 14.8864C15.6074 14.9802 15.66 15.1074 15.66 15.24C15.66 15.3726 15.6074 15.4998 15.5136 15.5936C15.4198 15.6873 15.2927 15.74 15.16 15.74H7.05004C6.91744 15.74 6.79026 15.6873 6.69649 15.5936C6.60272 15.4998 6.55004 15.3726 6.55004 15.24C6.55004 15.1074 6.60272 14.9802 6.69649 14.8864C6.79026 14.7927 6.91744 14.74 7.05004 14.74Z" fill="#3A3D40"/>
</g>
</svg>
