<svg width="24" height="24" viewBox="0 0 24 24" fill="none" xmlns="http://www.w3.org/2000/svg">
<g clip-path="url(#clip0_3951_4393)">
<path d="M12 13.5C12.9665 13.5 13.75 12.7165 13.75 11.75C13.75 10.7835 12.9665 10 12 10C11.0335 10 10.25 10.7835 10.25 11.75C10.25 12.7165 11.0335 13.5 12 13.5Z" fill="#252729"/>
<path d="M20.25 13.5C21.2165 13.5 22 12.7165 22 11.75C22 10.7835 21.2165 10 20.25 10C19.2835 10 18.5 10.7835 18.5 11.75C18.5 12.7165 19.2835 13.5 20.25 13.5Z" fill="#252729"/>
<path d="M3.75 13.5C4.7165 13.5 5.5 12.7165 5.5 11.75C5.5 10.7835 4.7165 10 3.75 10C2.7835 10 2 10.7835 2 11.75C2 12.7165 2.7835 13.5 3.75 13.5Z" fill="#252729"/>
</g>
<defs>
<clipPath id="clip0_3951_4393">
<rect width="20" height="3.5" fill="white" transform="translate(2 10)"/>
</clipPath>
</defs>
</svg>
