<svg width="24" height="24" viewBox="0 0 24 24" fill="none" xmlns="http://www.w3.org/2000/svg">
<g clip-path="url(#clip0_3874_5941)">
<path d="M21.84 10.7L12.48 2.19997C12.3435 2.07488 12.1651 2.00549 11.98 2.00549C11.7948 2.00549 11.6164 2.07488 11.48 2.19997L4.36997 8.81997L4.12997 9.03997L2.22997 10.81C2.08891 10.9523 2.00977 11.1446 2.00977 11.345C2.00977 11.5454 2.08891 11.7376 2.22997 11.88C2.37562 12.0264 2.57342 12.1091 2.77997 12.11C2.96968 12.1131 3.15297 12.0412 3.28997 11.91L3.83997 11.38H3.97997V19.62C3.97733 19.8388 4.01799 20.056 4.09961 20.2591C4.18122 20.4621 4.30218 20.647 4.45553 20.8032C4.60888 20.9593 4.79159 21.0836 4.99314 21.1688C5.1947 21.2541 5.41113 21.2987 5.62997 21.3H18.48C18.6988 21.2987 18.9152 21.2541 19.1168 21.1688C19.3184 21.0836 19.5011 20.9593 19.6544 20.8032C19.8078 20.647 19.9287 20.4621 20.0103 20.2591C20.092 20.056 20.1326 19.8388 20.13 19.62V11.27H20.24L20.85 11.82C20.9906 11.9604 21.1812 12.0393 21.38 12.0393C21.5787 12.0393 21.7693 11.9604 21.91 11.82C21.9819 11.7433 22.0375 11.6528 22.0731 11.5538C22.1087 11.4549 22.1237 11.3498 22.1172 11.2448C22.1106 11.1399 22.0826 11.0374 22.035 10.9437C21.9873 10.85 21.9209 10.767 21.84 10.7ZM14.67 13.7C14.67 14.2201 14.5157 14.7286 14.2267 15.1611C13.9377 15.5936 13.527 15.9307 13.0464 16.1298C12.5659 16.3288 12.0371 16.3809 11.5269 16.2794C11.0167 16.178 10.5481 15.9275 10.1803 15.5597C9.81247 15.1918 9.56199 14.7232 9.46051 14.2131C9.35903 13.7029 9.41111 13.1741 9.61017 12.6935C9.80923 12.2129 10.1463 11.8022 10.5788 11.5132C11.0113 11.2242 11.5198 11.07 12.04 11.07C12.3887 11.0673 12.7345 11.134 13.0572 11.2663C13.3799 11.3985 13.6731 11.5936 13.9197 11.8402C14.1664 12.0868 14.3614 12.38 14.4937 12.7027C14.6259 13.0254 14.6926 13.3712 14.69 13.72L14.67 13.7Z" fill="#252729"/>
</g>
<defs>
<clipPath id="clip0_3874_5941">
<rect width="20.1" height="19.29" fill="white" transform="translate(2 2)"/>
</clipPath>
</defs>
</svg>
