<svg width="24" height="24" viewBox="0 0 24 24" fill="none" xmlns="http://www.w3.org/2000/svg">
<path d="M18.5 11.0701V20.5001H5.5V11.0701H18.5ZM19 9.57006H5.03C4.76478 9.57006 4.51043 9.67542 4.32289 9.86295C4.13536 10.0505 4.03 10.3048 4.03 10.5701V21.0201C4.03 21.2853 4.13536 21.5396 4.32289 21.7272C4.51043 21.9147 4.76478 22.0201 5.03 22.0201H19.03C19.2952 22.0201 19.5496 21.9147 19.7371 21.7272C19.9246 21.5396 20.03 21.2853 20.03 21.0201V10.5601C20.03 10.2948 19.9246 10.0405 19.7371 9.85295C19.5496 9.66542 19.2952 9.56006 19.03 9.56006L19 9.57006Z" fill="#252729"/>
<path d="M12.03 14.8C12.2278 14.8 12.4211 14.8587 12.5856 14.9686C12.75 15.0785 12.8782 15.2346 12.9539 15.4174C13.0296 15.6001 13.0494 15.8012 13.0108 15.9951C12.9722 16.1891 12.8769 16.3673 12.7371 16.5072C12.5972 16.647 12.4191 16.7422 12.2251 16.7808C12.0311 16.8194 11.83 16.7996 11.6473 16.7239C11.4646 16.6482 11.3084 16.5201 11.1985 16.3556C11.0886 16.1912 11.03 15.9978 11.03 15.8C11.03 15.5348 11.1353 15.2805 11.3229 15.0929C11.5104 14.9054 11.7648 14.8 12.03 14.8ZM12.03 13.3C11.5395 13.3 11.06 13.4455 10.6522 13.718C10.2443 13.9905 9.92647 14.3778 9.73877 14.831C9.55106 15.2842 9.50195 15.7828 9.59764 16.2639C9.69333 16.7449 9.92953 17.1868 10.2764 17.5337C10.6232 17.8805 11.0651 18.1167 11.5462 18.2124C12.0272 18.3081 12.5259 18.259 12.979 18.0713C13.4322 17.8836 13.8195 17.5657 14.092 17.1579C14.3645 16.75 14.51 16.2705 14.51 15.78C14.51 15.4544 14.4458 15.1319 14.3212 14.831C14.1966 14.5301 14.0139 14.2567 13.7836 14.0264C13.5533 13.7961 13.2799 13.6135 12.979 13.4888C12.6782 13.3642 12.3557 13.3 12.03 13.3Z" fill="#252729"/>
<path d="M6.5 9.69C6.5 5.85 8.97 2.75 12.01 2.75C15.05 2.75 17.52 5.85 17.52 9.69" stroke="#252729" stroke-width="1.5" stroke-miterlimit="10"/>
</svg>
