<svg width="24" height="24" viewBox="0 0 24 24" fill="none" xmlns="http://www.w3.org/2000/svg">
<g clip-path="url(#clip0_3874_5945)">
<path d="M12 9.25C13.5188 9.25 14.75 8.01878 14.75 6.5C14.75 4.98122 13.5188 3.75 12 3.75C10.4812 3.75 9.25 4.98122 9.25 6.5C9.25 8.01878 10.4812 9.25 12 9.25Z" fill="#252729"/>
<path d="M12 4.5C12.3956 4.5 12.7822 4.6173 13.1111 4.83706C13.44 5.05682 13.6964 5.36918 13.8478 5.73463C13.9991 6.10009 14.0387 6.50222 13.9616 6.89018C13.8844 7.27814 13.6939 7.63451 13.4142 7.91421C13.1345 8.19392 12.7781 8.3844 12.3902 8.46157C12.0022 8.53874 11.6001 8.49913 11.2346 8.34776C10.8692 8.19638 10.5568 7.94004 10.3371 7.61114C10.1173 7.28224 10 6.89556 10 6.5C10 5.96957 10.2107 5.46086 10.5858 5.08579C10.9609 4.71071 11.4696 4.5 12 4.5ZM12 3C11.3078 3 10.6311 3.20527 10.0555 3.58986C9.47993 3.97444 9.03133 4.52107 8.76642 5.16061C8.50152 5.80015 8.4322 6.50388 8.56725 7.18282C8.7023 7.86175 9.03564 8.48539 9.52513 8.97487C10.0146 9.46436 10.6383 9.7977 11.3172 9.93275C11.9961 10.0678 12.6999 9.99849 13.3394 9.73358C13.9789 9.46867 14.5256 9.02007 14.9101 8.4445C15.2947 7.86892 15.5 7.19223 15.5 6.5C15.5 5.57174 15.1313 4.6815 14.4749 4.02513C13.8185 3.36875 12.9283 3 12 3Z" fill="#252729"/>
<path d="M4 20.25C3.96584 20.2515 3.93179 20.2451 3.90055 20.2312C3.8693 20.2173 3.84172 20.1964 3.82 20.17C3.77674 20.1237 3.75185 20.0633 3.75 20C3.90012 17.8925 4.82701 15.9158 6.35114 14.4526C7.87528 12.9894 9.88819 12.144 12 12.08C14.1118 12.144 16.1247 12.9894 17.6489 14.4526C19.173 15.9158 20.0999 17.8925 20.25 20C20.253 20.034 20.2492 20.0683 20.2389 20.1009C20.2286 20.1335 20.212 20.1638 20.19 20.19C20.1674 20.2153 20.1396 20.2355 20.1086 20.2493C20.0776 20.2631 20.044 20.2701 20.01 20.27L4 20.25Z" fill="#252729"/>
<path d="M12 12.83C13.8266 12.8857 15.5745 13.586 16.9343 14.8067C18.2942 16.0275 19.1782 17.69 19.43 19.5H4.57001C4.82178 17.69 5.70585 16.0275 7.06569 14.8067C8.42554 13.586 10.1735 12.8857 12 12.83ZM12 11.33C9.70632 11.3948 7.51776 12.3061 5.85602 13.8885C4.19427 15.4708 3.17693 17.6122 3.00001 19.9C2.98599 20.0394 3.00145 20.1803 3.04539 20.3134C3.08933 20.4465 3.16076 20.5689 3.25506 20.6726C3.34935 20.7764 3.4644 20.8591 3.59274 20.9155C3.72107 20.9719 3.85983 21.0007 4.00001 21H20C20.1402 21.0007 20.2789 20.9719 20.4073 20.9155C20.5356 20.8591 20.6507 20.7764 20.745 20.6726C20.8393 20.5689 20.9107 20.4465 20.9546 20.3134C20.9986 20.1803 21.014 20.0394 21 19.9C20.8231 17.6122 19.8057 15.4708 18.144 13.8885C16.4823 12.3061 14.2937 11.3948 12 11.33Z" fill="#252729"/>
</g>
<defs>
<clipPath id="clip0_3874_5945">
<rect width="18" height="18" fill="white" transform="translate(3 3)"/>
</clipPath>
</defs>
</svg>
