<svg width="24" height="24" viewBox="0 0 24 24" fill="none" xmlns="http://www.w3.org/2000/svg">
<g id="ic_trashcan_filled">
<path id="Union" fill-rule="evenodd" clip-rule="evenodd" d="M5.75488 2C5.75488 1.72386 5.97874 1.5 6.25488 1.5H17.4112C17.6874 1.5 17.9112 1.72386 17.9112 2C17.9112 2.27614 17.6874 2.5 17.4112 2.5H6.25488C5.97874 2.5 5.75488 2.27614 5.75488 2ZM5 6.49365H3C2.72386 6.49365 2.5 6.26979 2.5 5.99365C2.5 5.71751 2.72386 5.49365 3 5.49365H20.666C20.9421 5.49365 21.166 5.71751 21.166 5.99365C21.166 6.26979 20.9421 6.49365 20.666 6.49365H18.6V22C18.6 22.2761 18.3761 22.5 18.1 22.5H5.5C5.22386 22.5 5 22.2761 5 22V6.49365ZM11.7894 8.69734C11.4941 8.69734 11.2548 8.93669 11.2548 9.23193V18.8211C11.2548 19.1163 11.4941 19.3556 11.7894 19.3556C12.0846 19.3556 12.3239 19.1163 12.3239 18.8211V9.23193C12.3239 8.93669 12.0846 8.69734 11.7894 8.69734Z" fill="#3A3D40"/>
</g>
</svg>
