<svg width="24" height="24" viewBox="0 0 24 24" fill="none" xmlns="http://www.w3.org/2000/svg">
<g clip-path="url(#clip0_3874_6282)">
<path d="M16.5447 8.0122C16.6686 8.0122 16.7898 7.97544 16.8928 7.9066C16.9958 7.83775 17.0761 7.73991 17.1236 7.62543C17.171 7.51095 17.1834 7.38497 17.1592 7.26344C17.135 7.14191 17.0754 7.03027 16.9877 6.94265C16.9001 6.85503 16.7885 6.79537 16.667 6.7712C16.5454 6.74702 16.4195 6.75942 16.305 6.80684C16.1905 6.85426 16.0926 6.93457 16.0238 7.0376C15.955 7.14063 15.9182 7.26176 15.9182 7.38567C15.9182 7.55183 15.9842 7.7112 16.1017 7.82869C16.2192 7.94619 16.3786 8.0122 16.5447 8.0122Z" fill="#252729"/>
<path d="M16.5447 6.75916C16.4208 6.75916 16.2997 6.79591 16.1967 6.86475C16.0936 6.9336 16.0133 7.03144 15.9659 7.14592C15.9185 7.2604 15.9061 7.38638 15.9303 7.50791C15.9544 7.62944 16.0141 7.74108 16.1017 7.8287C16.1893 7.91632 16.301 7.97598 16.4225 8.00016C16.544 8.02433 16.67 8.01193 16.7845 7.96451C16.899 7.91709 16.9968 7.83678 17.0657 7.73375C17.1345 7.63072 17.1713 7.50959 17.1713 7.38568C17.1713 7.21952 17.1052 7.06016 16.9877 6.94266C16.8703 6.82517 16.7109 6.75916 16.5447 6.75916Z" fill="#252729"/>
<path d="M16.1171 10.2199C16.2595 10.2301 16.4024 10.2301 16.5448 10.2199C17.2237 10.2174 17.8796 9.97295 18.3946 9.53041C18.9096 9.08787 19.2499 8.47624 19.3545 7.80534C19.459 7.13445 19.321 6.44826 18.9652 5.86997C18.6093 5.29169 18.059 4.85921 17.4129 4.6502C16.7669 4.4412 16.0675 4.46934 15.4404 4.7296C14.8132 4.98985 14.2994 5.46516 13.9912 6.07017C13.683 6.67518 13.6006 7.37026 13.7587 8.03058C13.9169 8.6909 14.3053 9.27321 14.8541 9.67293L12.6066 12L7.95249 7.63425L3.7757 11.811V3.90497C3.77823 3.86188 3.79716 3.82138 3.82859 3.7918C3.86003 3.76221 3.90159 3.74578 3.94475 3.74585H20.095C20.1372 3.74585 20.1777 3.76261 20.2075 3.79245C20.2374 3.82229 20.2541 3.86277 20.2541 3.90497V14.695L16.1171 10.2199Z" fill="#252729"/>
<path d="M19.5083 4.49169V5.32705C19.2871 5.00653 19.015 4.72435 18.7028 4.49169H19.5083ZM14.3867 4.49169C13.9902 4.78712 13.6587 5.16086 13.4126 5.58972C13.1665 6.01858 13.0111 6.49343 12.9561 6.98482C12.9011 7.4762 12.9476 7.97365 13.0928 8.44632C13.2379 8.91898 13.4787 9.35679 13.8 9.73258L12.5768 10.9856L8.98674 7.58451L7.9326 6.59004L6.93812 7.58451L4.52155 9.99114V4.46186H14.4663L14.3867 4.49169ZM19.5878 9.43424V12.7856L17.758 10.7967C18.5006 10.5496 19.1428 10.068 19.5878 9.4243V9.43424ZM20.1746 2.9801H3.91492C3.67398 2.98009 3.44276 3.07511 3.27146 3.24455C3.10017 3.41398 3.00262 3.64414 3 3.88506V13.5812L7.97238 8.65855L12.6265 13.1039L15.242 10.3989L20.5525 16.0873L21 16.5348V3.90496C21 3.66494 20.9047 3.43476 20.7349 3.26505C20.5652 3.09533 20.335 2.99998 20.095 2.99998L20.1746 2.9801ZM16.6243 9.48396C16.2025 9.49385 15.7874 9.37757 15.4322 9.15002C15.0769 8.92247 14.7977 8.59403 14.6303 8.20677C14.4629 7.81952 14.415 7.3911 14.4926 6.97642C14.5703 6.56175 14.77 6.17971 15.0662 5.87926C15.3623 5.57882 15.7415 5.37365 16.155 5.29007C16.5685 5.20649 16.9976 5.24829 17.3872 5.41011C17.7768 5.57194 18.1092 5.84642 18.3418 6.19838C18.5744 6.55034 18.6967 6.96375 18.6928 7.38562C18.6928 7.94741 18.4696 8.48619 18.0724 8.88343C17.6752 9.28068 17.1364 9.50386 16.5746 9.50386L16.6243 9.48396Z" fill="#252729"/>
<path d="M3.91493 20.2541C3.87178 20.2468 3.83316 20.223 3.80719 20.1877C3.78122 20.1525 3.76994 20.1086 3.77571 20.0652V15.9978L8.03206 11.7712L12.726 16.2265L15.2321 13.6309L18.9613 17.6585L20.284 18.9812V20.0652C20.2854 20.0869 20.2822 20.1086 20.2749 20.1291C20.2675 20.1496 20.256 20.1683 20.2411 20.1842C20.2261 20.2 20.2081 20.2126 20.1882 20.2212C20.1682 20.2298 20.1466 20.2343 20.1249 20.2342L3.91493 20.2541Z" fill="#252729"/>
<path d="M8.01217 12.8254L11.6519 16.2563L12.716 17.2508L13.7105 16.1966L15.1624 14.695L18.3547 18.1458L19.4387 19.2298V19.4486H4.49173V16.2662L8.01217 12.7657V12.8254ZM8.01217 10.6873L3.03979 15.6596V20.0651C3.03979 20.3078 3.13619 20.5405 3.30777 20.7121C3.47935 20.8837 3.71206 20.9801 3.95471 20.9801H20.095C20.336 20.9774 20.5661 20.8799 20.7356 20.7086C20.905 20.5373 21 20.3061 21 20.0651V18.6729L19.4785 17.1513L15.2221 12.5469L12.726 15.1723L8.03206 10.7469L8.01217 10.6873Z" fill="#252729"/>
</g>
<defs>
<clipPath id="clip0_3874_6282">
<rect width="18" height="18" fill="white" transform="translate(3 3)"/>
</clipPath>
</defs>
</svg>
