<svg width="24" height="24" viewBox="0 0 24 24" fill="none" xmlns="http://www.w3.org/2000/svg">
<g id="ic_home_line">
<path id="Vector" d="M21.8213 11.0239L12.6492 2.2661C12.47 2.09529 12.2319 2 11.9844 2C11.7368 2 11.4988 2.09529 11.3196 2.2661L2.14747 11.0239C2.07872 11.0902 2.03121 11.1753 2.01096 11.2686C1.99071 11.3619 1.99864 11.4591 2.03374 11.5479C2.06884 11.6367 2.12953 11.7131 2.2081 11.7673C2.28667 11.8215 2.37959 11.8512 2.47505 11.8525C2.53752 11.8545 2.59973 11.8436 2.65777 11.8203C2.7158 11.7971 2.7684 11.7622 2.81226 11.7176L3.77571 10.8409V20.3117C3.77571 20.5672 3.87722 20.8122 4.0579 20.9929C4.23859 21.1736 4.48365 21.2751 4.73917 21.2751H19.2681C19.5236 21.2751 19.7687 21.1736 19.9494 20.9929C20.1301 20.8122 20.2316 20.5672 20.2316 20.3117V10.8409L21.195 11.7176C21.2398 11.7628 21.2931 11.7986 21.3518 11.8231C21.4105 11.8475 21.4735 11.8601 21.5371 11.8601C21.6006 11.8601 21.6636 11.8475 21.7223 11.8231C21.781 11.7986 21.8343 11.7628 21.8791 11.7176C21.9222 11.6689 21.955 11.612 21.9755 11.5502C21.996 11.4885 22.0037 11.4232 21.9983 11.3584C21.9929 11.2936 21.9745 11.2305 21.944 11.1731C21.9136 11.1156 21.8718 11.0648 21.8213 11.0239ZM19.2681 20.3117H4.70063V9.92559L11.9844 2.96942L19.2681 9.93522V20.3117Z" fill="#3A3D40"/>
<path id="Vector_2" d="M8.61224 13.6928C8.61224 14.3597 8.81001 15.0117 9.18054 15.5662C9.55108 16.1208 10.0777 16.553 10.6939 16.8082C11.3101 17.0634 11.9881 17.1302 12.6422 17.0001C13.2963 16.87 13.8972 16.5488 14.3688 16.0772C14.8404 15.6056 15.1615 15.0048 15.2917 14.3506C15.4218 13.6965 15.355 13.0185 15.0998 12.4023C14.8445 11.7862 14.4123 11.2595 13.8578 10.889C13.3032 10.5184 12.6513 10.3207 11.9843 10.3207C11.09 10.3207 10.2323 10.676 9.59991 11.3083C8.96752 11.9407 8.61224 12.7984 8.61224 13.6928ZM14.393 13.6928C14.393 14.1692 14.2517 14.6349 13.9871 15.031C13.7224 15.4271 13.3462 15.7358 12.9061 15.9181C12.466 16.1004 11.9817 16.1481 11.5144 16.0551C11.0472 15.9622 10.618 15.7328 10.2812 15.3959C9.94432 15.0591 9.71492 14.6299 9.62198 14.1627C9.52904 13.6955 9.57674 13.2112 9.75905 12.771C9.94135 12.3309 10.2501 11.9547 10.6462 11.6901C11.0423 11.4254 11.508 11.2841 11.9843 11.2841C12.6232 11.2841 13.2358 11.5379 13.6875 11.9896C14.1392 12.4413 14.393 13.054 14.393 13.6928Z" fill="#3A3D40"/>
</g>
</svg>
