<svg width="20" height="21" viewBox="0 0 20 21" fill="none" xmlns="http://www.w3.org/2000/svg">
<g clip-path="url(#clip0_6832_12639)">
<path d="M9.99984 2.16675C8.35166 2.16675 6.7405 2.65549 5.37009 3.57117C3.99968 4.48685 2.93158 5.78834 2.30084 7.31105C1.67011 8.83377 1.50509 10.5093 1.82663 12.1258C2.14817 13.7423 2.94185 15.2272 4.10728 16.3926C5.27272 17.5581 6.75758 18.3518 8.37409 18.6733C9.9906 18.9948 11.6662 18.8298 13.1889 18.1991C14.7116 17.5684 16.0131 16.5002 16.9288 15.1298C17.8444 13.7594 18.3332 12.1483 18.3332 10.5001C18.3332 9.40573 18.1176 8.3221 17.6988 7.31105C17.2801 6.30001 16.6662 5.38135 15.8924 4.60753C15.1186 3.8337 14.1999 3.21987 13.1889 2.80109C12.1778 2.3823 11.0942 2.16675 9.99984 2.16675ZM13.7748 13.3917C13.8919 13.5089 13.9576 13.6678 13.9576 13.8334C13.9576 13.999 13.8919 14.1579 13.7748 14.2751C13.6577 14.3921 13.4988 14.4579 13.3332 14.4579C13.1676 14.4579 13.0087 14.3921 12.8915 14.2751L9.99984 11.3834L7.10817 14.2751C6.99099 14.3921 6.83213 14.4579 6.66651 14.4579C6.50088 14.4579 6.34203 14.3921 6.22484 14.2751C6.1078 14.1579 6.04206 13.999 6.04206 13.8334C6.04206 13.6678 6.1078 13.5089 6.22484 13.3917L9.11651 10.5001L6.22484 7.60842C6.11444 7.48994 6.05434 7.33323 6.0572 7.17131C6.06005 7.0094 6.12565 6.85491 6.24016 6.7404C6.35467 6.62589 6.50916 6.56029 6.67107 6.55744C6.83299 6.55458 6.9897 6.61468 7.10817 6.72508L9.99984 9.61675L12.8915 6.72508C13.01 6.61468 13.1667 6.55458 13.3286 6.55744C13.4905 6.56029 13.645 6.62589 13.7595 6.7404C13.874 6.85491 13.9396 7.0094 13.9425 7.17131C13.9453 7.33323 13.8852 7.48994 13.7748 7.60842L10.8832 10.5001L13.7748 13.3917Z" fill="#505458"/>
</g>
<defs>
<clipPath id="clip0_6832_12639">
<rect width="16.6667" height="16.6667" fill="white" transform="translate(1.6665 2.16675)"/>
</clipPath>
</defs>
</svg>
