<svg width="24" height="24" viewBox="0 0 24 24" fill="none" xmlns="http://www.w3.org/2000/svg">
<g id="ic_camera_filled">
<path id="Vector" d="M21 5.86998H18C17.9644 5.2916 17.7099 4.74846 17.2883 4.35097C16.8667 3.95347 16.3095 3.73143 15.73 3.72998H8.27C7.69053 3.73143 7.13335 3.95347 6.7117 4.35097C6.29005 4.74846 6.03558 5.2916 6 5.86998H3C2.73478 5.86998 2.48043 5.97534 2.29289 6.16287C2.10536 6.35041 2 6.60476 2 6.86998V17.87C2 18.1352 2.10536 18.3896 2.29289 18.5771C2.48043 18.7646 2.73478 18.87 3 18.87H21C21.2652 18.87 21.5196 18.7646 21.7071 18.5771C21.8946 18.3896 22 18.1352 22 17.87V6.86998C22 6.60476 21.8946 6.35041 21.7071 6.16287C21.5196 5.97534 21.2652 5.86998 21 5.86998ZM12 16.87C11.11 16.87 10.24 16.6061 9.49993 16.1116C8.75991 15.6171 8.18314 14.9143 7.84254 14.0921C7.50195 13.2698 7.41283 12.365 7.58647 11.4921C7.7601 10.6192 8.18868 9.81734 8.81802 9.188C9.44736 8.55866 10.2492 8.13008 11.1221 7.95645C11.995 7.78281 12.8998 7.87193 13.7221 8.21252C14.5443 8.55312 15.2471 9.12989 15.7416 9.86991C16.2361 10.6099 16.5 11.48 16.5 12.37C16.4869 13.5557 16.0073 14.6885 15.1651 15.5232C14.3228 16.358 13.1858 16.8274 12 16.83V16.87Z" fill="#3A3D40"/>
<path id="Vector_2" d="M12.01 14.83C13.3907 14.83 14.51 13.7107 14.51 12.33C14.51 10.9492 13.3907 9.82996 12.01 9.82996C10.6293 9.82996 9.51001 10.9492 9.51001 12.33C9.51001 13.7107 10.6293 14.83 12.01 14.83Z" fill="#3A3D40"/>
</g>
</svg>
