<svg width="24" height="24" viewBox="0 0 24 24" fill="none" xmlns="http://www.w3.org/2000/svg">
<g id="ic_foodcalendar_filled">
<path id="Vector" d="M21.843 15.7178C21.7582 15.6268 21.6448 15.576 21.5267 15.576C21.4087 15.576 21.2953 15.6268 21.2105 15.7178L20.1772 16.8618C20.0346 16.6744 19.8565 16.4772 19.6694 16.2602L20.6849 15.136C20.7267 15.0901 20.7598 15.0356 20.7824 14.9755C20.805 14.9154 20.8167 14.851 20.8167 14.7859C20.8167 14.7208 20.805 14.6563 20.7824 14.5962C20.7598 14.5362 20.7267 14.4816 20.6849 14.4358C20.6002 14.3448 20.4868 14.2939 20.3687 14.2939C20.2506 14.2939 20.1372 14.3448 20.0525 14.4358L19.037 15.56C18.8708 15.3594 18.6954 15.1685 18.5114 14.988L19.5536 13.8342C19.6375 13.7414 19.6846 13.6154 19.6846 13.4841C19.6846 13.3528 19.6375 13.2269 19.5536 13.134C19.4697 13.0412 19.356 12.989 19.2374 12.989C19.1188 12.989 19.005 13.0412 18.9211 13.134L17.4424 14.7316C17.1071 15.1074 16.8978 15.5988 16.8492 16.1243C16.8006 16.6498 16.9156 17.1779 17.1752 17.6211L16.1419 18.775L15.0996 17.6211C15.3512 17.1321 15.4466 16.5636 15.3707 16.0072C15.2947 15.4509 15.0518 14.939 14.6809 14.5541C14.2316 14.0564 13.6241 13.7732 12.9884 13.7652C12.725 13.761 12.4634 13.8146 12.2188 13.9229C11.9741 14.0313 11.7513 14.1922 11.5632 14.3963C11.1714 14.8764 10.9666 15.5083 10.9933 16.1546C11.02 16.8009 11.276 17.4094 11.7057 17.8479C12.1519 18.352 12.7607 18.6393 13.3982 18.6467C13.7783 18.6454 14.1509 18.5295 14.4761 18.3114L15.5183 19.4653L14.0307 21.1122C13.9696 21.1811 13.9282 21.2683 13.9115 21.3631C13.8948 21.4578 13.9037 21.5559 13.9368 21.6451C13.97 21.7344 14.0262 21.8109 14.0983 21.8652C14.1704 21.9194 14.2553 21.9491 14.3424 21.9504C14.4628 21.9501 14.5782 21.8969 14.6631 21.8025L16.1508 20.1556L17.6206 21.8321C17.7056 21.9265 17.8209 21.9797 17.9413 21.98C18.0284 21.9787 18.1133 21.949 18.1854 21.8947C18.2575 21.8405 18.3137 21.764 18.3469 21.6747C18.3801 21.5855 18.3889 21.4874 18.3722 21.3927C18.3555 21.2979 18.3141 21.2107 18.253 21.1418L16.7298 19.4949L17.772 18.341C18.1123 18.5819 18.5083 18.7086 18.9122 18.7059C19.4733 18.7149 20.0146 18.4773 20.4177 18.0452C20.4385 18.018 20.4565 17.9882 20.4711 17.9564L21.843 16.4377C21.8863 16.3909 21.9208 16.3349 21.9443 16.2731C21.9679 16.2112 21.98 16.1448 21.98 16.0778C21.98 16.0107 21.9679 15.9443 21.9443 15.8825C21.9208 15.8206 21.8863 15.7647 21.843 15.7178Z" fill="#3A3D40"/>
<path id="Vector_2" d="M7.99401 9.53247C7.86153 9.53247 7.73448 9.5851 7.64081 9.67877C7.54713 9.77245 7.49451 9.8995 7.49451 10.032C7.49451 10.1644 7.54713 10.2915 7.64081 10.3852C7.73448 10.4788 7.86153 10.5315 7.99401 10.5315H15.986C16.1185 10.5315 16.2455 10.4788 16.3392 10.3852C16.4329 10.2915 16.4855 10.1644 16.4855 10.032C16.4855 9.8995 16.4329 9.77245 16.3392 9.67877C16.2455 9.5851 16.1185 9.53247 15.986 9.53247H7.99401Z" fill="#3A3D40"/>
<path id="Vector_3" d="M11.6404 20.981H2.999V4.99696H8.13387V6.47548C8.13387 6.60796 8.18649 6.73501 8.28017 6.82868C8.37384 6.92236 8.50089 6.97499 8.63337 6.97499C8.76584 6.97499 8.89289 6.92236 8.98657 6.82868C9.08024 6.73501 9.13287 6.60796 9.13287 6.47548V4.99696H14.8472V6.47548C14.8472 6.60796 14.8998 6.73501 14.9935 6.82868C15.0871 6.92236 15.2142 6.97499 15.3467 6.97499C15.4791 6.97499 15.6062 6.92236 15.6999 6.82868C15.7935 6.73501 15.8462 6.60796 15.8462 6.47548V4.99696H20.981V11.6503C20.981 11.7828 21.0336 11.9098 21.1273 12.0035C21.221 12.0972 21.348 12.1498 21.4805 12.1498C21.613 12.1498 21.74 12.0972 21.8337 12.0035C21.9274 11.9098 21.98 11.7828 21.98 11.6503V4.99696C21.98 4.73201 21.8748 4.47791 21.6874 4.29056C21.5001 4.10321 21.246 3.99796 20.981 3.99796H15.8462V2.47948C15.8462 2.34701 15.7935 2.21996 15.6999 2.12628C15.6062 2.03261 15.4791 1.97998 15.3467 1.97998C15.2142 1.97998 15.0871 2.03261 14.9935 2.12628C14.8998 2.21996 14.8472 2.34701 14.8472 2.47948V3.99796H9.13287V2.47948C9.13287 2.34701 9.08024 2.21996 8.98657 2.12628C8.89289 2.03261 8.76584 1.97998 8.63337 1.97998C8.50089 1.97998 8.37384 2.03261 8.28017 2.12628C8.18649 2.21996 8.13387 2.34701 8.13387 2.47948V3.99796H2.999C2.73405 3.99796 2.47995 4.10321 2.2926 4.29056C2.10525 4.47791 2 4.73201 2 4.99696V20.981C2 21.2459 2.10525 21.5 2.2926 21.6874C2.47995 21.8747 2.73405 21.98 2.999 21.98H11.6404C11.7728 21.98 11.8999 21.9274 11.9936 21.8337C12.0872 21.74 12.1399 21.613 12.1399 21.4805C12.1399 21.348 12.0872 21.221 11.9936 21.1273C11.8999 21.0336 11.7728 20.981 11.6404 20.981Z" fill="#3A3D40"/>
</g>
</svg>
