<svg width="24" height="24" viewBox="0 0 24 24" fill="none" xmlns="http://www.w3.org/2000/svg">
<g clip-path="url(#clip0_4003_4546)">
<path fill-rule="evenodd" clip-rule="evenodd" d="M12 2.75C6.89136 2.75 2.75 6.89137 2.75 12C2.75 17.1086 6.89137 21.25 12 21.25C17.1086 21.25 21.25 17.1086 21.25 12C21.25 6.89137 17.1086 2.75 12 2.75ZM11.4697 13.5303L7.46967 9.53033C7.17678 9.23744 7.17678 8.76256 7.46967 8.46967C7.76256 8.17678 8.23744 8.17678 8.53033 8.46967L12 11.9393L15.4697 8.46967C15.7626 8.17678 16.2374 8.17678 16.5303 8.46967C16.8232 8.76256 16.8232 9.23744 16.5303 9.53033L12.5303 13.5303C12.2374 13.8232 11.7626 13.8232 11.4697 13.5303ZM16 15.75C16.4142 15.75 16.75 15.4142 16.75 15C16.75 14.5858 16.4142 14.25 16 14.25L8 14.25C7.58579 14.25 7.25 14.5858 7.25 15C7.25 15.4142 7.58579 15.75 8 15.75L16 15.75Z" fill="#252729"/>
<path fill-rule="evenodd" clip-rule="evenodd" d="M12 20.5C16.6944 20.5 20.5 16.6944 20.5 12C20.5 7.30558 16.6944 3.5 12 3.5C7.30558 3.5 3.5 7.30558 3.5 12C3.5 16.6944 7.30558 20.5 12 20.5ZM22 12C22 17.5228 17.5228 22 12 22C6.47715 22 2 17.5228 2 12C2 6.47715 6.47715 2 12 2C17.5228 2 22 6.47715 22 12Z" fill="#252729"/>
</g>
<defs>
<clipPath id="clip0_4003_4546">
<rect width="20" height="20" fill="white" transform="translate(22 22) rotate(180)"/>
</clipPath>
</defs>
</svg>
