<svg width="24" height="24" viewBox="0 0 24 24" fill="none" xmlns="http://www.w3.org/2000/svg">
<g id="ic_person_filled">
<path id="Vector" d="M12.005 10.0663C14.2324 10.0663 16.0381 8.2606 16.0381 6.03315C16.0381 3.8057 14.2324 2 12.005 2C9.77751 2 7.9718 3.8057 7.9718 6.03315C7.9718 8.2606 9.77751 10.0663 12.005 10.0663Z" fill="#3A3D40"/>
<path id="Vector_2" d="M12.0049 10.8024C9.28681 10.8737 6.70781 12.0196 4.83298 13.9889C2.95815 15.9582 1.94039 18.5904 2.0027 21.3087C2.0027 21.4424 2.05582 21.5707 2.15036 21.6652C2.24491 21.7598 2.37314 21.8129 2.50685 21.8129H21.4929C21.6266 21.8129 21.7549 21.7598 21.8494 21.6652C21.9439 21.5707 21.9971 21.4424 21.9971 21.3087C22.0621 18.5914 21.0466 15.9591 19.1734 13.9895C17.3001 12.0199 14.7221 10.8737 12.0049 10.8024Z" fill="#3A3D40"/>
</g>
</svg>
