<svg width="24" height="24" viewBox="0 0 24 24" fill="none" xmlns="http://www.w3.org/2000/svg">
<g id="ic_thumb_up_filled">
<path id="Vector" d="M13.9626 8.79439L14.4392 6.58879C14.6853 5.65944 14.5543 4.67048 14.0747 3.83728C13.5951 3.00407 12.8057 2.3941 11.8784 2.14019L11.5046 2.04673C11.4042 2.01817 11.3006 2.00246 11.1962 2C10.9247 2.00147 10.6616 2.09455 10.4496 2.26417C10.2376 2.43379 10.089 2.67001 10.028 2.93458L8.299 9.25234C8.22808 9.5326 8.0865 9.79001 7.88779 10C7.49939 10.454 7.1668 10.9529 6.89714 11.486C6.81606 11.3492 6.7014 11.2353 6.56403 11.1552C6.42665 11.075 6.2711 11.0313 6.11209 11.028H3.93452C3.68665 11.028 3.44894 11.1265 3.27367 11.3018C3.0984 11.477 2.99994 11.7148 2.99994 11.9626V21.0654C2.99994 21.3133 3.0984 21.551 3.27367 21.7263C3.44894 21.9015 3.68665 22 3.93452 22H6.11209C6.27029 21.9951 6.42465 21.9501 6.56069 21.8692C6.68018 21.9386 6.81508 21.9771 6.95321 21.9813H11.2803H13.3177C17.3084 21.9813 20.5326 19.243 20.5326 15.2523C20.5326 11.5701 17.5513 9.21495 13.9626 8.79439ZM3.93452 11.9626H6.11209V14.5234C6.11209 14.6075 6.11209 14.7009 6.11209 14.785V21.0654H3.93452V11.9626Z" fill="#3A3D40"/>
</g>
</svg>
