<svg width="24" height="24" viewBox="0 0 24 24" fill="none" xmlns="http://www.w3.org/2000/svg">
<g id="ic_list_line">
<path id="Union" fill-rule="evenodd" clip-rule="evenodd" d="M1.5 6C1.5 5.72386 1.72386 5.5 2 5.5H22C22.2761 5.5 22.5 5.72386 22.5 6C22.5 6.27614 22.2761 6.5 22 6.5H2C1.72386 6.5 1.5 6.27614 1.5 6ZM1.5 11.7715C1.5 11.4953 1.72386 11.2715 2 11.2715H14.6584C14.9345 11.2715 15.1584 11.4953 15.1584 11.7715C15.1584 12.0476 14.9345 12.2715 14.6584 12.2715H2C1.72386 12.2715 1.5 12.0476 1.5 11.7715ZM2 17.0538C1.72386 17.0538 1.5 17.2777 1.5 17.5538C1.5 17.83 1.72386 18.0538 2 18.0538H18.405C18.6811 18.0538 18.905 17.83 18.905 17.5538C18.905 17.2777 18.6811 17.0538 18.405 17.0538H2Z" fill="#3A3D40"/>
</g>
</svg>
