<svg width="24" height="24" viewBox="0 0 24 24" fill="none" xmlns="http://www.w3.org/2000/svg">
<g id="ic_ground_filled">
<path id="Vector" d="M15.13 2.00001C14.2305 1.99869 13.3395 2.17457 12.5079 2.5176C11.6763 2.86063 10.9204 3.3641 10.2834 3.99925C9.6464 4.63441 9.14073 5.38881 8.79527 6.21939C8.44981 7.04996 8.27133 7.94045 8.27002 8.84001V14.89C8.27002 15.1048 8.35536 15.3109 8.50726 15.4628C8.65917 15.6147 8.86519 15.7 9.08002 15.7H13.19H15.13C16.8827 15.6053 18.5325 14.8423 19.7397 13.568C20.9469 12.2938 21.6197 10.6053 21.6197 8.85001C21.6197 7.09472 20.9469 5.40621 19.7397 4.13198C18.5325 2.85775 16.8827 2.09475 15.13 2.00001ZM12.05 10.92H17C17.1326 10.92 17.2598 10.9727 17.3536 11.0665C17.4473 11.1602 17.5 11.2874 17.5 11.42C17.5 11.5526 17.4473 11.6798 17.3536 11.7736C17.2598 11.8673 17.1326 11.92 17 11.92H12.05C11.9174 11.92 11.7902 11.8673 11.6965 11.7736C11.6027 11.6798 11.55 11.5526 11.55 11.42C11.55 11.2874 11.6027 11.1602 11.6965 11.0665C11.7902 10.9727 11.9174 10.92 12.05 10.92ZM15.77 10H12.05C11.9174 10 11.7902 9.94733 11.6965 9.85356C11.6027 9.75979 11.55 9.63262 11.55 9.50001C11.55 9.3674 11.6027 9.24022 11.6965 9.14645C11.7902 9.05269 11.9174 9.00001 12.05 9.00001H15.77C15.8357 9.00001 15.9007 9.01294 15.9614 9.03807C16.022 9.06319 16.0771 9.10002 16.1236 9.14645C16.17 9.19288 16.2068 9.248 16.232 9.30867C16.2571 9.36933 16.27 9.43435 16.27 9.50001C16.27 9.56567 16.2571 9.63069 16.232 9.69135C16.2068 9.75201 16.17 9.80713 16.1236 9.85356C16.0771 9.89999 16.022 9.93682 15.9614 9.96195C15.9007 9.98707 15.8357 10 15.77 10ZM12.05 8.07001C11.9174 8.07001 11.7902 8.01733 11.6965 7.92356C11.6027 7.82979 11.55 7.70262 11.55 7.57001C11.55 7.4374 11.6027 7.31022 11.6965 7.21645C11.7902 7.12269 11.9174 7.07001 12.05 7.07001H18.05C18.1826 7.07001 18.3098 7.12269 18.4036 7.21645C18.4973 7.31022 18.55 7.4374 18.55 7.57001C18.55 7.70262 18.4973 7.82979 18.4036 7.92356C18.3098 8.01733 18.1826 8.07001 18.05 8.07001H12.05Z" fill="#3A3D40"/>
<path id="Vector_2" d="M15.55 16.8599C15.4911 16.8315 15.427 16.8151 15.3616 16.8118C15.2962 16.8084 15.2309 16.8183 15.1693 16.8406C15.1078 16.863 15.0514 16.8975 15.0034 16.942C14.9554 16.9866 14.9169 17.0403 14.89 17.0999C13.6 19.8399 11.92 20.9999 9.08 20.9999C7.4887 20.9999 5.96257 20.3678 4.83736 19.2426C3.71214 18.1174 3.08 16.5912 3.08 14.9999C3.08 12.1899 4.42 10.1999 6.84 9.40995C6.90566 9.38959 6.96667 9.35651 7.01954 9.31257C7.07241 9.26864 7.11612 9.21472 7.14815 9.1539C7.18019 9.09308 7.19993 9.02654 7.20625 8.95809C7.21257 8.88964 7.20535 8.82061 7.185 8.75495C7.16464 8.68929 7.13155 8.62828 7.08762 8.57541C7.04369 8.52253 6.98977 8.47883 6.92895 8.44679C6.86813 8.41476 6.80159 8.39501 6.73314 8.38869C6.66469 8.38237 6.59566 8.38959 6.53 8.40995C5.15758 8.83205 3.96594 9.70137 3.14496 10.8794C2.32399 12.0574 1.92092 13.4763 2 14.9099C2.01309 16.7624 2.75479 18.5353 4.06472 19.8452C5.37465 21.1552 7.14753 21.8969 9 21.9099C12.25 21.9099 14.25 20.5899 15.71 17.4899C15.7628 17.3831 15.7757 17.2609 15.7463 17.1454C15.717 17.0299 15.6474 16.9287 15.55 16.8599Z" fill="#3A3D40"/>
</g>
</svg>
