<svg width="24" height="24" viewBox="0 0 24 24" fill="none" xmlns="http://www.w3.org/2000/svg">
<g id="ic_book_line">
<path id="Vector" d="M20.73 4.08L12.73 5.34C12.4542 5.34575 12.1876 5.44045 11.97 5.61C11.7569 5.43924 11.4931 5.34425 11.22 5.34L3.22001 4.08C2.89198 4.08786 2.58019 4.22439 2.35195 4.46012C2.1237 4.69585 1.99729 5.01188 2.00001 5.34V16.49C2.00001 16.8215 2.13171 17.1395 2.36613 17.3739C2.60055 17.6083 2.91849 17.74 3.25001 17.74L11.25 19C11.5242 18.9929 11.7882 18.8944 12 18.72C12.2167 18.8925 12.4832 18.9907 12.76 19L20.76 17.74C21.089 17.7348 21.4029 17.6011 21.6346 17.3675C21.8663 17.1339 21.9974 16.819 22 16.49V5.34C22 5.17369 21.9671 5.00902 21.9032 4.85549C21.8392 4.70197 21.7455 4.56262 21.6274 4.44549C21.5094 4.32835 21.3693 4.23575 21.2153 4.17302C21.0612 4.11029 20.8963 4.07868 20.73 4.08ZM11.49 17.74C11.4908 17.7999 11.47 17.8581 11.4315 17.904C11.3929 17.9499 11.3392 17.9804 11.28 17.99L3.41001 16.76H3.25001C3.21543 16.7601 3.1812 16.753 3.14949 16.7392C3.11777 16.7255 3.08927 16.7052 3.06577 16.6798C3.04227 16.6545 3.0243 16.6245 3.01298 16.5918C3.00166 16.5591 2.99725 16.5245 3.00001 16.49V5.34C2.99924 5.28007 3.02002 5.22187 3.05857 5.17598C3.09711 5.13009 3.15086 5.09958 3.21001 5.09L11.08 6.32H11.24C11.3063 6.32 11.3699 6.34633 11.4168 6.39322C11.4637 6.4401 11.49 6.50369 11.49 6.57V17.74ZM21 16.49C20.9974 16.5572 20.9689 16.6208 20.9204 16.6674C20.8719 16.714 20.8073 16.74 20.74 16.74H20.59L12.7 18C12.6409 17.9904 12.5871 17.9599 12.5486 17.914C12.51 17.8681 12.4892 17.8099 12.49 17.75V6.59C12.4926 6.52279 12.5211 6.4592 12.5696 6.41258C12.6181 6.36596 12.6828 6.33995 12.75 6.34H12.9L20.78 5.11C20.8392 5.11958 20.8929 5.15009 20.9315 5.19598C20.97 5.24187 20.9908 5.30007 20.99 5.36L21 16.49Z" fill="#3A3D40"/>
<path id="Vector_2" d="M9.66 8.72005L5 8.00005C4.93556 7.98865 4.86948 7.99027 4.80567 8.00482C4.74186 8.01937 4.68161 8.04655 4.62848 8.08477C4.57535 8.12299 4.53042 8.17146 4.49633 8.22733C4.46224 8.28319 4.43969 8.34533 4.43 8.41005C4.40954 8.54106 4.4409 8.67488 4.51744 8.78316C4.59398 8.89143 4.70967 8.96564 4.84 8.99005L9.51 9.76005H9.59C9.72261 9.77066 9.854 9.72816 9.95527 9.64189C10.0565 9.55562 10.1194 9.43266 10.13 9.30005C10.1406 9.16744 10.0981 9.03605 10.0118 8.93478C9.92557 8.83351 9.80261 8.77066 9.67 8.76005L9.66 8.72005Z" fill="#3A3D40"/>
<path id="Vector_3" d="M9.65999 11.5301L4.99999 10.7501C4.93555 10.7386 4.86947 10.7403 4.80566 10.7548C4.74185 10.7694 4.6816 10.7966 4.62847 10.8348C4.57534 10.873 4.53041 10.9215 4.49632 10.9773C4.46223 11.0332 4.43968 11.0953 4.42999 11.1601C4.41852 11.2251 4.42005 11.2918 4.43449 11.3562C4.44892 11.4206 4.47598 11.4816 4.51411 11.5355C4.55223 11.5894 4.60065 11.6353 4.65659 11.6704C4.71252 11.7055 4.77486 11.7292 4.83999 11.7401L9.50999 12.5101H9.58999C9.70812 12.5092 9.82214 12.4666 9.91183 12.3897C10.0015 12.3128 10.0611 12.2067 10.08 12.0901C10.0913 12.0254 10.0893 11.9592 10.074 11.8954C10.0587 11.8316 10.0306 11.7716 9.99121 11.7191C9.95185 11.6667 9.90215 11.6228 9.84519 11.5903C9.78822 11.5578 9.72519 11.5373 9.65999 11.5301Z" fill="#3A3D40"/>
<path id="Vector_4" d="M9.65999 14.33L4.99999 13.55C4.93555 13.5386 4.86947 13.5402 4.80566 13.5547C4.74185 13.5693 4.6816 13.5965 4.62847 13.6347C4.57534 13.6729 4.53041 13.7214 4.49632 13.7773C4.46223 13.8331 4.43968 13.8953 4.42999 13.96C4.41852 14.025 4.42005 14.0917 4.43449 14.1561C4.44892 14.2206 4.47598 14.2815 4.51411 14.3354C4.55223 14.3894 4.60065 14.4352 4.65659 14.4703C4.71252 14.5054 4.77486 14.5291 4.83999 14.54L9.50999 15.31H9.58999C9.70868 15.3112 9.82378 15.2693 9.9139 15.192C10.004 15.1148 10.063 15.0075 10.08 14.89C10.0913 14.8254 10.0893 14.7591 10.074 14.6953C10.0587 14.6315 10.0306 14.5715 9.99121 14.5191C9.95185 14.4666 9.90215 14.4227 9.84519 14.3902C9.78822 14.3577 9.72519 14.3372 9.65999 14.33Z" fill="#3A3D40"/>
<path id="Vector_5" d="M19 8.00001L14.33 8.77001C14.2643 8.77527 14.2004 8.7934 14.1417 8.82338C14.0831 8.85336 14.0309 8.8946 13.9882 8.94474C13.9455 8.99489 13.913 9.05295 13.8928 9.11563C13.8725 9.1783 13.8648 9.24435 13.87 9.31001C13.8753 9.37567 13.8934 9.43966 13.9234 9.49831C13.9534 9.55696 13.9946 9.60913 14.0447 9.65185C14.0949 9.69456 14.1529 9.72698 14.2156 9.74726C14.2783 9.76753 14.3443 9.77527 14.41 9.77001H14.5L19.16 9.00001C19.2257 8.98951 19.2886 8.96617 19.3453 8.93134C19.4019 8.8965 19.4511 8.85085 19.4901 8.797C19.5291 8.74314 19.5571 8.68213 19.5726 8.61744C19.588 8.55276 19.5905 8.48567 19.58 8.42001C19.5695 8.35435 19.5462 8.2914 19.5113 8.23476C19.4765 8.17812 19.4308 8.12889 19.377 8.08989C19.3231 8.05089 19.2621 8.02288 19.1974 8.00746C19.1328 7.99204 19.0657 7.98951 19 8.00001Z" fill="#3A3D40"/>
<path id="Vector_6" d="M19 10.79L14.33 11.56C14.1997 11.5844 14.084 11.6586 14.0074 11.7669C13.9309 11.8752 13.8995 12.009 13.92 12.14C13.9391 12.2556 13.9991 12.3606 14.089 12.4358C14.1789 12.5111 14.2928 12.5516 14.41 12.55H14.5L19.17 11.77C19.3026 11.7474 19.4208 11.6732 19.4987 11.5634C19.5765 11.4537 19.6075 11.3176 19.585 11.185C19.5624 11.0524 19.4882 10.9342 19.3784 10.8563C19.2687 10.7785 19.1326 10.7474 19 10.77V10.79Z" fill="#3A3D40"/>
<path id="Vector_7" d="M19 13.59L14.33 14.36C14.1997 14.3844 14.084 14.4586 14.0074 14.5669C13.9309 14.6751 13.8995 14.809 13.92 14.94C13.9389 15.0566 13.9985 15.1627 14.0882 15.2396C14.1778 15.3165 14.2919 15.3591 14.41 15.36H14.5L19.17 14.59C19.3003 14.5656 19.416 14.4914 19.4926 14.3831C19.5691 14.2748 19.6005 14.141 19.58 14.01C19.5703 13.9439 19.5475 13.8805 19.5129 13.8235C19.4783 13.7664 19.4326 13.7168 19.3786 13.6777C19.3245 13.6385 19.2632 13.6106 19.1981 13.5955C19.1331 13.5805 19.0658 13.5786 19 13.59Z" fill="#3A3D40"/>
</g>
</svg>
