<svg width="24" height="24" viewBox="0 0 24 24" fill="none" xmlns="http://www.w3.org/2000/svg">
<g id="ic_cameracircle_line">
<path id="Union" fill-rule="evenodd" clip-rule="evenodd" d="M12 21C16.9706 21 21 16.9706 21 12C21 7.02944 16.9706 3 12 3C7.02944 3 3 7.02944 3 12C3 16.9706 7.02944 21 12 21ZM22 12C22 17.5228 17.5228 22 12 22C6.47715 22 2 17.5228 2 12C2 6.47715 6.47715 2 12 2C17.5228 2 22 6.47715 22 12ZM17.8569 8.40106H15.9161C15.8928 8.02322 15.7268 7.66834 15.4518 7.40823C15.1768 7.14811 14.8132 7.0022 14.4346 7H9.56537C9.18716 6.99959 8.82335 7.14496 8.54957 7.4059C8.2758 7.66684 8.11314 8.02327 8.09541 8.40106H6.14311C5.97255 8.40106 5.80897 8.46882 5.68836 8.58942C5.56776 8.71003 5.5 8.87361 5.5 9.04417V16.1988C5.49997 16.3704 5.56736 16.5352 5.68765 16.6576C5.80794 16.7801 5.9715 16.8503 6.14311 16.8534H17.8569C18.0285 16.8503 18.1921 16.7801 18.3124 16.6576C18.4326 16.5352 18.5 16.3704 18.5 16.1988V9.04417C18.5 8.87361 18.4322 8.71003 18.3116 8.58942C18.191 8.46882 18.0275 8.40106 17.8569 8.40106ZM12 15.5212C11.4208 15.5212 10.8546 15.3495 10.373 15.0277C9.89146 14.7059 9.51612 14.2485 9.29447 13.7134C9.07282 13.1783 9.01483 12.5895 9.12782 12.0214C9.24082 11.4534 9.51973 10.9316 9.92928 10.522C10.3388 10.1125 10.8606 9.83358 11.4287 9.72058C11.9968 9.60759 12.5856 9.66558 13.1207 9.88723C13.6558 10.1089 14.1131 10.4842 14.4349 10.9658C14.7567 11.4474 14.9284 12.0136 14.9284 12.5928C14.9284 13.3694 14.6199 14.1143 14.0707 14.6635C13.5215 15.2127 12.7767 15.5212 12 15.5212ZM13.6307 12.5929C13.6307 13.4935 12.9006 14.2236 12 14.2236C11.0994 14.2236 10.3693 13.4935 10.3693 12.5929C10.3693 11.6923 11.0994 10.9622 12 10.9622C12.9006 10.9622 13.6307 11.6923 13.6307 12.5929Z" fill="#3A3D40"/>
</g>
</svg>
