<svg width="24" height="24" viewBox="0 0 24 24" fill="none" xmlns="http://www.w3.org/2000/svg">
<g clip-path="url(#clip0_3874_5943)">
<path d="M17.679 3.67126H3.67499V15.8443" stroke="#252729" stroke-width="1.5" stroke-linecap="round" stroke-linejoin="round"/>
<path d="M20.334 5.73889H6.38398C6.20496 5.73889 6.03328 5.80962 5.90669 5.93551C5.7801 6.06141 5.70898 6.23216 5.70898 6.4102V18.9413C5.70777 19.0298 5.72441 19.1176 5.7579 19.1996C5.79139 19.2816 5.84107 19.3561 5.90399 19.4186C5.96691 19.4812 6.04181 19.5306 6.12425 19.5639C6.20669 19.5972 6.29501 19.6138 6.38398 19.6126H17.238L20.01 20.9552C20.1029 20.9982 20.2045 21.0197 20.307 21.0179C20.434 21.0204 20.5591 20.9862 20.667 20.9194C20.7625 20.8567 20.8411 20.7717 20.896 20.6719C20.9509 20.572 20.9804 20.4603 20.982 20.3465V6.4102C20.9799 6.23737 20.9118 6.07179 20.7915 5.94711C20.6711 5.82242 20.5075 5.74798 20.334 5.73889ZM15.384 16.2739H9.08399C8.90496 16.2739 8.73327 16.2032 8.60668 16.0773C8.4801 15.9514 8.40899 15.7807 8.40899 15.6026C8.40899 15.4246 8.4801 15.2538 8.60668 15.128C8.73327 15.0021 8.90496 14.9313 9.08399 14.9313H15.384C15.563 14.9313 15.7347 15.0021 15.8613 15.128C15.9879 15.2538 16.059 15.4246 16.059 15.6026C16.059 15.7807 15.9879 15.9514 15.8613 16.0773C15.7347 16.2032 15.563 16.2739 15.384 16.2739ZM8.39098 12.6936C8.39098 12.5156 8.46211 12.3448 8.58869 12.219C8.71528 12.0931 8.88696 12.0223 9.06598 12.0223H14.043C14.222 12.0223 14.3937 12.0931 14.5203 12.219C14.6469 12.3448 14.718 12.5156 14.718 12.6936C14.718 12.8717 14.6469 13.0424 14.5203 13.1683C14.3937 13.2942 14.222 13.3649 14.043 13.3649H9.08399C8.99267 13.3685 8.90155 13.3539 8.81601 13.3219C8.73048 13.2899 8.65227 13.2411 8.58599 13.1786C8.51971 13.116 8.46672 13.0408 8.43013 12.9575C8.39355 12.8743 8.37412 12.7845 8.37299 12.6936H8.39098ZM16.797 10.4559H9.08399C8.90496 10.4559 8.73327 10.3852 8.60668 10.2593C8.4801 10.1334 8.40899 9.96268 8.40899 9.78464C8.40899 9.6066 8.4801 9.43585 8.60668 9.30995C8.73327 9.18406 8.90496 9.11333 9.08399 9.11333H16.815C16.994 9.11333 17.1657 9.18406 17.2923 9.30995C17.4189 9.43585 17.49 9.6066 17.49 9.78464C17.49 9.96268 17.4189 10.1334 17.2923 10.2593C17.1657 10.3852 16.994 10.4559 16.815 10.4559H16.797Z" fill="#252729"/>
</g>
<defs>
<clipPath id="clip0_3874_5943">
<rect width="18" height="18" fill="white" transform="translate(3 3)"/>
</clipPath>
</defs>
</svg>
