<svg width="24" height="24" viewBox="0 0 24 24" fill="none" xmlns="http://www.w3.org/2000/svg">
<path d="M15.3596 5.86036L6.14033 15.0797L8.92533 17.8647L18.1446 8.64536L15.3596 5.86036Z" fill="#252729"/>
<path d="M19.2053 7.5847L20.19 6.59998C20.2309 6.55877 20.2539 6.50305 20.2539 6.44498C20.2539 6.38691 20.2309 6.33119 20.19 6.28998L17.71 3.81998C17.6688 3.77906 17.6131 3.7561 17.555 3.7561C17.4969 3.7561 17.4412 3.77906 17.4 3.81998L16.4203 4.7997L19.2053 7.5847Z" fill="#252729"/>
<path d="M4.35001 20.21L7.64602 18.7067L5.29882 16.3595L3.79001 19.65C3.75829 19.7283 3.75033 19.8142 3.76714 19.897C3.78394 19.9798 3.82475 20.0558 3.88449 20.1155C3.94422 20.1752 4.02023 20.2161 4.10302 20.2329C4.18581 20.2497 4.27172 20.2417 4.35001 20.21Z" fill="#252729"/>
<path d="M14.8293 5.33003L5.61 14.5493L6.67066 15.61L15.89 6.39069L14.8293 5.33003Z" fill="#252729"/>
<path d="M17.6143 8.11503L8.395 17.3343L9.45566 18.395L18.675 9.17569L17.6143 8.11503Z" fill="#252729"/>
<path d="M19.7356 8.11503L20.7203 7.13031L20.7223 7.12839C20.9027 6.94668 21.0039 6.70102 21.0039 6.44498C21.0039 6.18893 20.9026 5.94327 20.7223 5.76156L18.2393 3.28858L18.2384 3.28773C18.0567 3.10734 17.8111 3.0061 17.555 3.0061C17.299 3.0061 17.0533 3.10734 16.8716 3.28773L16.8697 3.28965L15.89 4.26937L16.9506 5.33003L17.5558 4.72488L19.2836 6.44574L18.675 7.05437L19.7356 8.11503Z" fill="#252729"/>
<path d="M8.21214 19.2728L7.0799 18.1406L4.83845 19.1629L5.86452 16.9252L4.73313 15.7938L3.10123 19.3527L3.0949 19.3684C3.00785 19.5832 2.98601 19.8189 3.03212 20.0461C3.07823 20.2733 3.19024 20.4819 3.35416 20.6458C3.51808 20.8098 3.72666 20.9218 3.95385 20.9679C4.18105 21.014 4.41679 20.9921 4.63164 20.9051L4.35001 20.21L4.66124 20.8924L8.21214 19.2728Z" fill="#252729"/>
</svg>
