<svg width="24" height="24" viewBox="0 0 24 24" fill="none" xmlns="http://www.w3.org/2000/svg">
<g clip-path="url(#clip0_3874_6102)">
<path d="M18.5 11.0701V20.5001H5.50003V11.0701H18.5ZM19 9.57006H5.03003C4.76481 9.57006 4.51046 9.67542 4.32292 9.86295C4.13539 10.0505 4.03003 10.3048 4.03003 10.5701V21.0201C4.03003 21.2853 4.13539 21.5396 4.32292 21.7272C4.51046 21.9147 4.76481 22.0201 5.03003 22.0201H19.03C19.2952 22.0201 19.5496 21.9147 19.7371 21.7272C19.9247 21.5396 20.03 21.2853 20.03 21.0201V10.5601C20.03 10.2948 19.9247 10.0405 19.7371 9.85295C19.5496 9.66542 19.2952 9.56006 19.03 9.56006L19 9.57006Z" fill="#252729"/>
<path fill-rule="evenodd" clip-rule="evenodd" d="M12.01 3.5C9.53569 3.5 7.25 6.09444 7.25 9.69H5.75C5.75 5.60556 8.40431 2 12.01 2C15.6157 2 18.27 5.60556 18.27 9.69H16.77C16.77 6.09444 14.4843 3.5 12.01 3.5Z" fill="#252729"/>
<path fill-rule="evenodd" clip-rule="evenodd" d="M19 11H5V21H19V11ZM12 18C13.1046 18 14 17.1046 14 16C14 14.8954 13.1046 14 12 14C10.8954 14 10 14.8954 10 16C10 17.1046 10.8954 18 12 18Z" fill="#252729"/>
</g>
<defs>
<clipPath id="clip0_3874_6102">
<rect width="16" height="20" fill="white" transform="translate(4 2)"/>
</clipPath>
</defs>
</svg>
