<svg width="24" height="24" viewBox="0 0 24 24" fill="none" xmlns="http://www.w3.org/2000/svg">
<g id="ic_lock_filled">
<path id="Vector" d="M19.06 9.57H18.27V9.45C18.27 5.36 15.46 2 12 2C8.53997 2 5.72997 5.36 5.72997 9.45V9.57H4.93997C4.80072 9.56943 4.66289 9.59796 4.5353 9.65374C4.40771 9.70953 4.29318 9.79135 4.19904 9.89396C4.1049 9.99657 4.03323 10.1177 3.98862 10.2496C3.94401 10.3815 3.92744 10.5213 3.93997 10.66V20.91C3.92744 21.0487 3.94401 21.1885 3.98862 21.3204C4.03323 21.4523 4.1049 21.5734 4.19904 21.676C4.29318 21.7787 4.40771 21.8605 4.5353 21.9163C4.66289 21.972 4.80072 22.0006 4.93997 22H19.06C19.1992 22.0006 19.3371 21.972 19.4646 21.9163C19.5922 21.8605 19.7068 21.7787 19.8009 21.676C19.895 21.5734 19.9667 21.4523 20.0113 21.3204C20.0559 21.1885 20.0725 21.0487 20.06 20.91V10.66C20.0725 10.5213 20.0559 10.3815 20.0113 10.2496C19.9667 10.1177 19.895 9.99657 19.8009 9.89396C19.7068 9.79135 19.5922 9.70953 19.4646 9.65374C19.3371 9.59796 19.1992 9.56943 19.06 9.57ZM6.72997 9.45C6.72997 5.91 9.09997 3 12 3C14.9 3 17.27 5.88 17.27 9.42V9.54H6.72997V9.45ZM12 18.28C11.5055 18.28 11.0222 18.1334 10.611 17.8587C10.1999 17.584 9.87949 17.1935 9.69027 16.7367C9.50105 16.2799 9.45155 15.7772 9.54801 15.2923C9.64447 14.8073 9.88257 14.3619 10.2322 14.0122C10.5818 13.6626 11.0273 13.4245 11.5122 13.328C11.9972 13.2316 12.4999 13.2811 12.9567 13.4703C13.4135 13.6595 13.8039 13.98 14.0786 14.3911C14.3534 14.8022 14.5 15.2855 14.5 15.78C14.5 16.443 14.2366 17.0789 13.7677 17.5478C13.2989 18.0166 12.663 18.28 12 18.28Z" fill="#3A3D40"/>
</g>
</svg>
