<svg width="24" height="24" viewBox="0 0 24 24" fill="none" xmlns="http://www.w3.org/2000/svg">
<path d="M3.75 17.62C3.55189 17.6174 3.36263 17.5376 3.22253 17.3975C3.08244 17.2574 3.00259 17.0681 3 16.87V3.75C3.00259 3.55189 3.08244 3.36263 3.22253 3.22253C3.36263 3.08244 3.55189 3.00259 3.75 3H16.83C17.0289 3 17.2197 3.07902 17.3603 3.21967C17.501 3.36032 17.58 3.55109 17.58 3.75C17.58 3.94891 17.501 4.13968 17.3603 4.28033C17.2197 4.42098 17.0289 4.5 16.83 4.5H4.5V16.87C4.49741 17.0681 4.41756 17.2574 4.27747 17.3975C4.13737 17.5376 3.94811 17.6174 3.75 17.62Z" fill="#252729"/>
<path d="M20.25 21C20.1349 21.0021 20.0213 20.9745 19.92 20.92L17.31 19.66H6.99999C6.80188 19.6574 6.61262 19.5775 6.47252 19.4374C6.33243 19.2973 6.25258 19.1081 6.24999 18.91V6.99995C6.24459 6.89767 6.25992 6.79535 6.29506 6.69914C6.33021 6.60294 6.38443 6.51483 6.45448 6.4401C6.52454 6.36538 6.60897 6.30559 6.70271 6.26432C6.79645 6.22305 6.89757 6.20116 6.99999 6.19995H20.25C20.3524 6.20116 20.4535 6.22305 20.5473 6.26432C20.641 6.30559 20.7254 6.36538 20.7955 6.4401C20.8655 6.51483 20.9198 6.60294 20.9549 6.69914C20.9901 6.79535 21.0054 6.89767 21 6.99995V20.3C21.0009 20.4276 20.9693 20.5534 20.908 20.6654C20.8468 20.7774 20.758 20.8719 20.65 20.94C20.524 20.9939 20.3863 21.0145 20.25 21ZM7.75999 18.16H17.48C17.5939 18.1579 17.7067 18.1819 17.81 18.23L19.5 19.05V7.69995H7.75999V18.16Z" fill="#252729"/>
<path d="M16.45 11.54H10.22C10.0211 11.54 9.83032 11.461 9.68967 11.3204C9.54902 11.1797 9.47 10.989 9.47 10.79C9.47 10.5911 9.54902 10.4004 9.68967 10.2597C9.83032 10.1191 10.0211 10.04 10.22 10.04H16.45C16.6489 10.04 16.8397 10.1191 16.9803 10.2597C17.121 10.4004 17.2 10.5911 17.2 10.79C17.2 10.989 17.121 11.1797 16.9803 11.3204C16.8397 11.461 16.6489 11.54 16.45 11.54Z" fill="#252729"/>
<path d="M14.74 13.75H10.22C10.0211 13.75 9.83032 13.671 9.68967 13.5303C9.54902 13.3897 9.47 13.1989 9.47 13C9.47 12.8011 9.54902 12.6103 9.68967 12.4697C9.83032 12.329 10.0211 12.25 10.22 12.25H14.74C14.9389 12.25 15.1297 12.329 15.2703 12.4697C15.411 12.6103 15.49 12.8011 15.49 13C15.49 13.1989 15.411 13.3897 15.2703 13.5303C15.1297 13.671 14.9389 13.75 14.74 13.75Z" fill="#252729"/>
<path d="M15.45 16H10.22C10.0211 16 9.83032 15.921 9.68967 15.7803C9.54902 15.6397 9.47 15.4489 9.47 15.25C9.47 15.0511 9.54902 14.8603 9.68967 14.7197C9.83032 14.579 10.0211 14.5 10.22 14.5H15.45C15.6489 14.5 15.8397 14.579 15.9803 14.7197C16.121 14.8603 16.2 15.0511 16.2 15.25C16.2 15.4489 16.121 15.6397 15.9803 15.7803C15.8397 15.921 15.6489 16 15.45 16Z" fill="#252729"/>
</svg>
