<svg width="24" height="24" viewBox="0 0 24 24" fill="none" xmlns="http://www.w3.org/2000/svg">
<g id="ic_board_filled">
<path id="Union" fill-rule="evenodd" clip-rule="evenodd" d="M2 1.5C1.72386 1.5 1.5 1.72386 1.5 2V16.359C1.5 16.6351 1.72386 16.859 2 16.859C2.27614 16.859 2.5 16.6351 2.5 16.359V2.5H18.4103C18.6864 2.5 18.9103 2.27614 18.9103 2C18.9103 1.72386 18.6864 1.5 18.4103 1.5H2ZM22 5.07691C22 4.79368 21.7704 4.56409 21.4872 4.56409H5.07692C4.7937 4.56409 4.5641 4.79368 4.5641 5.07691V19.9487C4.5641 20.2319 4.7937 20.4615 5.07692 20.4615H17.7922L21.2852 21.9585C21.4436 22.0264 21.6256 22.0102 21.7695 21.9153C21.9134 21.8204 22 21.6595 22 21.4872V5.07691ZM8.15383 8.66665C7.87061 8.66665 7.64101 8.89625 7.64101 9.17947C7.64101 9.46269 7.87061 9.69229 8.15383 9.69229H17.3846C17.6678 9.69229 17.8974 9.46269 17.8974 9.17947C17.8974 8.89625 17.6678 8.66665 17.3846 8.66665H8.15383ZM7.64103 12.5128C7.64103 12.2296 7.87062 12 8.15385 12H14.3077C14.5909 12 14.8205 12.2296 14.8205 12.5128C14.8205 12.796 14.5909 13.0256 14.3077 13.0256H8.15385C7.87062 13.0256 7.64103 12.796 7.64103 12.5128ZM8.15385 15.3333C7.87062 15.3333 7.64103 15.5629 7.64103 15.8462C7.64103 16.1294 7.87062 16.359 8.15385 16.359H15.8462C16.1294 16.359 16.359 16.1294 16.359 15.8462C16.359 15.5629 16.1294 15.3333 15.8462 15.3333H8.15385Z" fill="#3A3D40"/>
</g>
</svg>
