<svg width="24" height="24" viewBox="0 0 24 24" fill="none" xmlns="http://www.w3.org/2000/svg">
<path fill-rule="evenodd" clip-rule="evenodd" d="M12 3.5C7.30558 3.5 3.5 7.30558 3.5 12C3.5 16.6944 7.30558 20.5 12 20.5C16.6944 20.5 20.5 16.6944 20.5 12C20.5 7.30558 16.6944 3.5 12 3.5ZM2 12C2 6.47715 6.47715 2 12 2C17.5228 2 22 6.47715 22 12C22 17.5228 17.5228 22 12 22C6.47715 22 2 17.5228 2 12Z" fill="#252729"/>
<path fill-rule="evenodd" clip-rule="evenodd" d="M12 21.25C17.1086 21.25 21.25 17.1086 21.25 12C21.25 6.89137 17.1086 2.75 12 2.75C6.89137 2.75 2.75 6.89137 2.75 12C2.75 17.1086 6.89137 21.25 12 21.25ZM12.5303 10.4697L16.5303 14.4697C16.8232 14.7626 16.8232 15.2374 16.5303 15.5303C16.2374 15.8232 15.7626 15.8232 15.4697 15.5303L12 12.0607L8.53033 15.5303C8.23744 15.8232 7.76256 15.8232 7.46967 15.5303C7.17678 15.2374 7.17678 14.7626 7.46967 14.4697L11.4697 10.4697C11.7626 10.1768 12.2374 10.1768 12.5303 10.4697ZM8 8.25C7.58579 8.25 7.25 8.58579 7.25 9C7.25 9.41421 7.58579 9.75 8 9.75H16C16.4142 9.75 16.75 9.41421 16.75 9C16.75 8.58579 16.4142 8.25 16 8.25H8Z" fill="#252729"/>
</svg>
