<svg width="24" height="24" viewBox="0 0 24 24" fill="none" xmlns="http://www.w3.org/2000/svg">
<g id="ic_picture_filled">
<path id="Vector" d="M13.017 14.448C12.9314 14.531 12.8168 14.5774 12.6975 14.5774C12.5782 14.5774 12.4636 14.531 12.378 14.448L8.157 10.2L3 15.375V20.1C3 20.3386 3.09482 20.5676 3.2636 20.7363C3.43239 20.9051 3.66131 21 3.9 21H20.1C20.3387 21 20.5676 20.9051 20.7364 20.7363C20.9052 20.5676 21 20.3386 21 20.1V17.733L15.366 12.099L13.017 14.448Z" fill="#3A3D40"/>
<path id="Vector_2" d="M16.6169 8.31001C17.114 8.31001 17.5169 7.90707 17.5169 7.41001C17.5169 6.91295 17.114 6.51001 16.6169 6.51001C16.1199 6.51001 15.7169 6.91295 15.7169 7.41001C15.7169 7.90707 16.1199 8.31001 16.6169 8.31001Z" fill="#3A3D40"/>
<path id="Vector_3" d="M20.1 3H3.9C3.66131 3 3.43239 3.09482 3.2636 3.2636C3.09482 3.43239 3 3.66131 3 3.9V14.097L7.833 9.3C7.91863 9.21698 8.03323 9.17055 8.1525 9.17055C8.27177 9.17055 8.38636 9.21698 8.472 9.3L12.702 13.53L15.051 11.181C15.0914 11.138 15.1402 11.1036 15.1944 11.0802C15.2486 11.0567 15.307 11.0446 15.366 11.0446C15.425 11.0446 15.4834 11.0567 15.5376 11.0802C15.5918 11.1036 15.6406 11.138 15.681 11.181L21 16.5V3.9C21 3.66131 20.9052 3.43239 20.7364 3.2636C20.5676 3.09482 20.3387 3 20.1 3ZM16.617 9.21C16.261 9.21 15.913 9.10443 15.617 8.90665C15.321 8.70886 15.0903 8.42774 14.954 8.09883C14.8178 7.76992 14.7821 7.408 14.8516 7.05884C14.921 6.70967 15.0925 6.38894 15.3442 6.13721C15.5959 5.88547 15.9167 5.71404 16.2658 5.64459C16.615 5.57513 16.9769 5.61078 17.3058 5.74702C17.6347 5.88325 17.9159 6.11396 18.1136 6.40997C18.3114 6.70598 18.417 7.05399 18.417 7.41C18.417 7.88739 18.2274 8.34523 17.8898 8.68279C17.5522 9.02036 17.0944 9.21 16.617 9.21Z" fill="#3A3D40"/>
</g>
</svg>
