<svg width="24" height="24" viewBox="0 0 24 24" fill="none" xmlns="http://www.w3.org/2000/svg">
<path fill-rule="evenodd" clip-rule="evenodd" d="M12 3.58337C9.7678 3.58337 7.62699 4.47013 6.04856 6.04856C4.47013 7.62699 3.58337 9.7678 3.58337 12C3.58337 13.2463 3.60001 15.5347 3.61668 17.5146C3.62501 18.5038 3.63334 19.415 3.63959 20.0789L3.64282 20.4167H12C14.2323 20.4167 16.3731 19.53 17.9515 17.9515C19.53 16.3731 20.4167 14.2323 20.4167 12C20.4167 9.7678 19.53 7.62699 17.9515 6.04856C16.3731 4.47013 14.2323 3.58337 12 3.58337ZM2.15008 21.1742C2.15419 21.5855 2.48875 21.9167 2.90004 21.9167H12C14.6301 21.9167 17.1524 20.8719 19.0122 19.0122C20.8719 17.1524 21.9167 14.6301 21.9167 12C21.9167 9.36998 20.8719 6.84763 19.0122 4.9879C17.1524 3.12816 14.6301 2.08337 12 2.08337C9.36998 2.08337 6.84763 3.12816 4.9879 4.9879C3.12816 6.84763 2.08337 9.36998 2.08337 12C2.08337 13.2538 2.10007 15.5487 2.11673 17.5272C2.12507 18.5171 2.13341 19.4288 2.13966 20.093L2.15008 21.1742Z" fill="#252729"/>
<path fill-rule="evenodd" clip-rule="evenodd" d="M18.4817 18.4819C20.2008 16.7628 21.1666 14.4312 21.1666 12C21.1666 9.56889 20.2008 7.23731 18.4817 5.51823C16.7626 3.79914 14.4311 2.83337 11.9999 2.83337C9.56877 2.83337 7.23719 3.79914 5.51811 5.51823C3.79902 7.23731 2.83325 9.56889 2.83325 12C2.83325 14.5 2.89992 21.1667 2.89992 21.1667H11.9999C14.4311 21.1667 16.7626 20.2009 18.4817 18.4819ZM9.19696 8.13632C8.98246 7.92182 8.65987 7.85765 8.37961 7.97374C8.09936 8.08982 7.91663 8.3633 7.91663 8.66665V15.3333C7.91663 15.7475 8.25241 16.0833 8.66663 16.0833C9.08084 16.0833 9.41663 15.7475 9.41663 15.3333V10.4773L14.803 15.8636C15.0175 16.0781 15.34 16.1423 15.6203 16.0262C15.9006 15.9101 16.0833 15.6367 16.0833 15.3333V8.66665C16.0833 8.25243 15.7475 7.91665 15.3333 7.91665C14.9191 7.91665 14.5833 8.25243 14.5833 8.66665V13.5227L9.19696 8.13632Z" fill="#252729"/>
</svg>
