<svg width="24" height="24" viewBox="0 0 24 24" fill="none" xmlns="http://www.w3.org/2000/svg">
<path d="M7.25 12H4.75V21.24H7.25V12Z" stroke="#252729" stroke-width="1.5" stroke-linecap="round" stroke-linejoin="round"/>
<path d="M13.32 9C16.6 9 19.25 11.14 19.25 14.73C19.25 18.32 16.59 21.24 13.32 21.24H7.38998V14.72C7.38998 12.81 7.02998 10.61 8.71998 9.31" fill="#252729"/>
<path d="M13.32 9C16.6 9 19.25 11.14 19.25 14.73C19.25 18.32 16.59 21.24 13.32 21.24H7.38998V14.72C7.38998 12.81 7.02998 10.61 8.71998 9.31" stroke="#252729" stroke-width="1.5" stroke-linecap="round" stroke-linejoin="round"/>
<path d="M8.70001 9.31005C8.70001 9.31005 9.40001 3.47005 10.05 3.00005C10.7 2.53005 12.26 2.94005 12.89 4.16005C13.52 5.38005 13.27 9.00005 13.27 9.00005" fill="#252729"/>
<path d="M8.70001 9.31005C8.70001 9.31005 9.40001 3.47005 10.05 3.00005C10.7 2.53005 12.26 2.94005 12.89 4.16005C13.52 5.38005 13.27 9.00005 13.27 9.00005" stroke="#252729" stroke-width="1.5" stroke-linecap="round" stroke-linejoin="round"/>
<path d="M13.32 9C14.8579 9.00163 16.3353 9.59969 17.4413 10.6684C18.5473 11.737 19.1956 13.193 19.25 14.73C19.25 18.32 16.59 21.24 13.32 21.24" fill="#252729"/>
<path d="M13.32 9C14.8579 9.00163 16.3353 9.59969 17.4413 10.6684C18.5473 11.737 19.1956 13.193 19.25 14.73C19.25 18.32 16.59 21.24 13.32 21.24" stroke="#252729" stroke-width="1.5" stroke-linecap="round" stroke-linejoin="round"/>
</svg>
