<svg width="24" height="24" viewBox="0 0 24 24" fill="none" xmlns="http://www.w3.org/2000/svg">
<g id="ic_arrow_left_line">
<path id="Vector" d="M16.93 21.9779C16.8645 21.9787 16.7994 21.9658 16.7392 21.9399C16.6789 21.9141 16.6247 21.8759 16.58 21.8279L7.15003 12.3879C7.05774 12.2903 7.00438 12.1622 7.00003 12.0279C7.00297 11.8962 7.05672 11.7708 7.15003 11.6779L16.68 2.1479C16.7265 2.10103 16.7818 2.06384 16.8427 2.03845C16.9037 2.01307 16.969 2 17.035 2C17.101 2 17.1664 2.01307 17.2273 2.03845C17.2882 2.06384 17.3435 2.10103 17.39 2.1479C17.4823 2.24305 17.5339 2.37037 17.5339 2.5029C17.5339 2.63543 17.4823 2.76275 17.39 2.8579L8.21003 12.0279L17.27 21.0979C17.3169 21.1444 17.3541 21.1997 17.3795 21.2606C17.4049 21.3215 17.4179 21.3869 17.4179 21.4529C17.4179 21.5189 17.4049 21.5843 17.3795 21.6452C17.3541 21.7061 17.3169 21.7614 17.27 21.8079C17.2275 21.8575 17.1756 21.898 17.1172 21.9272C17.0588 21.9564 16.9952 21.9736 16.93 21.9779Z" fill="#3A3D40"/>
</g>
</svg>
