<svg width="24" height="24" viewBox="0 0 24 24" fill="none" xmlns="http://www.w3.org/2000/svg">
<g id="ic_warningcircle_line">
<path id="Vector" d="M12 2C10.0222 2 8.08879 2.58649 6.4443 3.6853C4.79981 4.78412 3.51809 6.3459 2.76121 8.17317C2.00433 10.0004 1.8063 12.0111 2.19215 13.9509C2.578 15.8907 3.53041 17.6725 4.92894 19.0711C6.32746 20.4696 8.10929 21.422 10.0491 21.8079C11.9889 22.1937 13.9996 21.9957 15.8268 21.2388C17.6541 20.4819 19.2159 19.2002 20.3147 17.5557C21.4135 15.9112 22 13.9778 22 12C22 10.6868 21.7413 9.38642 21.2388 8.17317C20.7363 6.95991 19.9997 5.85752 19.0711 4.92893C18.1425 4.00035 17.0401 3.26375 15.8268 2.7612C14.6136 2.25866 13.3132 2 12 2ZM12 21C10.22 21 8.47991 20.4722 6.99987 19.4832C5.51983 18.4943 4.36628 17.0887 3.68509 15.4442C3.0039 13.7996 2.82567 11.99 3.17294 10.2442C3.5202 8.49836 4.37737 6.89471 5.63604 5.63604C6.89472 4.37737 8.49836 3.5202 10.2442 3.17293C11.99 2.82567 13.7996 3.0039 15.4442 3.68508C17.0887 4.36627 18.4943 5.51983 19.4832 6.99987C20.4722 8.47991 21 10.22 21 12C21 14.3869 20.0518 16.6761 18.364 18.364C16.6761 20.0518 14.387 21 12 21Z" fill="#3A3D40"/>
<path id="Vector_2" d="M12 14.5C12.1326 14.5 12.2598 14.4473 12.3536 14.3536C12.4473 14.2598 12.5 14.1326 12.5 14V6.89001C12.5 6.75741 12.4473 6.63023 12.3536 6.53646C12.2598 6.44269 12.1326 6.39001 12 6.39001C11.8674 6.39001 11.7402 6.44269 11.6464 6.53646C11.5527 6.63023 11.5 6.75741 11.5 6.89001V14C11.5 14.1326 11.5527 14.2598 11.6464 14.3536C11.7402 14.4473 11.8674 14.5 12 14.5Z" fill="#3A3D40"/>
<path id="Vector_3" d="M12 16.4301C11.8615 16.4301 11.7262 16.4711 11.6111 16.548C11.496 16.6249 11.4063 16.7343 11.3533 16.8622C11.3003 16.9901 11.2864 17.1308 11.3134 17.2666C11.3404 17.4024 11.4071 17.5271 11.505 17.625C11.6029 17.7229 11.7276 17.7896 11.8634 17.8166C11.9992 17.8436 12.14 17.8298 12.2679 17.7768C12.3958 17.7238 12.5051 17.6341 12.582 17.519C12.6589 17.4038 12.7 17.2685 12.7 17.1301C12.7 16.9444 12.6262 16.7664 12.495 16.6351C12.3637 16.5038 12.1856 16.4301 12 16.4301Z" fill="#3A3D40"/>
</g>
</svg>
