<svg width="24" height="24" viewBox="0 0 24 24" fill="none" xmlns="http://www.w3.org/2000/svg">
<g id="ic_savecircle_filled">
<path id="Vector" d="M12 2C10.0222 2 8.08879 2.58649 6.4443 3.6853C4.79981 4.78412 3.51809 6.3459 2.76121 8.17317C2.00433 10.0004 1.8063 12.0111 2.19215 13.9509C2.578 15.8907 3.53041 17.6725 4.92894 19.0711C6.32746 20.4696 8.10929 21.422 10.0491 21.8079C11.9889 22.1937 13.9996 21.9957 15.8268 21.2388C17.6541 20.4819 19.2159 19.2002 20.3147 17.5557C21.4135 15.9112 22 13.9778 22 12C22 10.6868 21.7413 9.38642 21.2388 8.17317C20.7363 6.95991 19.9997 5.85752 19.0711 4.92893C18.1425 4.00035 17.0401 3.26375 15.8268 2.7612C14.6136 2.25866 13.3132 2 12 2ZM17.54 9.53L12.39 14.68C12.2924 14.7723 12.1643 14.8257 12.03 14.83C11.8983 14.8271 11.7729 14.7733 11.68 14.68L6.46 9.5C6.41314 9.45352 6.37594 9.39822 6.35056 9.33729C6.32517 9.27636 6.31211 9.21101 6.31211 9.145C6.31211 9.07899 6.32517 9.01364 6.35056 8.95271C6.37594 8.89178 6.41314 8.83648 6.46 8.79C6.55631 8.70002 6.6832 8.64997 6.815 8.64997C6.94681 8.64997 7.07369 8.70002 7.17 8.79L12 13.65L16.8 8.85C16.8454 8.80291 16.8997 8.76537 16.9598 8.73961C17.0199 8.71385 17.0846 8.70038 17.15 8.7C17.2851 8.70033 17.4146 8.75428 17.51 8.85C17.605 8.94253 17.6602 9.0684 17.6639 9.20095C17.6677 9.33349 17.6196 9.46228 17.53 9.56L17.54 9.53ZM6.81 15.78H17.17C17.3026 15.78 17.4298 15.8327 17.5236 15.9264C17.6173 16.0202 17.67 16.1474 17.67 16.28C17.67 16.4126 17.6173 16.5398 17.5236 16.6336C17.4298 16.7273 17.3026 16.78 17.17 16.78H6.81C6.6782 16.7774 6.5525 16.7239 6.45928 16.6307C6.36607 16.5375 6.31256 16.4118 6.31 16.28C6.31 16.1474 6.36268 16.0202 6.45645 15.9264C6.55022 15.8327 6.6774 15.78 6.81 15.78Z" fill="#3A3D40"/>
</g>
</svg>
