<svg width="24" height="24" viewBox="0 0 24 24" fill="none" xmlns="http://www.w3.org/2000/svg">
<g id="ic_bell_line">
<path id="Union" fill-rule="evenodd" clip-rule="evenodd" d="M11.5918 2.50194L11.5918 2.50029C11.5639 2.50044 11.5312 2.50095 11.4941 2.50209C11.3486 2.50656 11.1359 2.52062 10.8778 2.55947C10.36 2.63743 9.66995 2.81354 8.97288 3.20334C7.61327 3.96361 6.1274 5.59131 5.949 9.1947V12.9339V13.226L5.69552 13.3689L5.69543 13.369L5.6954 13.369L5.69512 13.3692L5.69488 13.3693L5.69459 13.3695L5.6928 13.3705L5.6778 13.3793C5.66358 13.3878 5.64119 13.4014 5.61179 13.4201C5.55292 13.4575 5.4663 13.5148 5.36121 13.5914C5.15024 13.7453 4.86905 13.9736 4.58907 14.2702C4.02425 14.8687 3.50192 15.7031 3.50192 16.7393V16.7499L3.50147 16.7604C3.49167 16.9927 3.5309 17.2245 3.61663 17.4407C3.70236 17.6569 3.83265 17.8526 3.99903 18.015C4.1654 18.1775 4.36414 18.3031 4.58228 18.3837C4.80043 18.4643 5.03309 18.498 5.26514 18.4827L5.28159 18.4816H5.29808H11.626V18.4815H17.9539H17.9704L17.9868 18.4826C18.2189 18.498 18.4515 18.4642 18.6697 18.3837C18.8878 18.3031 19.0866 18.1775 19.2529 18.015C19.4193 17.8525 19.5496 17.6569 19.6353 17.4407C19.7211 17.2245 19.7603 16.9927 19.7505 16.7604L19.75 16.7498V16.7393C19.75 15.7023 19.2296 14.8676 18.6675 14.2694C18.3888 13.9729 18.109 13.7446 17.899 13.5908C17.7944 13.5142 17.7082 13.4569 17.6497 13.4195C17.6204 13.4009 17.5981 13.3873 17.584 13.3788L17.5691 13.37L17.5673 13.369L17.567 13.3688L17.5668 13.3687L17.5665 13.3685L17.5665 13.3685L17.3137 13.2253V12.9339V9.19467C17.1353 5.58436 15.6563 3.95713 14.3053 3.19889C13.6126 2.81008 12.927 2.63508 12.4126 2.55799C12.1562 2.51956 11.9449 2.50587 11.8003 2.50165C11.7639 2.50059 11.7318 2.50013 11.7044 2.50002L11.7044 2.50202L11.6971 2.50171C11.6894 2.50141 11.6764 2.50098 11.6584 2.50066L11.6417 2.50042L11.6372 2.5005C11.6194 2.50085 11.6065 2.50131 11.5989 2.50162L11.5918 2.50194ZM11.4634 1.50256C11.5331 1.50042 11.5919 1.50001 11.6386 1.50035C11.6874 1.49969 11.7517 1.4998 11.8295 1.50208C12.0082 1.50729 12.2597 1.52391 12.5608 1.56903C13.1614 1.65903 13.9702 1.86404 14.7948 2.32686C16.477 3.27103 18.1224 5.2308 18.3132 9.15817L18.3137 9.17029V9.18243V12.6597C18.3662 12.6953 18.4253 12.7368 18.4898 12.784C18.7367 12.9648 19.0659 13.233 19.3963 13.5846C20.0507 14.281 20.7466 15.3454 20.75 16.7289C20.7641 17.098 20.7011 17.4659 20.5649 17.8093C20.4274 18.156 20.2184 18.4699 19.9516 18.7305C19.6848 18.9911 19.366 19.1925 19.0161 19.3217C18.6717 19.449 18.3047 19.5033 17.9382 19.4815H11.626V19.4816H5.31373C4.94731 19.5034 4.58028 19.449 4.23582 19.3218C3.88595 19.1925 3.56721 18.9911 3.30037 18.7305C3.03352 18.4699 2.82455 18.156 2.68706 17.8093C2.55089 17.466 2.48785 17.098 2.50193 16.729C2.5054 15.3447 3.20476 14.28 3.86185 13.5838C4.19364 13.2323 4.52422 12.9641 4.77208 12.7834C4.83689 12.7362 4.89633 12.6947 4.949 12.6591V9.18245V9.17029L4.94959 9.15815C5.14044 5.23466 6.79517 3.27536 8.48482 2.33053C9.31314 1.86735 10.1256 1.66144 10.7289 1.57062C11.0314 1.52508 11.2839 1.50807 11.4634 1.50256ZM10.2264 20.9203C9.85515 20.5491 9.64661 20.0456 9.64661 19.5206H8.64661C8.64661 20.3108 8.96051 21.0687 9.51926 21.6274C10.078 22.1862 10.8358 22.5001 11.626 22.5001C12.4162 22.5001 13.1741 22.1862 13.7328 21.6274C14.2916 21.0687 14.6055 20.3108 14.6055 19.5206H13.6055C13.6055 20.0456 13.3969 20.5491 13.0257 20.9203C12.6545 21.2915 12.151 21.5001 11.626 21.5001C11.1011 21.5001 10.5976 21.2915 10.2264 20.9203Z" fill="#3A3D40"/>
</g>
</svg>
