<svg width="24" height="24" viewBox="0 0 24 24" fill="none" xmlns="http://www.w3.org/2000/svg">
<path fill-rule="evenodd" clip-rule="evenodd" d="M12 3.5C7.30558 3.5 3.5 7.30558 3.5 12C3.5 16.6944 7.30558 20.5 12 20.5C16.6944 20.5 20.5 16.6944 20.5 12C20.5 7.30558 16.6944 3.5 12 3.5ZM2 12C2 6.47715 6.47715 2 12 2C17.5228 2 22 6.47715 22 12C22 17.5228 17.5228 22 12 22C6.47715 22 2 17.5228 2 12Z" fill="#252729"/>
<path fill-rule="evenodd" clip-rule="evenodd" d="M11.9999 21.25C17.1086 21.25 21.2499 17.1086 21.2499 12C21.2499 6.89137 17.1086 2.75 11.9999 2.75C6.8913 2.75 2.74994 6.89137 2.74994 12C2.74994 17.1086 6.8913 21.25 11.9999 21.25ZM10.086 7.30602C9.85587 7.15259 9.55996 7.13828 9.31609 7.2688C9.07222 7.39931 8.91998 7.65346 8.91998 7.93005V16.0701C8.91998 16.3488 9.07458 16.6046 9.32138 16.7341C9.56819 16.8637 9.86649 16.8457 10.0959 16.6874L16.0959 12.5474C16.3006 12.4062 16.4219 12.1727 16.42 11.9241C16.418 11.6754 16.2929 11.4439 16.086 11.306L10.086 7.30602Z" fill="#252729"/>
</svg>
