<svg width="24" height="24" viewBox="0 0 24 24" fill="none" xmlns="http://www.w3.org/2000/svg">
<g id="ic_arrow_right_line">
<path id="Vector" d="M7.53161 22.0029C7.45739 21.9999 7.38478 21.9804 7.31905 21.9458C7.25331 21.9112 7.19612 21.8624 7.15161 21.8029C7.10378 21.758 7.06566 21.7038 7.0396 21.6436C7.01354 21.5834 7.00009 21.5185 7.00009 21.4529C7.00009 21.3873 7.01354 21.3224 7.0396 21.2622C7.06566 21.202 7.10378 21.1478 7.15161 21.1029L16.3316 11.9229L7.29161 2.85293C7.24475 2.80645 7.20755 2.75115 7.18217 2.69022C7.15678 2.62929 7.14371 2.56393 7.14371 2.49793C7.14371 2.43192 7.15678 2.36657 7.18217 2.30564C7.20755 2.24471 7.24475 2.18941 7.29161 2.14293C7.38508 2.05132 7.51073 2 7.64161 2C7.77249 2 7.89815 2.05132 7.99161 2.14293L17.4216 11.5729C17.5132 11.6664 17.5645 11.7921 17.5645 11.9229C17.5645 12.0538 17.5132 12.1795 17.4216 12.2729L7.89161 21.8029C7.8488 21.8595 7.79468 21.9064 7.7327 21.9409C7.67071 21.9753 7.60222 21.9965 7.53161 22.0029Z" fill="#3A3D40"/>
</g>
</svg>
