<svg width="24" height="24" viewBox="0 0 24 24" fill="none" xmlns="http://www.w3.org/2000/svg">
<g id="ic_thumb_down_filled">
<path id="Vector" d="M20.713 8.73534C20.713 4.74682 17.3077 2.00001 13.3192 2.00001H11.2779H6.96017C6.81794 2.00266 6.67873 2.04151 6.55568 2.11289C6.417 2.03804 6.26174 1.99922 6.10415 2.00001H3.94057C3.69108 2.00001 3.45181 2.09912 3.2754 2.27553C3.09899 2.45195 2.99988 2.69121 2.99988 2.9407V12.0277C2.99988 12.2772 3.09899 12.5165 3.2754 12.6929C3.45181 12.8693 3.69108 12.9684 3.94057 12.9684H6.10415C6.26419 12.9652 6.42077 12.9211 6.55904 12.8405C6.69731 12.7598 6.81272 12.6452 6.89433 12.5075C7.15441 13.0201 7.46985 13.5028 7.83501 13.9467C8.05893 14.1912 8.22315 14.4842 8.31476 14.8028L9.9986 21.096C10.0671 21.3528 10.2187 21.5797 10.4297 21.7414C10.6407 21.903 10.8992 21.9903 11.165 21.9896C11.2681 22.0035 11.3725 22.0035 11.4755 21.9896L11.8518 21.8862C12.7798 21.6327 13.5703 21.023 14.0512 20.1898C14.5321 19.3565 14.6646 18.3671 14.4198 17.4367L13.8648 15.4801C17.4771 15.0191 20.713 12.4322 20.713 8.73534ZM6.10415 12.0277H3.94057V2.9407H6.10415V9.2339V12.056V12.0277Z" fill="#3A3D40"/>
</g>
</svg>
