<svg width="24" height="24" viewBox="0 0 24 24" fill="none" xmlns="http://www.w3.org/2000/svg">
<g id="ic_search_line">
<path id="Vector" d="M21.601 21.0965L15.6022 15.0977C16.9704 13.5986 17.7025 11.6264 17.6439 9.59758C17.5852 7.56878 16.7405 5.64216 15.2879 4.22456C13.8354 2.80695 11.8888 2.00932 9.85915 2.00008C7.82952 1.99084 5.87574 2.77073 4.41035 4.17505C2.94497 5.57938 2.08269 7.49822 2.00559 9.52641C1.92849 11.5546 2.64261 13.5334 3.99715 15.0449C5.35169 16.5564 7.24062 17.4824 9.2651 17.6272C11.2896 17.7721 13.2911 17.1246 14.8471 15.8213L20.8668 21.8411C20.9139 21.8913 20.9708 21.9312 21.0339 21.9586C21.097 21.9859 21.1651 22 21.2339 22C21.3027 22 21.3708 21.9859 21.4339 21.9586C21.497 21.9312 21.5539 21.8913 21.601 21.8411C21.6501 21.7923 21.6891 21.7344 21.7157 21.6705C21.7424 21.6066 21.7561 21.538 21.7561 21.4688C21.7561 21.3996 21.7424 21.331 21.7157 21.2671C21.6891 21.2032 21.6501 21.1452 21.601 21.0965ZM9.81313 16.5974C8.46489 16.5974 7.14693 16.1976 6.02591 15.4486C4.9049 14.6995 4.03117 13.6349 3.51522 12.3893C2.99927 11.1437 2.86428 9.77303 3.12731 8.45069C3.39033 7.12836 4.03957 5.91372 4.99292 4.96038C5.94627 4.00703 7.16091 3.35779 8.48324 3.09476C9.80557 2.83173 11.1762 2.96673 12.4218 3.48268C13.6674 3.99863 14.7321 4.87235 15.4811 5.99337C16.2301 7.11439 16.6299 8.43235 16.6299 9.78059C16.6272 11.5877 15.9081 13.3199 14.6303 14.5977C13.3525 15.8755 11.6202 16.5946 9.81313 16.5974Z" fill="#3A3D40"/>
</g>
</svg>
