<svg width="24" height="24" viewBox="0 0 24 24" fill="none" xmlns="http://www.w3.org/2000/svg">
<path d="M12.9 12.55C12.9 12.728 12.8472 12.902 12.7483 13.05C12.6494 13.198 12.5089 13.3134 12.3444 13.3815C12.18 13.4496 11.999 13.4675 11.8244 13.4327C11.6498 13.398 11.4895 13.3123 11.3636 13.1864C11.2377 13.0606 11.152 12.9002 11.1173 12.7256C11.0826 12.551 11.1004 12.3701 11.1685 12.2056C11.2366 12.0412 11.352 11.9006 11.5 11.8017C11.648 11.7028 11.822 11.65 12 11.65C12.2387 11.65 12.4676 11.7448 12.6364 11.9136C12.8052 12.0824 12.9 12.3113 12.9 12.55Z" fill="black"/>
<path d="M7.10001 9.5V15.6H16.9V9.5H7.10001ZM12 14.55C11.6044 14.55 11.2178 14.4327 10.8889 14.2129C10.56 13.9932 10.3036 13.6808 10.1522 13.3154C10.0009 12.9499 9.96127 12.5478 10.0384 12.1598C10.1156 11.7719 10.3061 11.4155 10.5858 11.1358C10.8655 10.8561 11.2219 10.6656 11.6098 10.5884C11.9978 10.5113 12.3999 10.5509 12.7654 10.7022C13.1308 10.8536 13.4432 11.11 13.6629 11.4389C13.8827 11.7678 14 12.1544 14 12.55C14 13.0804 13.7893 13.5891 13.4142 13.9642C13.0391 14.3393 12.5304 14.55 12 14.55Z" fill="black"/>
<path d="M16.9 9.09998H7.10001C6.99393 9.09998 6.89218 9.14212 6.81717 9.21713C6.74216 9.29215 6.70001 9.39389 6.70001 9.49998V15.6C6.70001 15.7061 6.74216 15.8078 6.81717 15.8828C6.89218 15.9578 6.99393 16 7.10001 16H16.9C17.0061 16 17.1078 15.9578 17.1829 15.8828C17.2579 15.8078 17.3 15.7061 17.3 15.6V9.49998C17.3 9.39389 17.2579 9.29215 17.1829 9.21713C17.1078 9.14212 17.0061 9.09998 16.9 9.09998ZM16.5 15.21H7.50001V9.88998H16.5V15.21Z" fill="black"/>
<path d="M10.15 8.40006H13.74C14.037 8.40006 14.3219 8.51806 14.532 8.7281C14.742 8.93814 14.86 9.22302 14.86 9.52006H9C8.99995 9.37042 9.02988 9.22229 9.08803 9.08441C9.14618 8.94653 9.23137 8.82171 9.33857 8.7173C9.44577 8.6129 9.57281 8.53104 9.71218 8.47655C9.85154 8.42206 10.0004 8.39605 10.15 8.40006Z" fill="black"/>
<path d="M14.86 9.92004H8.99999C8.94792 9.92006 8.89638 9.90965 8.8484 9.88942C8.80042 9.8692 8.75697 9.83958 8.72062 9.8023C8.68427 9.76502 8.65576 9.72083 8.63676 9.67236C8.61776 9.62388 8.60866 9.57209 8.60999 9.52004V9.25004C8.60997 9.08419 8.64295 8.91999 8.70702 8.76702C8.77108 8.61404 8.86495 8.47535 8.98315 8.35901C9.10135 8.24267 9.24152 8.15102 9.39549 8.08939C9.54947 8.02776 9.71416 7.99738 9.87999 8.00004H14C14.3315 8.00004 14.6495 8.13173 14.8839 8.36615C15.1183 8.60057 15.25 8.91852 15.25 9.25004V9.52004C15.25 9.62441 15.2093 9.72467 15.1364 9.7994C15.0635 9.87414 14.9643 9.91743 14.86 9.92004ZM9.43999 9.12004H14.44C14.4135 9.02412 14.3559 8.9397 14.2763 8.87999C14.1967 8.82028 14.0995 8.78865 14 8.79004H9.87999C9.78048 8.78865 9.68332 8.82028 9.60371 8.87999C9.52409 8.9397 9.46652 9.02412 9.43999 9.12004Z" fill="black"/>
<path d="M12 21.25C17.1086 21.25 21.25 17.1086 21.25 12C21.25 6.89137 17.1086 2.75 12 2.75C6.89137 2.75 2.75 6.89137 2.75 12C2.75 17.1086 6.89137 21.25 12 21.25Z" stroke="#231F20" stroke-width="1.5" stroke-miterlimit="10"/>
</svg>
