<svg width="24" height="24" viewBox="0 0 24 24" fill="none" xmlns="http://www.w3.org/2000/svg">
<path d="M7.125 2.75H16.875" stroke="#252729" stroke-width="1.5" stroke-miterlimit="10" stroke-linecap="round"/>
<path d="M4.75 5.75H19.25" stroke="#252729" stroke-width="1.5" stroke-miterlimit="10" stroke-linecap="round"/>
<path fill-rule="evenodd" clip-rule="evenodd" d="M6.5 5C6.91421 5 7.25 5.33579 7.25 5.75V20.5H16.75V5.75C16.75 5.33579 17.0858 5 17.5 5C17.9142 5 18.25 5.33579 18.25 5.75V20.9726C18.25 20.9727 18.25 20.9725 18.25 20.9726C18.25 21.2166 18.165 21.4635 17.9949 21.6586C17.8226 21.856 17.5715 21.9882 17.2879 21.9994L17.2731 22H6.72685L6.71205 21.9994C6.42846 21.9882 6.17734 21.856 6.00508 21.6586C5.8348 21.4634 5.74996 21.2168 5.75 20.973C5.75 20.973 5.75 20.9731 5.75 20.973V5.75C5.75 5.33579 6.08579 5 6.5 5Z" fill="#252729"/>
<path fill-rule="evenodd" clip-rule="evenodd" d="M17.5 20.973V5.75H6.5V20.973C6.49996 21.0448 6.52512 21.1138 6.5702 21.1655C6.61528 21.2171 6.67675 21.2474 6.74165 21.25H17.2583C17.3232 21.2474 17.3847 21.2171 17.4298 21.1655C17.4749 21.1138 17.5 21.0448 17.5 20.973ZM12.75 9.05005C12.75 8.63584 12.4142 8.30005 12 8.30005C11.5858 8.30005 11.25 8.63584 11.25 9.05005V17.9827C11.25 18.3969 11.5858 18.7327 12 18.7327C12.4142 18.7327 12.75 18.3969 12.75 17.9827V9.05005Z" fill="#252729"/>
</svg>
