<svg width="24" height="24" viewBox="0 0 24 24" fill="none" xmlns="http://www.w3.org/2000/svg">
<g id="ic_notice_line">
<path id="Vector" d="M15.5992 5C15.4696 5 15.3454 5.05146 15.2537 5.14307C15.1621 5.23468 15.1107 5.35892 15.1107 5.48847V5.71317L2.67414 8.78079C2.48604 8.81099 2.31486 8.90724 2.19132 9.05227C2.06777 9.19729 1.99996 9.3816 2.00005 9.57211V13.7925C1.99794 13.9836 2.06503 14.1689 2.18893 14.3144C2.31284 14.4598 2.48518 14.5556 2.67414 14.5839L5.13605 15.1896V19.3611C5.13605 19.4907 5.18751 19.6149 5.27912 19.7065C5.37073 19.7981 5.49497 19.8496 5.62452 19.8496C5.75407 19.8496 5.87832 19.7981 5.96992 19.7065C6.06153 19.6149 6.113 19.4907 6.113 19.3611V15.4533L15.1107 17.671V17.8957C15.1107 18.0253 15.1621 18.1495 15.2537 18.2411C15.3454 18.3327 15.4696 18.3842 15.5992 18.3842C15.7287 18.3842 15.8529 18.3327 15.9446 18.2411C16.0362 18.1495 16.0876 18.0253 16.0876 17.8957V5.48847C16.0876 5.42433 16.075 5.36081 16.0504 5.30154C16.0259 5.24228 15.9899 5.18843 15.9446 5.14307C15.8992 5.09771 15.8453 5.06173 15.7861 5.03718C15.7268 5.01263 15.6633 5 15.5992 5ZM2.977 9.70888L3.87579 9.49396V13.8804L2.977 13.6558V9.70888ZM15.1009 16.6452L4.85273 14.1149V9.23018L15.1009 6.71943V16.6452Z" fill="#3A3D40"/>
<path id="Vector_2" d="M17.5628 7.05151C17.4333 7.05151 17.309 7.10298 17.2174 7.19458C17.1258 7.28619 17.0743 7.41044 17.0743 7.53999C17.0743 7.66954 17.1258 7.79378 17.2174 7.88539C17.309 7.977 17.4333 8.02846 17.5628 8.02846C18.503 8.077 19.3887 8.48466 20.037 9.16731C20.6853 9.84995 21.0468 10.7555 21.0468 11.6969C21.0468 12.6383 20.6853 13.5438 20.037 14.2265C19.3887 14.9091 18.503 15.3168 17.5628 15.3653C17.4333 15.3653 17.309 15.4168 17.2174 15.5084C17.1258 15.6 17.0743 15.7243 17.0743 15.8538C17.0743 15.9834 17.1258 16.1076 17.2174 16.1992C17.309 16.2908 17.4333 16.3423 17.5628 16.3423C18.758 16.2875 19.8861 15.7741 20.7125 14.9089C21.5389 14.0437 22 12.8933 22 11.6969C22 10.5005 21.5389 9.35006 20.7125 8.48488C19.8861 7.61971 18.758 7.10634 17.5628 7.05151Z" fill="#3A3D40"/>
<path id="Vector_3" d="M17.5628 12.884C17.4333 12.884 17.309 12.9355 17.2174 13.0271C17.1258 13.1187 17.0743 13.2429 17.0743 13.3725C17.0743 13.502 17.1258 13.6263 17.2174 13.7179C17.309 13.8095 17.4333 13.861 17.5628 13.861C18.138 13.861 18.6897 13.6325 19.0964 13.2257C19.5031 12.819 19.7316 12.2673 19.7316 11.6921C19.7316 11.1169 19.5031 10.5653 19.0964 10.1585C18.6897 9.75182 18.138 9.52332 17.5628 9.52332C17.4333 9.52332 17.309 9.57478 17.2174 9.66639C17.1258 9.75799 17.0743 9.88224 17.0743 10.0118C17.0743 10.1413 17.1258 10.2656 17.2174 10.3572C17.309 10.4488 17.4333 10.5003 17.5628 10.5003C17.8789 10.5003 18.1821 10.6258 18.4056 10.8494C18.6291 11.0729 18.7547 11.376 18.7547 11.6921C18.7547 12.0082 18.6291 12.3114 18.4056 12.5349C18.1821 12.7584 17.8789 12.884 17.5628 12.884Z" fill="#3A3D40"/>
</g>
</svg>
