<svg width="24" height="24" viewBox="0 0 24 24" fill="none" xmlns="http://www.w3.org/2000/svg">
<g clip-path="url(#clip0_4133_9489)">
<path d="M18.13 20C18.0314 20.0005 17.9338 19.9812 17.8428 19.9435C17.7518 19.9057 17.6692 19.8501 17.6 19.78L3.09998 5.28C3.02629 5.21134 2.96719 5.12854 2.92619 5.03654C2.8852 4.94454 2.86316 4.84523 2.86138 4.74452C2.85961 4.64382 2.87813 4.54379 2.91585 4.4504C2.95357 4.35701 3.00972 4.27218 3.08094 4.20096C3.15216 4.12974 3.23699 4.0736 3.33038 4.03588C3.42377 3.99816 3.52379 3.97963 3.6245 3.98141C3.7252 3.98319 3.82451 4.00523 3.91651 4.04622C4.00851 4.08721 4.09131 4.14631 4.15998 4.22L18.66 18.72C18.7307 18.7889 18.787 18.8714 18.8254 18.9624C18.8638 19.0534 18.8835 19.1512 18.8835 19.25C18.8835 19.3488 18.8638 19.4466 18.8254 19.5376C18.787 19.6286 18.7307 19.7111 18.66 19.78C18.5918 19.8515 18.5095 19.908 18.4182 19.9459C18.3269 19.9838 18.2288 20.0022 18.13 20Z" fill="#505458"/>
<path d="M15.42 15.49C14.3513 16.0022 13.1849 16.2785 12 16.3C8.19001 16.3 4.86001 13.03 3.75001 11.8C5.02182 10.376 6.53505 9.1878 8.22001 8.29L7.11001 7.18C5.22142 8.25506 3.54412 9.66466 2.16001 11.34C2.05784 11.4716 2.00238 11.6334 2.00238 11.8C2.00238 11.9666 2.05784 12.1284 2.16001 12.26C2.34001 12.49 6.59001 17.8 12 17.8C13.5863 17.7691 15.1425 17.3612 16.54 16.61L15.42 15.49Z" fill="#505458"/>
<path d="M21.84 11.34C21.66 11.11 17.41 5.8 12 5.8C10.8163 5.81495 9.64592 6.05241 8.54999 6.5L9.74999 7.67C10.4829 7.42975 11.2487 7.30493 12.02 7.3C15.83 7.3 19.16 10.57 20.28 11.8C19.2403 12.9337 18.053 13.9225 16.75 14.74L17.88 15.8C19.3794 14.8103 20.7269 13.6077 21.88 12.23C21.9693 12.0969 22.0137 11.9386 22.0065 11.7784C21.9993 11.6182 21.9409 11.4646 21.84 11.34Z" fill="#505458"/>
<path d="M13.44 13.51C13.0392 13.8551 12.5288 14.0464 12 14.05C11.4032 14.05 10.8309 13.8129 10.409 13.391C9.98703 12.969 9.74998 12.3967 9.74998 11.8C9.75353 11.2712 9.94492 10.7608 10.29 10.36L9.22998 9.3C8.5945 9.97817 8.2375 10.8706 8.22998 11.8C8.22998 12.7946 8.62507 13.7484 9.32833 14.4517C10.0316 15.1549 10.9854 15.55 11.98 15.55C12.9093 15.5425 13.8018 15.1855 14.48 14.55L13.44 13.51Z" fill="#505458"/>
<path d="M11.64 9.59C11.7598 9.58017 11.8802 9.58017 12 9.59C12.5899 9.58991 13.1562 9.82146 13.577 10.2348C13.9979 10.6481 14.2395 11.2102 14.25 11.8C14.2598 11.9198 14.2598 12.0402 14.25 12.16L15.44 13.35C15.6547 12.862 15.7605 12.3331 15.75 11.8C15.75 10.8054 15.3549 9.85161 14.6517 9.14835C13.9484 8.44509 12.9946 8.05 12 8.05C11.464 8.05207 10.9349 8.17154 10.45 8.4L11.64 9.59Z" fill="#505458"/>
</g>
<defs>
<clipPath id="clip0_4133_9489">
<rect width="20" height="16" fill="white" transform="translate(2 4)"/>
</clipPath>
</defs>
</svg>
