<svg width="24" height="24" viewBox="0 0 24 24" fill="none" xmlns="http://www.w3.org/2000/svg">
<path d="M12 11.4501C13.1432 11.4501 14.07 10.5233 14.07 9.38006C14.07 8.23683 13.1432 7.31006 12 7.31006C10.8568 7.31006 9.92999 8.23683 9.92999 9.38006C9.92999 10.5233 10.8568 11.4501 12 11.4501Z" fill="black" stroke="black" stroke-width="1.5" stroke-miterlimit="10"/>
<path d="M12 21.25C17.1086 21.25 21.25 17.1086 21.25 12C21.25 6.89137 17.1086 2.75 12 2.75C6.89137 2.75 2.75 6.89137 2.75 12C2.75 17.1086 6.89137 21.25 12 21.25Z" stroke="#231F20" stroke-width="1.5" stroke-miterlimit="10"/>
<path d="M12 19.71C14.0006 19.7095 15.9225 18.9313 17.36 17.54C17.4653 17.437 17.5384 17.3055 17.5703 17.1617C17.6023 17.0179 17.5917 16.8679 17.54 16.73C17.1116 15.6079 16.3525 14.6423 15.3633 13.961C14.374 13.2798 13.2012 12.915 12 12.915C10.7989 12.915 9.62604 13.2798 8.63677 13.961C7.64749 14.6423 6.88842 15.6079 6.46001 16.73C6.40828 16.8679 6.39776 17.0179 6.42972 17.1617C6.46168 17.3055 6.53474 17.437 6.64002 17.54C8.07749 18.9313 9.99949 19.7095 12 19.71Z" fill="black"/>
</svg>
