<svg width="24" height="24" viewBox="0 0 24 24" fill="none" xmlns="http://www.w3.org/2000/svg">
<path fill-rule="evenodd" clip-rule="evenodd" d="M4.5 5.5V18.5H19.5V5.5H4.5ZM3 5.18465C3 4.51237 3.5537 4 4.19595 4H19.8041C20.4463 4 21 4.51237 21 5.18465V18.8153C21 19.4876 20.4463 20 19.8041 20H4.19595C3.5537 20 3 19.4876 3 18.8153V5.18465Z" fill="#252729"/>
<path d="M9 2.75V6.25" stroke="#252729" stroke-width="1.5" stroke-miterlimit="10" stroke-linecap="round"/>
<path d="M15 2.75V6.25" stroke="#252729" stroke-width="1.5" stroke-miterlimit="10" stroke-linecap="round"/>
<path fill-rule="evenodd" clip-rule="evenodd" d="M4.19595 4.75H19.8041C20.0503 4.75 20.25 4.9446 20.25 5.18465V18.8153C20.25 19.0554 20.0503 19.25 19.8041 19.25H4.19595C3.94966 19.25 3.75 19.0554 3.75 18.8153V5.18465C3.75 4.9446 3.94966 4.75 4.19595 4.75ZM8.5 8.75C8.08579 8.75 7.75 9.08579 7.75 9.5C7.75 9.91421 8.08579 10.25 8.5 10.25H15.5C15.9142 10.25 16.25 9.91421 16.25 9.5C16.25 9.08579 15.9142 8.75 15.5 8.75H8.5Z" fill="#252729"/>
</svg>
