<svg width="24" height="24" viewBox="0 0 24 24" fill="none" xmlns="http://www.w3.org/2000/svg">
<g id="ic_pin_line">
<path id="Union" fill-rule="evenodd" clip-rule="evenodd" d="M3.59719 6.27948C3.4336 6.05702 3.48132 5.74405 3.70379 5.58045L9.12052 1.5971C9.34298 1.43351 9.65595 1.48123 9.81954 1.70369L14.798 8.47365L15.1921 8.18387C15.9699 7.61192 17.064 7.77876 17.636 8.55652L17.7292 8.68333C18.3012 9.46109 18.1343 10.5552 17.3566 11.1272L14.3448 13.342L20.4953 21.7036C20.6589 21.926 20.6112 22.239 20.3888 22.4026C20.1663 22.5663 19.8534 22.5186 19.6897 22.2961L13.5392 13.9344L10.5177 16.1563C9.73995 16.7283 8.64579 16.5614 8.07385 15.7837L7.98059 15.6569C7.40864 14.8791 7.57549 13.785 8.35324 13.213L8.57568 13.0494L3.59719 6.27948ZM9.57183 13.5601C9.56116 13.5679 9.55029 13.5753 9.53924 13.5821L8.94568 14.0186C8.61285 14.2634 8.54145 14.7316 8.78621 15.0644L8.87946 15.1913C9.12422 15.5241 9.59244 15.5955 9.92527 15.3507L16.7641 10.3216C17.0969 10.0768 17.1683 9.6086 16.9236 9.27577L16.8303 9.14896C16.5856 8.81613 16.1174 8.74473 15.7845 8.98949L15.0194 9.55218C15.0095 9.56069 14.9992 9.56887 14.9886 9.57672L9.57183 13.5601ZM9.31014 2.69894L13.9924 9.06609L9.3813 12.457L4.69903 6.08986L9.31014 2.69894Z" fill="#3A3D40"/>
</g>
</svg>
