<svg width="24" height="24" viewBox="0 0 24 24" fill="none" xmlns="http://www.w3.org/2000/svg">
<g clip-path="url(#clip0_3874_6317)">
<path d="M13.7 13.36C13.6941 13.6949 13.5894 14.0206 13.3991 14.2962C13.2087 14.5717 12.9412 14.785 12.6301 14.909C12.319 15.0331 11.9781 15.0625 11.6504 14.9936C11.3226 14.9247 11.0225 14.7604 10.7877 14.5215C10.553 14.2826 10.394 13.9797 10.3308 13.6508C10.2676 13.3219 10.303 12.9816 10.4325 12.6727C10.562 12.3638 10.7799 12.1001 11.0588 11.9146C11.3376 11.729 11.6651 11.6301 12 11.63C12.4545 11.6353 12.8883 11.8202 13.2069 12.1443C13.5254 12.4685 13.7027 12.9055 13.7 13.36Z" fill="#252729"/>
<path d="M2.75 7.47998V19.24H21.25V7.47998H2.75ZM12 17.2C11.2345 17.2179 10.4811 17.0071 9.83604 16.5947C9.19096 16.1822 8.68352 15.5868 8.37856 14.8844C8.0736 14.1821 7.98498 13.4048 8.12402 12.6519C8.26307 11.8989 8.62346 11.2046 9.15915 10.6575C9.69483 10.1104 10.3815 9.73547 11.1313 9.5806C11.8812 9.42574 12.6602 9.49798 13.3687 9.78808C14.0773 10.0782 14.6833 10.573 15.1093 11.2092C15.5352 11.8455 15.7618 12.5943 15.76 13.36C15.768 14.367 15.377 15.3363 14.6724 16.0559C13.9678 16.7755 13.007 17.1868 12 17.2Z" fill="#252729"/>
<path d="M21.25 6.12H2.75003C2.5449 6.12782 2.35112 6.21619 2.21072 6.36595C2.07032 6.51571 1.99461 6.71479 2.00003 6.92V19.2C1.99461 19.4052 2.07032 19.6043 2.21072 19.754C2.35112 19.9038 2.5449 19.9922 2.75003 20H21.25C21.352 19.9974 21.4525 19.9746 21.5456 19.9329C21.6387 19.8911 21.7226 19.8313 21.7924 19.7569C21.8621 19.6824 21.9164 19.5949 21.9521 19.4993C21.9877 19.4037 22.004 19.3019 22 19.2V6.92C22.004 6.81804 21.9877 6.71631 21.9521 6.62071C21.9164 6.52511 21.8621 6.43755 21.7924 6.36312C21.7226 6.28868 21.6387 6.22886 21.5456 6.18712C21.4525 6.14538 21.352 6.12257 21.25 6.12ZM20.5 18.4H3.50003V7.72H20.5V18.4Z" fill="#252729"/>
<path d="M8.00002 4.75H15.78C15.9928 4.75 16.2034 4.7919 16.4 4.87332C16.5965 4.95473 16.7751 5.07406 16.9255 5.22449C17.076 5.37492 17.1953 5.55351 17.2767 5.75005C17.3581 5.9466 17.4 6.15726 17.4 6.37V6.88H6.40002V6.37C6.39999 5.94379 6.56792 5.53474 6.86742 5.2315C7.16692 4.92826 7.57385 4.75526 8.00002 4.75Z" fill="#252729"/>
<path d="M17.39 7.61998H6.38998C6.19106 7.61998 6.0003 7.54096 5.85965 7.40031C5.71899 7.25966 5.63998 7.06889 5.63998 6.86998V6.35998C5.63734 6.04838 5.69643 5.73935 5.81385 5.4507C5.93127 5.16206 6.10468 4.89953 6.32409 4.67826C6.5435 4.457 6.80456 4.28137 7.0922 4.16152C7.37984 4.04167 7.68837 3.97997 7.99998 3.97998H15.79C16.4159 3.97998 17.0162 4.22862 17.4587 4.67121C17.9013 5.11379 18.15 5.71407 18.15 6.33998V6.84998C18.1513 6.95062 18.1326 7.05053 18.095 7.14389C18.0574 7.23726 18.0016 7.32222 17.9309 7.39386C17.8602 7.46549 17.776 7.52237 17.6831 7.56119C17.5903 7.6 17.4906 7.61999 17.39 7.61998ZM7.15998 6.11998H16.61C16.5578 5.94047 16.4486 5.78285 16.2988 5.67098C16.149 5.5591 15.9669 5.49908 15.78 5.49998H7.99998C7.81134 5.49688 7.62692 5.55589 7.47513 5.66793C7.32334 5.77997 7.2126 5.93881 7.15998 6.11998Z" fill="#252729"/>
</g>
<defs>
<clipPath id="clip0_3874_6317">
<rect width="20" height="16" fill="white" transform="translate(2 4)"/>
</clipPath>
</defs>
</svg>
