<svg width="24" height="24" viewBox="0 0 24 24" fill="none" xmlns="http://www.w3.org/2000/svg">
<g id="ic_thumb_down_line">
<path id="Vector" d="M20.7132 8.73898C20.7132 4.74831 17.3061 2.00001 13.3248 2.00001H11.2824H6.95293C6.81383 2.00424 6.67797 2.04305 6.55763 2.11296C6.41888 2.03806 6.26353 1.99922 6.10586 2.00001H3.94111C3.69148 2.00001 3.45209 2.09917 3.27558 2.27568C3.09907 2.45219 2.99991 2.69159 2.99991 2.94121V12.0332C2.99991 12.2828 3.09907 12.5222 3.27558 12.6987C3.45209 12.8752 3.69148 12.9744 3.94111 12.9744H6.10586C6.26599 12.9711 6.42265 12.9271 6.561 12.8463C6.69935 12.7656 6.81481 12.651 6.89646 12.5132C7.15335 13.028 7.4692 13.5113 7.83766 13.9532C8.05887 14.1983 8.21999 14.4915 8.30826 14.8097L10.0024 21.1063C10.0884 21.4135 10.291 21.675 10.5671 21.835C10.8431 21.995 11.1707 22.0409 11.4801 21.9628L11.8566 21.8593C12.7865 21.6078 13.579 20.9982 14.0605 20.1639C14.5421 19.3295 14.6735 18.3384 14.426 17.4074L13.8801 15.4497C17.5037 15.0262 20.7132 12.4379 20.7132 8.73898ZM6.10586 12.0332H3.94111V2.94121H6.09645V9.23781C6.09645 9.28487 6.09645 9.33193 6.09645 9.37899L6.10586 12.0332ZM13.786 14.5179C13.651 14.5334 13.5209 14.578 13.4047 14.6485C13.2885 14.7191 13.1889 14.814 13.1129 14.9266C13.0369 15.0393 12.9862 15.1672 12.9643 15.3013C12.9424 15.4355 12.9498 15.5728 12.986 15.7038L13.5413 17.6521C13.7237 18.3396 13.6286 19.0713 13.2765 19.6893C12.9243 20.3073 12.3434 20.7622 11.6589 20.9557L11.2919 21.0498H11.1977C11.1312 21.0531 11.0658 21.032 11.0138 20.9904C10.9618 20.9487 10.9268 20.8896 10.9154 20.8239L9.24945 14.565C9.12492 14.0947 8.89295 13.6598 8.57179 13.2944C7.61126 12.1841 7.07155 10.7716 7.04705 9.3037V2.94121H11.2919H13.3248C17.0049 2.94121 19.772 5.43538 19.772 8.73898C19.772 12.0426 16.7602 14.1697 13.786 14.5179Z" fill="#3A3D40"/>
</g>
</svg>
