<svg width="24" height="24" viewBox="0 0 24 24" fill="none" xmlns="http://www.w3.org/2000/svg">
<g id="ic_comment_line">
<path id="Vector" d="M17 10.2H7.04999C6.91738 10.2 6.7902 10.1473 6.69643 10.0535C6.60267 9.95974 6.54999 9.83256 6.54999 9.69995C6.54999 9.56734 6.60267 9.44017 6.69643 9.3464C6.7902 9.25263 6.91738 9.19995 7.04999 9.19995H17C17.1326 9.19995 17.2598 9.25263 17.3535 9.3464C17.4473 9.44017 17.5 9.56734 17.5 9.69995C17.5 9.83256 17.4473 9.95974 17.3535 10.0535C17.2598 10.1473 17.1326 10.2 17 10.2Z" fill="#3A3D40"/>
<path id="Vector_2" d="M13.18 12.9399H7.04999C6.91738 12.9399 6.7902 12.8873 6.69643 12.7935C6.60267 12.6997 6.54999 12.5725 6.54999 12.4399C6.55255 12.3081 6.60605 12.1824 6.69927 12.0892C6.79249 11.996 6.91818 11.9425 7.04999 11.9399H13.18C13.3126 11.9399 13.4398 11.9926 13.5335 12.0864C13.6273 12.1802 13.68 12.3073 13.68 12.4399C13.68 12.5725 13.6273 12.6997 13.5335 12.7935C13.4398 12.8873 13.3126 12.9399 13.18 12.9399Z" fill="#3A3D40"/>
<path id="Vector_3" d="M15.16 15.6899H7.04999C6.91738 15.6899 6.7902 15.6373 6.69643 15.5435C6.60267 15.4497 6.54999 15.3225 6.54999 15.1899C6.54999 15.0573 6.60267 14.9302 6.69643 14.8364C6.7902 14.7426 6.91738 14.6899 7.04999 14.6899H15.16C15.2926 14.6899 15.4198 14.7426 15.5135 14.8364C15.6073 14.9302 15.66 15.0573 15.66 15.1899C15.66 15.3225 15.6073 15.4497 15.5135 15.5435C15.4198 15.6373 15.2926 15.6899 15.16 15.6899Z" fill="#3A3D40"/>
<path id="Vector_4" d="M12 3C14.3869 3 16.6761 3.94821 18.3639 5.63604C20.0518 7.32387 21 9.61305 21 12C21 14.3869 20.0518 16.6761 18.3639 18.364C16.6761 20.0518 14.3869 21 12 21H9.17998H3.17998C3.1491 21.0025 3.11811 20.997 3.08999 20.9839C3.06187 20.9709 3.03759 20.9509 3.01949 20.9258C3.00139 20.9006 2.99008 20.8712 2.98667 20.8404C2.98325 20.8096 2.98783 20.7785 2.99998 20.75V12C2.99998 9.61305 3.94819 7.32387 5.63602 5.63604C7.32385 3.94821 9.61303 3 12 3ZM12 2C10.6868 2 9.3864 2.25866 8.17315 2.7612C6.95989 3.26375 5.8575 4.00035 4.92891 4.92893C3.05355 6.8043 1.99998 9.34784 1.99998 12V20.79C1.99866 20.9458 2.02821 21.1003 2.08692 21.2446C2.14563 21.389 2.23233 21.5202 2.34204 21.6309C2.45174 21.7415 2.58227 21.8293 2.72609 21.8892C2.86991 21.9492 3.02418 21.98 3.17998 21.98H9.17998L12 22C14.6521 22 17.1957 20.9464 19.071 19.0711C20.9464 17.1957 22 14.6522 22 12C22 9.34784 20.9464 6.8043 19.071 4.92893C17.1957 3.05357 14.6521 2 12 2Z" fill="#3A3D40"/>
</g>
</svg>
