<svg width="18" height="18" viewBox="0 0 18 18" fill="none" xmlns="http://www.w3.org/2000/svg">
<path d="M9 17.25C9 17.25 0.739999 10.93 0.739999 5.25001C0.739999 5.16001 0.739999 5.09001 0.739999 5.00001C0.70581 4.45407 0.783958 3.90693 0.969612 3.39239C1.15527 2.87786 1.44448 2.40687 1.81938 2.00854C2.19428 1.61021 2.64689 1.29301 3.14924 1.07654C3.65159 0.860073 4.193 0.748938 4.74 0.750008C7.34 0.840008 8.4 3.07001 8.98 4.75001C9.56 3.09001 10.62 0.860008 13.22 0.750008C13.767 0.748938 14.3084 0.860073 14.8108 1.07654C15.3131 1.29301 15.7657 1.61021 16.1406 2.00854C16.5155 2.40687 16.8047 2.87786 16.9904 3.39239C17.176 3.90693 17.2542 4.45407 17.22 5.00001C17.22 5.09001 17.22 5.16001 17.22 5.25001C17.22 10.93 8.96 17.25 8.96 17.25" stroke="#505458" stroke-width="1.5" stroke-linecap="round" stroke-linejoin="round"/>
</svg>
