<svg width="24" height="24" viewBox="0 0 24 24" fill="none" xmlns="http://www.w3.org/2000/svg">
<path d="M14.38 18.25C14.4413 18.9783 14.2133 19.7014 13.7455 20.2629C13.2776 20.8243 12.6074 21.179 11.88 21.25C11.1544 21.1765 10.4868 20.8208 10.021 20.2596C9.55519 19.6985 9.32859 18.9767 9.39001 18.25" stroke="#252729" stroke-width="1.5" stroke-miterlimit="10"/>
<path d="M14.41 18.13V17.38L14.4053 17.38L14.41 18.13ZM17.41 18.13V18.88H17.4523L17.4943 18.8753L17.41 18.13ZM19.02 15.13L18.3436 15.4539L18.3478 15.4629L18.3524 15.4717L19.02 15.13ZM18 13H17.25V13.1703L17.3235 13.3239L18 13ZM18 8H18.75L18.75 7.99716L18 8ZM5.99999 8L5.24999 7.99901V8H5.99999ZM5.99999 13L6.67766 13.3213L6.74999 13.1688V13H5.99999ZM4.98999 15.13L5.64608 15.4934L5.65754 15.4727L5.66766 15.4513L4.98999 15.13ZM6.62999 18.21L6.56524 18.9572L6.6038 18.9606L6.64249 18.9599L6.62999 18.21ZM9.62999 18.16L9.62528 17.41L9.61749 17.4101L9.62999 18.16ZM14.41 18.88H17.41V17.38H14.41V18.88ZM17.4943 18.8753C17.9475 18.824 18.3814 18.6636 18.759 18.4078L17.9177 17.166C17.7409 17.2857 17.5378 17.3608 17.3257 17.3848L17.4943 18.8753ZM18.759 18.4078C19.1366 18.152 19.4465 17.8085 19.6621 17.4066L18.3404 16.6973C18.2395 16.8854 18.0944 17.0462 17.9177 17.166L18.759 18.4078ZM19.6621 17.4066C19.8778 17.0048 19.9927 16.5566 19.9972 16.1006L18.4973 16.086C18.4952 16.2995 18.4414 16.5092 18.3404 16.6973L19.6621 17.4066ZM19.9972 16.1006C20.0016 15.6446 19.8954 15.1943 19.6876 14.7883L18.3524 15.4717C18.4496 15.6617 18.4993 15.8725 18.4973 16.086L19.9972 16.1006ZM19.6964 14.8061L18.6764 12.6761L17.3235 13.3239L18.3436 15.4539L19.6964 14.8061ZM18.75 13V8H17.25V13H18.75ZM5.24999 8V13H6.74999V8H5.24999ZM5.32231 12.6787L4.31232 14.8087L5.66766 15.4513L6.67766 13.3213L5.32231 12.6787ZM4.3339 14.7666C4.10532 15.1793 3.98354 15.6426 3.97965 16.1144L5.4796 16.1268C5.48143 15.9051 5.53866 15.6873 5.64608 15.4934L4.3339 14.7666ZM3.97965 16.1144C3.97575 16.5862 4.08986 17.0514 4.3116 17.4679L5.6356 16.7629C5.5314 16.5672 5.47777 16.3485 5.4796 16.1268L3.97965 16.1144ZM4.3116 17.4679C4.53333 17.8843 4.85565 18.2387 5.24925 18.4988L6.07627 17.2474C5.89129 17.1251 5.73981 16.9586 5.6356 16.7629L4.3116 17.4679ZM5.24925 18.4988C5.64284 18.7589 6.09522 18.9165 6.56524 18.9572L6.69474 17.4628C6.47385 17.4437 6.26124 17.3696 6.07627 17.2474L5.24925 18.4988ZM6.64249 18.9599L9.64249 18.9099L9.61749 17.4101L6.61749 17.4601L6.64249 18.9599ZM9.6347 18.91L14.4147 18.88L14.4053 17.38L9.62528 17.41L9.6347 18.91ZM6.74999 8.00099C6.75178 6.64541 7.62876 5.59585 8.83626 4.84234C10.0532 4.08292 11.4163 3.75 12 3.75V2.25C11.0836 2.25 9.44905 2.69183 8.04214 3.56979C6.62577 4.45365 5.25276 5.90409 5.24999 7.99901L6.74999 8.00099ZM12 3.75C12.2543 3.75 12.7249 3.83569 13.3199 4.04484C13.9007 4.24896 14.5477 4.55242 15.1482 4.94419C16.3834 5.75007 17.2454 6.80417 17.25 8.00284L18.75 7.99716C18.7426 6.03864 17.3546 4.59274 15.9678 3.68792C15.2573 3.22434 14.5003 2.86977 13.8173 2.6297C13.1486 2.39466 12.4957 2.25 12 2.25V3.75Z" fill="#252729"/>
</svg>
