<svg width="24" height="24" viewBox="0 0 24 24" fill="none" xmlns="http://www.w3.org/2000/svg">
<g id="ic_timecalendar_line">
<path id="Vector" d="M17.0573 12.1348C16.0833 12.1328 15.1305 12.4198 14.3197 12.9595C13.5089 13.4992 12.8764 14.2673 12.5023 15.1667C12.1282 16.066 12.0293 17.056 12.2181 18.0116C12.4069 18.9671 12.8749 19.8452 13.563 20.5346C14.251 21.2241 15.1281 21.6939 16.0833 21.8847C17.0384 22.0754 18.0287 21.9785 18.9288 21.6062C19.8289 21.2339 20.5983 20.603 21.1396 19.7933C21.6809 18.9835 21.9699 18.0314 21.9699 17.0574C21.9673 15.7544 21.4492 14.5053 20.5287 13.583C19.6083 12.6607 18.3603 12.14 17.0573 12.1348ZM20.8616 17.976C20.6978 18.6784 20.3407 19.3209 19.8307 19.8308C19.3208 20.3408 18.6783 20.6979 17.9759 20.8617C17.1441 21.064 16.269 20.9887 15.484 20.6474C14.6989 20.3061 14.047 19.7174 13.6277 18.9711C13.2083 18.2249 13.0445 17.362 13.1611 16.5139C13.2778 15.6659 13.6685 14.8792 14.2738 14.2739C14.8791 13.6686 15.6658 13.2779 16.5138 13.1612C17.3619 13.0445 18.2248 13.2084 18.971 13.6278C19.7173 14.0471 20.306 14.699 20.6473 15.4841C20.9886 16.2691 21.0639 17.1442 20.8616 17.976Z" fill="#3A3D40"/>
<path id="Vector_2" d="M18.2956 16.558H17.5567V14.561C17.5542 14.4294 17.5008 14.3039 17.4077 14.2108C17.3146 14.1177 17.1891 14.0643 17.0575 14.0618C16.9251 14.0618 16.7981 14.1144 16.7045 14.208C16.6108 14.3016 16.5582 14.4286 16.5582 14.561V17.0273C16.5582 17.1597 16.6108 17.2867 16.7045 17.3803C16.7981 17.474 16.9251 17.5266 17.0575 17.5266H18.2956C18.428 17.5266 18.555 17.474 18.6486 17.3803C18.7423 17.2867 18.7949 17.1597 18.7949 17.0273C18.7872 16.9002 18.7313 16.7807 18.6385 16.6935C18.5456 16.6063 18.423 16.5578 18.2956 16.558Z" fill="#3A3D40"/>
<path id="Vector_3" d="M16.4783 9.98802C16.4783 9.85561 16.4257 9.72862 16.332 9.635C16.2384 9.54137 16.1114 9.48877 15.979 9.48877H7.99101C7.8586 9.48877 7.73161 9.54137 7.63799 9.635C7.54436 9.72862 7.49176 9.85561 7.49176 9.98802C7.49176 10.1204 7.54436 10.2474 7.63799 10.341C7.73161 10.4347 7.8586 10.4873 7.99101 10.4873H15.979C16.1114 10.4873 16.2384 10.4347 16.332 10.341C16.4257 10.2474 16.4783 10.1204 16.4783 9.98802Z" fill="#3A3D40"/>
<path id="Vector_4" d="M20.9715 3.99695H15.8392V2.47923C15.8392 2.34682 15.7866 2.21984 15.693 2.12621C15.5994 2.03258 15.4724 1.97998 15.34 1.97998C15.2075 1.97998 15.0806 2.03258 14.9869 2.12621C14.8933 2.21984 14.8407 2.34682 14.8407 2.47923V3.99695H9.12929V2.47923C9.12929 2.34682 9.07669 2.21984 8.98306 2.12621C8.88943 2.03258 8.76245 1.97998 8.63004 1.97998C8.49763 1.97998 8.37064 2.03258 8.27702 2.12621C8.18339 2.21984 8.13079 2.34682 8.13079 2.47923V3.99695H2.9985C2.73368 3.99695 2.47971 4.10215 2.29245 4.2894C2.1052 4.47666 2 4.73063 2 4.99545V20.9714C2 21.2363 2.1052 21.4902 2.29245 21.6775C2.47971 21.8647 2.73368 21.9699 2.9985 21.9699H11.6355C11.7679 21.9699 11.8949 21.9173 11.9885 21.8237C12.0822 21.7301 12.1348 21.6031 12.1348 21.4707C12.1348 21.3383 12.0822 21.2113 11.9885 21.1177C11.8949 21.024 11.7679 20.9714 11.6355 20.9714H2.9985V4.99545H8.13079V6.47323C8.13079 6.60564 8.18339 6.73263 8.27702 6.82625C8.37064 6.91988 8.49763 6.97248 8.63004 6.97248C8.76245 6.97248 8.88943 6.91988 8.98306 6.82625C9.07669 6.73263 9.12929 6.60564 9.12929 6.47323V4.99545H14.8407V6.47323C14.8407 6.60564 14.8933 6.73263 14.9869 6.82625C15.0806 6.91988 15.2075 6.97248 15.34 6.97248C15.4724 6.97248 15.5994 6.91988 15.693 6.82625C15.7866 6.73263 15.8392 6.60564 15.8392 6.47323V4.99545H20.9715V11.6455C20.9715 11.7779 21.0241 11.9049 21.1177 11.9985C21.2114 12.0921 21.3383 12.1447 21.4707 12.1447C21.6032 12.1447 21.7301 12.0921 21.8238 11.9985C21.9174 11.9049 21.97 11.7779 21.97 11.6455V4.99545C21.97 4.73063 21.8648 4.47666 21.6775 4.2894C21.4903 4.10215 21.2363 3.99695 20.9715 3.99695Z" fill="#3A3D40"/>
</g>
</svg>
