<svg width="24" height="24" viewBox="0 0 24 24" fill="none" xmlns="http://www.w3.org/2000/svg">
<g clip-path="url(#clip0_4084_4740)">
<path fill-rule="evenodd" clip-rule="evenodd" d="M3.75 1C4.16421 1 4.5 1.33579 4.5 1.75V16.25C4.5 16.5815 4.6317 16.8995 4.86612 17.1339C5.10054 17.3683 5.41848 17.5 5.75 17.5H18.4393L15.4697 14.5303C15.1768 14.2374 15.1768 13.7626 15.4697 13.4697C15.7626 13.1768 16.2374 13.1768 16.5303 13.4697L20.7803 17.7197C20.9948 17.9342 21.059 18.2568 20.9429 18.537C20.8268 18.8173 20.5533 19 20.25 19H5.75C5.02065 19 4.32118 18.7103 3.80546 18.1945C3.28973 17.6788 3 16.9793 3 16.25V1.75C3 1.33579 3.33579 1 3.75 1Z" fill="#252729"/>
<path fill-rule="evenodd" clip-rule="evenodd" d="M20.8124 17.7538C21.0864 18.0644 21.0568 18.5383 20.7462 18.8124L16.4962 22.5624C16.1856 22.8364 15.7117 22.8068 15.4376 22.4962C15.1636 22.1856 15.1932 21.7117 15.5038 21.4376L19.7538 17.6876C20.0644 17.4136 20.5383 17.4432 20.8124 17.7538Z" fill="#252729"/>
</g>
<defs>
<clipPath id="clip0_4084_4740">
<rect width="18" height="21.75" fill="white" transform="translate(3 1)"/>
</clipPath>
</defs>
</svg>
