<svg width="24" height="24" viewBox="0 0 24 24" fill="none" xmlns="http://www.w3.org/2000/svg">
<path fill-rule="evenodd" clip-rule="evenodd" d="M9.51581 11.6404L5.69521 6.38184L9.33578 3.7368L13.1564 8.99541L9.51581 11.6404ZM4.18779 6.859C3.86316 6.4122 3.96221 5.78683 4.40902 5.4622L8.85861 2.22938C9.30542 1.90476 9.93079 2.00381 10.2554 2.45062L14.3917 8.14366L14.6924 7.92514C15.4743 7.35705 16.5687 7.53038 17.1368 8.3123C17.7049 9.09421 17.5316 10.1886 16.7497 10.7567L13.9425 12.7962L19.7322 20.7651C19.9757 21.1003 19.9014 21.5693 19.5663 21.8127C19.2312 22.0562 18.7622 21.9819 18.5187 21.6468L12.729 13.6779L9.87303 15.7529C9.09112 16.321 7.99672 16.1476 7.42863 15.3657C6.86054 14.5838 7.03387 13.4894 7.81578 12.9213L8.32403 12.5521L4.18779 6.859ZM15.5741 9.13867L8.69746 14.1348C8.58576 14.216 8.561 14.3723 8.64215 14.484C8.72331 14.5957 8.87965 14.6205 8.99135 14.5393L15.868 9.54317C15.9797 9.46202 16.0045 9.30568 15.9233 9.19397C15.8422 9.08227 15.6858 9.05751 15.5741 9.13867Z" fill="#252729"/>
</svg>
