<svg width="24" height="24" viewBox="0 0 24 24" fill="none" xmlns="http://www.w3.org/2000/svg">
<g id="ic_warningcircle_filled">
<path id="Vector" d="M12 2C10.0222 2 8.08879 2.58649 6.4443 3.6853C4.79981 4.78412 3.51809 6.3459 2.76121 8.17317C2.00433 10.0004 1.8063 12.0111 2.19215 13.9509C2.578 15.8907 3.53041 17.6725 4.92894 19.0711C6.32746 20.4696 8.10929 21.422 10.0491 21.8079C11.9889 22.1937 13.9996 21.9957 15.8268 21.2388C17.6541 20.4819 19.2159 19.2002 20.3147 17.5557C21.4135 15.9112 22 13.9778 22 12C22 10.6868 21.7413 9.38642 21.2388 8.17317C20.7363 6.95991 19.9997 5.85752 19.0711 4.92893C18.1425 4.00035 17.0401 3.26375 15.8268 2.7612C14.6136 2.25866 13.3132 2 12 2ZM12 16.4C12.1385 16.4 12.2738 16.4411 12.3889 16.518C12.504 16.5949 12.5937 16.7042 12.6467 16.8321C12.6997 16.96 12.7136 17.1008 12.6866 17.2366C12.6595 17.3723 12.5929 17.4971 12.495 17.595C12.3971 17.6929 12.2724 17.7595 12.1366 17.7866C12.0008 17.8136 11.86 17.7997 11.7321 17.7467C11.6042 17.6937 11.4949 17.604 11.418 17.4889C11.3411 17.3738 11.3 17.2384 11.3 17.1C11.3077 16.9196 11.3849 16.7492 11.5153 16.6243C11.6458 16.4995 11.8194 16.4298 12 16.43V16.4ZM12 6.4C12.1326 6.4 12.2598 6.45268 12.3536 6.54645C12.4473 6.64021 12.5 6.76739 12.5 6.9V14C12.5 14.1326 12.4473 14.2598 12.3536 14.3536C12.2598 14.4473 12.1326 14.5 12 14.5C11.8674 14.5 11.7402 14.4473 11.6465 14.3536C11.5527 14.2598 11.5 14.1326 11.5 14V6.89C11.5 6.75739 11.5527 6.63021 11.6465 6.53645C11.7402 6.44268 11.8674 6.39 12 6.39V6.4Z" fill="#3A3D40"/>
</g>
</svg>
