<svg width="24" height="24" viewBox="0 0 24 24" fill="none" xmlns="http://www.w3.org/2000/svg">
<g id="ic_savecircle_line">
<path id="Vector" d="M12 14.86C11.8683 14.857 11.7429 14.8033 11.65 14.71L6.46 9.49996C6.41314 9.45347 6.37594 9.39817 6.35056 9.33724C6.32517 9.27631 6.3121 9.21096 6.3121 9.14496C6.3121 9.07895 6.32517 9.0136 6.35056 8.95267C6.37594 8.89174 6.41314 8.83644 6.46 8.78996C6.55515 8.69771 6.68248 8.64612 6.815 8.64612C6.94753 8.64612 7.07485 8.69771 7.17 8.78996L12 13.65L16.8 8.84996C16.8942 8.7558 17.0219 8.70291 17.155 8.70291C17.2882 8.70291 17.4159 8.7558 17.51 8.84996C17.6042 8.94411 17.657 9.0718 17.657 9.20496C17.657 9.33811 17.6042 9.4658 17.51 9.55996L12.36 14.71C12.2624 14.8023 12.1343 14.8556 12 14.86Z" fill="#3A3D40"/>
<path id="Vector_2" d="M12 3C13.78 3 15.5201 3.52784 17.0001 4.51677C18.4802 5.50571 19.6337 6.91131 20.3149 8.55585C20.9961 10.2004 21.1743 12.01 20.8271 13.7558C20.4798 15.5016 19.6226 17.1053 18.364 18.364C17.1053 19.6226 15.5016 20.4798 13.7558 20.8271C12.01 21.1743 10.2004 20.9961 8.55585 20.3149C6.91132 19.6337 5.50571 18.4802 4.51678 17.0001C3.52785 15.5201 3 13.78 3 12C3 9.61305 3.94822 7.32387 5.63604 5.63604C7.32387 3.94821 9.61306 3 12 3ZM12 2C10.0222 2 8.08879 2.58649 6.4443 3.6853C4.79981 4.78412 3.51809 6.3459 2.76121 8.17317C2.00433 10.0004 1.8063 12.0111 2.19215 13.9509C2.578 15.8907 3.53041 17.6725 4.92894 19.0711C6.32746 20.4696 8.10929 21.422 10.0491 21.8079C11.9889 22.1937 13.9996 21.9957 15.8268 21.2388C17.6541 20.4819 19.2159 19.2002 20.3147 17.5557C21.4135 15.9112 22 13.9778 22 12C22 10.6868 21.7413 9.38642 21.2388 8.17317C20.7363 6.95991 19.9997 5.85752 19.0711 4.92893C18.1425 4.00035 17.0401 3.26375 15.8268 2.7612C14.6136 2.25866 13.3132 2 12 2Z" fill="#3A3D40"/>
<path id="Vector_3" d="M17.17 16.78H6.81C6.67819 16.7775 6.5525 16.724 6.45928 16.6307C6.36606 16.5375 6.31256 16.4118 6.31 16.28C6.31 16.1474 6.36268 16.0202 6.45644 15.9265C6.55021 15.8327 6.67739 15.78 6.81 15.78H17.17C17.3026 15.78 17.4298 15.8327 17.5236 15.9265C17.6173 16.0202 17.67 16.1474 17.67 16.28C17.67 16.4126 17.6173 16.5398 17.5236 16.6336C17.4298 16.7274 17.3026 16.78 17.17 16.78Z" fill="#3A3D40"/>
</g>
</svg>
