<svg width="24" height="24" viewBox="0 0 24 24" fill="none" xmlns="http://www.w3.org/2000/svg">
<g id="ic_thumb_up_line">
<path id="Vector" d="M13.9676 8.79757L14.4445 6.59093C14.6907 5.66115 14.5597 4.67173 14.0798 3.83814C13.6 3.00454 12.8102 2.39428 11.8825 2.14025L11.5085 2.04675C11.405 2.01748 11.2982 2.00177 11.1906 2C10.9206 2.00356 10.6596 2.09764 10.4493 2.26717C10.2391 2.4367 10.0919 2.67187 10.0312 2.93502L8.32012 9.25573C8.24249 9.53345 8.10169 9.78946 7.90871 10.0037C7.51358 10.4569 7.17453 10.9561 6.8989 11.4904C6.82207 11.36 6.71471 11.2501 6.58604 11.1703C6.45737 11.0905 6.31125 11.0431 6.16023 11.0323H3.93489C3.68691 11.0323 3.44909 11.1308 3.27374 11.3061C3.09839 11.4815 2.99988 11.7193 2.99988 11.9673V21.065C2.99988 21.313 3.09839 21.5508 3.27374 21.7261C3.44909 21.9015 3.68691 22 3.93489 22H6.16023C6.31851 21.9951 6.47294 21.95 6.60904 21.8691C6.72859 21.9385 6.86356 21.9771 7.00175 21.9813H11.3309H13.3692C17.3524 21.9813 20.5875 19.2417 20.5875 15.2492C20.5408 11.5746 17.5581 9.21833 13.9676 8.79757ZM3.93489 11.9673H6.16023V14.5199C6.16023 14.604 6.16023 14.6975 6.16023 14.7817V21.065H3.93489V11.9673ZM13.2851 21.065H11.2467H7.09525V14.6321C7.11343 13.1586 7.64967 11.7386 8.60998 10.6209C8.89676 10.2975 9.1076 9.91417 9.22709 9.49883L10.9288 3.14072C10.9448 3.08297 10.9788 3.03184 11.0259 2.99482C11.073 2.95781 11.1307 2.93685 11.1906 2.93502H11.2654L11.6394 3.03787C11.9818 3.13044 12.3021 3.29066 12.5816 3.50906C12.861 3.72746 13.0938 3.99963 13.2664 4.30949C13.4476 4.62168 13.5649 4.96681 13.6115 5.32478C13.658 5.68276 13.6329 6.04642 13.5375 6.39458L13.0513 8.59187C13.0236 8.72071 13.0234 8.85395 13.0508 8.98287C13.0782 9.11178 13.1325 9.23344 13.2103 9.33988C13.2855 9.44487 13.3816 9.53314 13.4927 9.59912C13.6037 9.6651 13.7272 9.70736 13.8554 9.72324C16.7166 10.0598 19.6058 11.9018 19.6058 15.2679C19.6058 18.6339 16.9597 21.065 13.3225 21.065H13.2851Z" fill="#3A3D40"/>
</g>
</svg>
