<svg width="24" height="24" viewBox="0 0 24 24" fill="none" xmlns="http://www.w3.org/2000/svg">
<g id="ic_playcircle_line">
<path id="Vector" d="M12 3C13.78 3 15.5201 3.52784 17.0001 4.51677C18.4802 5.50571 19.6337 6.91131 20.3149 8.55585C20.9961 10.2004 21.1743 12.01 20.8271 13.7558C20.4798 15.5016 19.6226 17.1053 18.364 18.364C17.1053 19.6226 15.5016 20.4798 13.7558 20.8271C12.01 21.1743 10.2004 20.9961 8.55585 20.3149C6.91132 19.6337 5.50571 18.4802 4.51678 17.0001C3.52785 15.5201 3 13.78 3 12C3 9.61305 3.94822 7.32387 5.63604 5.63604C7.32387 3.94821 9.61306 3 12 3ZM12 2C10.0222 2 8.08879 2.58649 6.4443 3.6853C4.79981 4.78412 3.51809 6.3459 2.76121 8.17317C2.00433 10.0004 1.8063 12.0111 2.19215 13.9509C2.578 15.8907 3.53041 17.6725 4.92894 19.0711C6.32746 20.4696 8.10929 21.422 10.0491 21.8079C11.9889 22.1937 13.9996 21.9957 15.8268 21.2388C17.6541 20.4819 19.2159 19.2002 20.3147 17.5557C21.4135 15.9112 22 13.9778 22 12C22 10.6868 21.7413 9.38642 21.2388 8.17317C20.7363 6.95991 19.9997 5.85752 19.0711 4.92893C18.1425 4.00035 17.0401 3.26375 15.8268 2.7612C14.6136 2.25866 13.3132 2 12 2Z" fill="#3A3D40"/>
<path id="Vector_2" d="M9.68 17.42C9.60029 17.4236 9.52103 17.4064 9.45 17.37C9.36771 17.3274 9.29889 17.2628 9.25122 17.1833C9.20354 17.1038 9.17888 17.0127 9.18 16.92V7.22003C9.18106 7.12782 9.20662 7.03755 9.25407 6.95847C9.30151 6.87939 9.36913 6.81436 9.45 6.77003C9.5349 6.73087 9.62865 6.71488 9.72173 6.72366C9.81481 6.73244 9.90392 6.76569 9.98 6.82003L16.62 11.67C16.684 11.7153 16.7362 11.7752 16.7722 11.8448C16.8082 11.9144 16.827 11.9917 16.827 12.07C16.827 12.1484 16.8082 12.2256 16.7722 12.2952C16.7362 12.3648 16.684 12.4248 16.62 12.47L10 17.33C9.90672 17.3956 9.79381 17.4274 9.68 17.42ZM10.18 8.20003V15.94L15.48 12.07L10.18 8.20003Z" fill="#3A3D40"/>
</g>
</svg>
