<svg width="24" height="24" viewBox="0 0 24 24" fill="none" xmlns="http://www.w3.org/2000/svg">
<path d="M7.25 12H4.75V21.24H7.25V12Z" stroke="#252729" stroke-width="1.5" stroke-linecap="round" stroke-linejoin="round"/>
<path d="M13.32 9.00003C14.0945 8.95103 14.8707 9.06411 15.599 9.33205C16.3273 9.6 16.9917 10.0169 17.5497 10.5561C18.1078 11.0954 18.5472 11.7451 18.84 12.4638C19.1328 13.1825 19.2724 13.9543 19.25 14.73C19.25 18.32 16.59 21.24 13.32 21.24H7.39V14.72C7.39 12.81 7.03 10.61 8.72 9.31003" stroke="#252729" stroke-width="1.5" stroke-linecap="round" stroke-linejoin="round"/>
<path d="M8.7 9.31005C8.7 9.31005 9.4 3.47005 10.04 3.00005C10.68 2.53005 12.25 2.94005 12.89 4.16005C13.53 5.38005 13.27 9.00005 13.27 9.00005" stroke="#252729" stroke-width="1.5" stroke-linecap="round" stroke-linejoin="round"/>
<path d="M13.32 9C14.8535 9.01634 16.3225 9.61925 17.4253 10.6849C18.5282 11.7505 19.1811 13.198 19.25 14.73C19.25 18.32 16.59 21.24 13.32 21.24" stroke="#252729" stroke-width="1.5" stroke-linecap="round" stroke-linejoin="round"/>
</svg>
