<svg width="24" height="24" viewBox="0 0 24 24" fill="none" xmlns="http://www.w3.org/2000/svg">
<path d="M8.66669 9.48889V11.1111" stroke="#231F20" stroke-width="1.5" stroke-linecap="round" stroke-linejoin="round"/>
<path d="M15.3333 9.48889V11.1111" stroke="#231F20" stroke-width="1.5" stroke-linecap="round" stroke-linejoin="round"/>
<path d="M8.08887 14.5667C8.53738 15.1694 9.13138 15.6486 9.81535 15.9595C10.4993 16.2704 11.2509 16.4028 12 16.3444" stroke="#231F20" stroke-width="1.5" stroke-miterlimit="10" stroke-linecap="round"/>
<path d="M15.9111 14.5667C15.4626 15.1694 14.8686 15.6486 14.1846 15.9595C13.5007 16.2704 12.749 16.4028 12 16.3444" stroke="#231F20" stroke-width="1.5" stroke-miterlimit="10" stroke-linecap="round"/>
<path d="M20.4111 15.6445C21.188 13.832 21.3596 11.8173 20.9005 9.89946C20.4415 7.98167 19.3762 6.26304 17.8629 4.99871C16.3496 3.73439 14.4689 2.99178 12.5 2.88114C10.5311 2.7705 8.57908 3.29773 6.93364 4.38455C5.28819 5.47137 4.03709 7.05984 3.36606 8.91413C2.69504 10.7684 2.63987 12.7897 3.20875 14.6778C3.77763 16.5659 4.94023 18.2203 6.52394 19.3952C8.10765 20.5702 10.028 21.2031 12 21.2C13.2536 21.1988 14.4937 20.9417 15.6445 20.4445" stroke="#231F20" stroke-width="1.5" stroke-linecap="round" stroke-linejoin="round"/>
<path d="M21.1667 18.3889H15.7222" stroke="#231F20" stroke-width="1.5" stroke-linecap="round" stroke-linejoin="round"/>
<path d="M18.4445 15.6111V21.1666" stroke="#231F20" stroke-width="1.5" stroke-linecap="round" stroke-linejoin="round"/>
</svg>
