<svg width="24" height="24" viewBox="0 0 24 24" fill="none" xmlns="http://www.w3.org/2000/svg">
<g id="ic_camera_line">
<path id="Vector" d="M21 5.86998H18C17.9644 5.2916 17.7099 4.74846 17.2883 4.35097C16.8667 3.95347 16.3095 3.73143 15.73 3.72998H8.27C7.69053 3.73143 7.13335 3.95347 6.7117 4.35097C6.29005 4.74846 6.03558 5.2916 6 5.86998H3C2.73478 5.86998 2.48043 5.97534 2.29289 6.16287C2.10536 6.35041 2 6.60476 2 6.86998V17.87C2 18.1352 2.10536 18.3896 2.29289 18.5771C2.48043 18.7646 2.73478 18.87 3 18.87H21C21.2652 18.87 21.5196 18.7646 21.7071 18.5771C21.8946 18.3896 22 18.1352 22 17.87V6.86998C22 6.60476 21.8946 6.35041 21.7071 6.16287C21.5196 5.97534 21.2652 5.86998 21 5.86998ZM8.27 4.72998H15.76C16.0636 4.73646 16.355 4.85065 16.5821 5.05215C16.8093 5.25365 16.9574 5.52935 17 5.82998H7C7.04342 5.52429 7.19587 5.24459 7.42926 5.04244C7.66265 4.8403 7.96124 4.72932 8.27 4.72998ZM21 17.87H3V6.86998H21V17.87Z" fill="#3A3D40"/>
<path id="Vector_2" d="M12 16.83C12.89 16.83 13.76 16.566 14.5001 16.0716C15.2401 15.5771 15.8169 14.8743 16.1575 14.052C16.4981 13.2298 16.5872 12.325 16.4135 11.4521C16.2399 10.5791 15.8113 9.77731 15.182 9.14798C14.5526 8.51864 13.7508 8.09006 12.8779 7.91642C12.005 7.74279 11.1002 7.83191 10.2779 8.1725C9.45566 8.51309 8.75285 9.08987 8.25839 9.82989C7.76392 10.5699 7.5 11.4399 7.5 12.33C7.5 13.5234 7.97411 14.668 8.81802 15.5119C9.66193 16.3559 10.8065 16.83 12 16.83ZM12 8.82996C12.6922 8.82996 13.3689 9.03523 13.9445 9.41981C14.5201 9.8044 14.9687 10.351 15.2336 10.9906C15.4985 11.6301 15.5678 12.3338 15.4327 13.0128C15.2977 13.6917 14.9644 14.3153 14.4749 14.8048C13.9854 15.2943 13.3618 15.6277 12.6828 15.7627C12.0039 15.8978 11.3001 15.8284 10.6606 15.5635C10.0211 15.2986 9.47444 14.85 9.08986 14.2745C8.70527 13.6989 8.5 13.0222 8.5 12.33C8.5 11.4017 8.86875 10.5115 9.52513 9.85508C10.1815 9.19871 11.0717 8.82996 12 8.82996Z" fill="#3A3D40"/>
<path id="Vector_3" d="M12 14.83C12.4944 14.83 12.9778 14.6833 13.3889 14.4086C13.8 14.1339 14.1205 13.7435 14.3097 13.2867C14.4989 12.8299 14.5484 12.3272 14.452 11.8422C14.3555 11.3573 14.1174 10.9118 13.7678 10.5622C13.4181 10.2126 12.9727 9.97446 12.4877 9.87799C12.0028 9.78153 11.5001 9.83104 11.0433 10.0203C10.5865 10.2095 10.196 10.5299 9.92132 10.941C9.64661 11.3522 9.49999 11.8355 9.49999 12.33C9.49867 12.6586 9.56243 12.9843 9.6876 13.2882C9.81276 13.5921 9.99686 13.8683 10.2293 14.1007C10.4617 14.3331 10.7378 14.5172 11.0417 14.6424C11.3456 14.7675 11.6713 14.8313 12 14.83ZM12 10.83C12.2967 10.83 12.5867 10.9179 12.8333 11.0828C13.08 11.2476 13.2723 11.4818 13.3858 11.7559C13.4993 12.03 13.529 12.3316 13.4712 12.6226C13.4133 12.9136 13.2704 13.1808 13.0607 13.3906C12.8509 13.6004 12.5836 13.7433 12.2926 13.8011C12.0017 13.859 11.7001 13.8293 11.426 13.7158C11.1519 13.6022 10.9176 13.41 10.7528 13.1633C10.588 12.9166 10.5 12.6266 10.5 12.33C10.5 11.9321 10.658 11.5506 10.9393 11.2693C11.2206 10.988 11.6022 10.83 12 10.83Z" fill="#3A3D40"/>
</g>
</svg>
