<svg width="24" height="24" viewBox="0 0 24 24" fill="none" xmlns="http://www.w3.org/2000/svg">
<path fill-rule="evenodd" clip-rule="evenodd" d="M4.35001 20.21L8.45001 18.34L20.19 6.59998C20.2309 6.55877 20.2539 6.50305 20.2539 6.44498C20.2539 6.38691 20.2309 6.33119 20.19 6.28998L17.71 3.81998C17.6688 3.77906 17.6131 3.7561 17.555 3.7561C17.4969 3.7561 17.4412 3.77906 17.4 3.81998L5.67001 15.55L3.79001 19.65C3.75829 19.7283 3.75033 19.8142 3.76714 19.897C3.78394 19.9798 3.82475 20.0558 3.88449 20.1155C3.94422 20.1752 4.02023 20.2161 4.10302 20.2329C4.18581 20.2497 4.27172 20.2417 4.35001 20.21V20.21Z" stroke="#252729" stroke-width="1.5" stroke-miterlimit="10"/>
<path d="M8.49001 18.3L5.70001 15.51" stroke="#252729" stroke-width="1.5" stroke-miterlimit="10"/>
<path d="M18.67 8.10996L15.89 5.32996" stroke="#252729" stroke-width="1.5" stroke-miterlimit="10"/>
</svg>
