<svg width="24" height="24" viewBox="0 0 24 24" fill="none" xmlns="http://www.w3.org/2000/svg">
<g id="ic_pen_line">
<path id="Union" fill-rule="evenodd" clip-rule="evenodd" d="M17.8276 2.00001C17.9723 1.99899 18.1114 2.0555 18.2144 2.1571L19.8468 3.7678L21.5665 5.41126C21.6721 5.51215 21.7327 5.65118 21.7349 5.79719C21.7371 5.9432 21.6807 6.08399 21.5782 6.18802L8.49373 19.4687C8.44989 19.5132 8.39873 19.5499 8.34248 19.577L3.53394 21.8995L3.51863 21.9066C3.32048 21.9949 3.10035 22.0214 2.88692 21.9827C2.67349 21.944 2.47667 21.8419 2.32211 21.6897C2.16755 21.5375 2.06242 21.3423 2.02042 21.1295C1.97843 20.9167 2.00152 20.6962 2.08668 20.4967L2.08939 20.4904L4.24837 15.6055C4.27502 15.5452 4.31239 15.4902 4.35866 15.4433L17.4431 2.16256C17.5446 2.05951 17.683 2.00104 17.8276 2.00001ZM17.8369 3.31646L16.9421 4.22467L19.5019 6.74186L20.413 5.81708L19.0841 4.54707L17.8369 3.31646ZM5.83267 15.5008L16.2403 4.93702L18.8 7.45421L8.39238 18.018L5.83267 15.5008ZM5.15949 16.2413L3.10165 20.8974L7.65692 18.6973L5.15949 16.2413Z" fill="#3A3D40"/>
</g>
</svg>
