<svg width="24" height="24" viewBox="0 0 24 24" fill="none" xmlns="http://www.w3.org/2000/svg">
<g id="ic_bell_filled">
<path id="Union" fill-rule="evenodd" clip-rule="evenodd" d="M11.626 18.9816V18.9815H17.9539C18.256 19.0015 18.5589 18.9576 18.8429 18.8527C19.1269 18.7478 19.3857 18.5843 19.6023 18.3727C19.8189 18.1612 19.9885 17.9064 20.1001 17.625C20.2117 17.3436 20.2628 17.0418 20.25 16.7393C20.25 14.3138 17.8137 12.9339 17.8137 12.9339V9.18243C17.4723 2.15218 12.3402 1.98974 11.6401 2.00038C10.8834 1.99366 5.78824 2.2081 5.449 9.18245V12.9339C5.449 12.9339 3.00192 14.3138 3.00192 16.7393C2.98915 17.0418 3.04023 17.3436 3.15184 17.625C3.26345 17.9065 3.43309 18.1612 3.6497 18.3728C3.86631 18.5843 4.12504 18.7478 4.40905 18.8527C4.69306 18.9576 4.99598 19.0015 5.29808 18.9816H11.626ZM9.64661 19.5206C9.64661 19.2445 9.42275 19.0206 9.14661 19.0206C8.87046 19.0206 8.64661 19.2445 8.64661 19.5206C8.64661 20.3108 8.96051 21.0687 9.51926 21.6274C10.078 22.1862 10.8358 22.5001 11.626 22.5001C12.4162 22.5001 13.1741 22.1862 13.7328 21.6274C14.2916 21.0687 14.6055 20.3108 14.6055 19.5206C14.6055 19.2445 14.3816 19.0206 14.1055 19.0206C13.8293 19.0206 13.6055 19.2445 13.6055 19.5206C13.6055 20.0456 13.3969 20.5491 13.0257 20.9203C12.6545 21.2915 12.151 21.5001 11.626 21.5001C11.1011 21.5001 10.5976 21.2915 10.2264 20.9203C9.85515 20.5491 9.64661 20.0456 9.64661 19.5206Z" fill="#3A3D40"/>
</g>
</svg>
