<svg width="24" height="24" viewBox="0 0 24 24" fill="none" xmlns="http://www.w3.org/2000/svg">
<g id="ic_schoolcalendar_line">
<path id="Vector" d="M21.4805 17.3246H18.1439V16.1558H20.4615C20.5588 16.1549 20.6537 16.1262 20.7351 16.0731C20.8165 16.02 20.8811 15.9447 20.9211 15.8561C20.9615 15.7674 20.9745 15.6687 20.9585 15.5726C20.9425 15.4765 20.8981 15.3874 20.8312 15.3166L17.984 12.2297C17.916 12.1549 17.8269 12.1024 17.7284 12.0793C17.6299 12.0563 17.5268 12.0636 17.4326 12.1004C17.3384 12.1372 17.2576 12.2018 17.2008 12.2855C17.1441 12.3693 17.1141 12.4682 17.1149 12.5694V17.3246H14.2977C14.1652 17.3246 14.0382 17.3772 13.9445 17.4709C13.8508 17.5646 13.7982 17.6916 13.7982 17.8241V21.4804C13.7982 21.6129 13.8508 21.74 13.9445 21.8336C14.0382 21.9273 14.1652 21.9799 14.2977 21.9799C14.4302 21.9799 14.5572 21.9273 14.6509 21.8336C14.7446 21.74 14.7972 21.6129 14.7972 21.4804V18.3236H20.981V21.4804C20.981 21.6129 21.0337 21.74 21.1273 21.8336C21.221 21.9273 21.3481 21.9799 21.4805 21.9799C21.613 21.9799 21.7401 21.9273 21.8337 21.8336C21.9274 21.74 21.98 21.6129 21.98 21.4804V17.8241C21.98 17.6916 21.9274 17.5646 21.8337 17.4709C21.7401 17.3772 21.613 17.3246 21.4805 17.3246ZM18.1439 13.8581L19.3327 15.1568H18.1439V13.8581Z" fill="#3A3D40"/>
<path id="Vector_2" d="M7.99401 9.53247C7.86153 9.53247 7.73448 9.5851 7.64081 9.67877C7.54713 9.77244 7.49451 9.89949 7.49451 10.032C7.49451 10.1644 7.54713 10.2915 7.64081 10.3852C7.73448 10.4788 7.86153 10.5315 7.99401 10.5315H15.986C16.1185 10.5315 16.2455 10.4788 16.3392 10.3852C16.4329 10.2915 16.4855 10.1644 16.4855 10.032C16.4855 9.89949 16.4329 9.77244 16.3392 9.67877C16.2455 9.5851 16.1185 9.53247 15.986 9.53247H7.99401Z" fill="#3A3D40"/>
<path id="Vector_3" d="M11.6403 20.981H2.999V4.99696H8.13386V6.47548C8.13386 6.60795 8.18648 6.735 8.28016 6.82868C8.37383 6.92235 8.50088 6.97498 8.63336 6.97498C8.76583 6.97498 8.89288 6.92235 8.98656 6.82868C9.08023 6.735 9.13286 6.60795 9.13286 6.47548V4.99696H14.8471V6.47548C14.8471 6.60795 14.8998 6.735 14.9934 6.82868C15.0871 6.92235 15.2142 6.97498 15.3466 6.97498C15.4791 6.97498 15.6062 6.92235 15.6998 6.82868C15.7935 6.735 15.8461 6.60795 15.8461 6.47548V4.99696H20.981V11.6503C20.981 11.7828 21.0336 11.9098 21.1273 12.0035C21.221 12.0972 21.348 12.1498 21.4805 12.1498C21.613 12.1498 21.74 12.0972 21.8337 12.0035C21.9274 11.9098 21.98 11.7828 21.98 11.6503V4.99696C21.98 4.73201 21.8747 4.47791 21.6874 4.29056C21.5 4.10321 21.2459 3.99796 20.981 3.99796H15.8461V2.47948C15.8461 2.347 15.7935 2.21996 15.6998 2.12628C15.6062 2.03261 15.4791 1.97998 15.3466 1.97998C15.2142 1.97998 15.0871 2.03261 14.9934 2.12628C14.8998 2.21996 14.8471 2.347 14.8471 2.47948V3.99796H9.13286V2.47948C9.13286 2.347 9.08023 2.21996 8.98656 2.12628C8.89288 2.03261 8.76583 1.97998 8.63336 1.97998C8.50088 1.97998 8.37383 2.03261 8.28016 2.12628C8.18648 2.21996 8.13386 2.347 8.13386 2.47948V3.99796H2.999C2.73405 3.99796 2.47995 4.10321 2.2926 4.29056C2.10525 4.47791 2 4.73201 2 4.99696V20.981C2 21.2459 2.10525 21.5 2.2926 21.6874C2.47995 21.8747 2.73405 21.98 2.999 21.98H11.6403C11.7728 21.98 11.8999 21.9273 11.9935 21.8337C12.0872 21.74 12.1398 21.6129 12.1398 21.4805C12.1398 21.348 12.0872 21.2209 11.9935 21.1273C11.8999 21.0336 11.7728 20.981 11.6403 20.981Z" fill="#3A3D40"/>
</g>
</svg>
