<svg width="24" height="24" viewBox="0 0 24 24" fill="none" xmlns="http://www.w3.org/2000/svg">
<g id="ic_food_line">
<path id="Vector" d="M21.8374 6.64385C21.7454 6.55372 21.6218 6.50324 21.493 6.50324C21.3643 6.50324 21.2407 6.55372 21.1487 6.64385L18.9647 8.8279C18.6692 8.42067 18.3401 8.03893 17.9809 7.68668L20.3813 5.27636C20.4266 5.23114 20.4624 5.17746 20.4869 5.11838C20.5114 5.0593 20.524 4.99598 20.524 4.93203C20.524 4.86808 20.5114 4.80476 20.4869 4.74568C20.4624 4.6866 20.4266 4.63292 20.3813 4.5877C20.3361 4.54248 20.2824 4.50661 20.2234 4.48214C20.1643 4.45767 20.101 4.44507 20.037 4.44507C19.9731 4.44507 19.9097 4.45767 19.8507 4.48214C19.7916 4.50661 19.7379 4.54248 19.6927 4.5877L17.2528 7.0177C16.9021 6.65312 16.5165 6.32363 16.1018 6.03389L18.2957 3.84001C18.3418 3.79428 18.3784 3.73988 18.4034 3.67993C18.4283 3.61999 18.4412 3.5557 18.4412 3.49076C18.4412 3.42582 18.4283 3.36153 18.4034 3.30158C18.3784 3.24164 18.3418 3.18724 18.2957 3.14151C18.2021 3.05075 18.0768 3 17.9464 3C17.816 3 17.6908 3.05075 17.5972 3.14151L14.8524 5.89616L14.6064 6.03389C13.1799 7.47025 12.8061 9.44769 13.6226 10.6774L13.5046 10.7562L11.3599 12.9796L8.75278 10.3823C9.17234 9.61771 9.31816 8.73273 9.16608 7.87395C9.014 7.01516 8.57315 6.23407 7.91654 5.66005C7.52318 5.24264 7.0513 4.90699 6.52795 4.67232C6.0046 4.43766 5.44008 4.30861 4.86675 4.29256C4.09802 4.28529 3.3568 4.57825 2.80076 5.10912C1.53165 6.37822 1.81696 8.67049 3.33201 10.2347C4.12884 11.0576 5.21702 11.5346 6.36213 11.5629C6.96698 11.5704 7.56008 11.3956 8.06411 11.0611L10.6712 13.6781L4.87659 19.4333C4.78583 19.5269 4.73508 19.6522 4.73508 19.7826C4.73508 19.9129 4.78583 20.0382 4.87659 20.1318C4.97134 20.2203 5.09617 20.2696 5.22584 20.2696C5.35551 20.2696 5.48034 20.2203 5.57509 20.1318L11.3599 14.347L17.1348 20.1318C17.2318 20.2198 17.358 20.2689 17.489 20.2695C17.6169 20.2683 17.7398 20.2192 17.8333 20.1318C17.8794 20.0861 17.916 20.0317 17.941 19.9717C17.9659 19.9118 17.9788 19.8475 17.9788 19.7826C17.9788 19.7176 17.9659 19.6533 17.941 19.5934C17.916 19.5334 17.8794 19.479 17.8333 19.4333L12.0485 13.6781L14.2719 11.4547C14.3048 11.4201 14.3314 11.3802 14.3506 11.3366C14.7921 11.6039 15.3005 11.7404 15.8165 11.7301C16.9996 11.6853 18.1185 11.1805 18.9352 10.3233C18.9842 10.2692 19.0271 10.2098 19.063 10.1462L21.8177 7.39154C21.8729 7.3468 21.9178 7.29062 21.9493 7.22686C21.9807 7.16311 21.998 7.09329 21.9998 7.02223C22.0017 6.95117 21.9881 6.88054 21.9601 6.81522C21.9321 6.7499 21.8902 6.69144 21.8374 6.64385ZM6.36213 10.5791C5.48054 10.568 4.63762 10.2153 4.01084 9.59526C2.80076 8.36551 2.59416 6.64385 3.47959 5.79778C3.85635 5.44984 4.35408 5.26275 4.86675 5.27636C5.75815 5.30567 6.60245 5.68366 7.21804 6.32903C8.39861 7.5096 8.63472 9.1919 7.7493 10.0773C7.36947 10.4181 6.87209 10.598 6.36213 10.5791ZM15.8165 10.7266C15.598 10.744 15.3783 10.7173 15.1704 10.648C14.9626 10.5787 14.7707 10.4683 14.6064 10.3233C13.8292 9.53624 14.144 7.89328 15.3049 6.73239C15.8062 7.05841 16.2598 7.45241 16.6527 7.90312L16.8396 8.08021L17.0167 8.26713C17.4904 8.64927 17.9077 9.0964 18.2563 9.59526C17.6211 10.2781 16.7474 10.6903 15.8165 10.7463V10.7266Z" fill="#3A3D40"/>
</g>
</svg>
