<svg width="24" height="24" viewBox="0 0 24 24" fill="none" xmlns="http://www.w3.org/2000/svg">
<path fill-rule="evenodd" clip-rule="evenodd" d="M17.3423 4.2727C17.6311 3.97565 17.6243 3.50083 17.3271 3.21215C17.03 2.92347 16.555 2.93025 16.2662 3.2273L14.1944 5.35851C13.0219 6.57009 12.5377 8.44445 13.3108 9.81418L11.8091 11.3571L9.66157 9.15135C10.3908 7.85402 10.0124 6.08109 8.93629 4.86257C7.63976 3.39446 5.41885 2.83129 3.97283 4.10753C2.5268 5.38377 2.81053 7.65668 4.10706 9.12479C5.27076 10.4425 7.17911 11.0312 8.60349 10.2152L10.7623 12.4326L5.34355 18H7.43707L11.8092 13.5079L18.3373 20.2131C18.6263 20.5099 19.1012 20.5164 19.3982 20.2275C19.6951 19.9386 19.7015 19.4637 19.4125 19.1669L12.856 12.4324L14.3703 10.8766C15.7224 11.6452 17.5442 11.1606 18.7217 9.95369L19.1124 9.55336L19.1082 9.54592L20.7933 7.81274C21.0821 7.51571 21.0753 7.04088 20.7782 6.75218C20.4811 6.46348 20.0061 6.47024 19.7173 6.76726L18.3047 8.22017C18.1052 7.94125 17.8896 7.67404 17.6592 7.4199L19.0583 6.05721C19.3551 5.76816 19.3613 5.29333 19.0722 4.99664C18.783 4.69995 18.3081 4.69375 18.0113 4.98279L16.6184 6.33938C16.3956 6.12627 16.1594 5.92762 15.9114 5.74463L17.3423 4.2727ZM7.81147 5.85532C8.7085 6.87106 8.68699 8.0346 8.20479 8.62293C8.18542 8.63837 8.16663 8.6549 8.1485 8.67254C8.11962 8.70065 8.09348 8.73051 8.0701 8.7618C7.46721 9.28433 6.19832 9.22637 5.23188 8.13204C4.26148 7.03322 4.36602 5.76144 4.96588 5.23201C5.56575 4.70257 6.84107 4.75651 7.81147 5.85532ZM16.0852 7.96102C16.5123 8.35521 16.8909 8.79782 17.2136 9.27942C16.3 9.92761 15.3087 9.83924 14.8267 9.35243C14.3415 8.86233 14.261 7.82075 14.8985 6.86401C15.3149 7.15476 15.6917 7.4999 16.0185 7.89092L16.0496 7.92813L16.0852 7.96102Z" fill="#252729"/>
<line x1="13.8939" y1="10.3103" x2="4.22949" y2="20.2311" stroke="#252729" stroke-width="1.5" stroke-linecap="round"/>
<line x1="19.395" y1="20.2361" x2="9.27704" y2="9.84974" stroke="#252729" stroke-width="1.5" stroke-linecap="round"/>
</svg>
