<svg width="24" height="24" viewBox="0 0 24 24" fill="none" xmlns="http://www.w3.org/2000/svg">
<path d="M13.7645 5.54849C14.1191 5.15186 14.5509 4.83175 15.0334 4.60773C15.516 4.38371 16.0392 4.26049 16.571 4.24562C17.1028 4.23075 17.632 4.32454 18.1264 4.52124C18.6207 4.71795 19.0697 5.01344 19.4459 5.38963C19.8221 5.76583 20.1175 6.21482 20.3142 6.70914C20.511 7.20346 20.6047 7.73271 20.5899 8.26452C20.575 8.79633 20.4518 9.31952 20.2278 9.80208C20.0037 10.2846 19.6836 10.7164 19.287 11.071" stroke="#252729" stroke-width="1.5" stroke-miterlimit="10" stroke-linecap="round"/>
<path d="M14.6546 7.87331C14.9358 7.63929 15.2943 7.51881 15.6598 7.53551C16.0252 7.55221 16.3713 7.70488 16.6299 7.96356C16.8886 8.22224 17.0413 8.56826 17.058 8.93371C17.0747 9.29915 16.9542 9.65765 16.7202 9.93884" stroke="#252729" stroke-width="1.5" stroke-miterlimit="10" stroke-linecap="round"/>
<path d="M19.4426 10.9153L11.1026 19.601" stroke="#252729" stroke-width="1.5" stroke-miterlimit="10" stroke-linecap="round"/>
<path d="M16.7375 9.92148L8.08643 18.8837" stroke="#252729" stroke-width="1.5" stroke-miterlimit="10" stroke-linecap="round"/>
<path d="M14.8534 7.67451L7.25674 15.5996" stroke="#252729" stroke-width="1.5" stroke-miterlimit="10" stroke-linecap="round"/>
<path d="M13.92 5.39286L4.55167 15.1069" stroke="#252729" stroke-width="1.5" stroke-miterlimit="10" stroke-linecap="round"/>
<path d="M7.97407 19.0133C7.48814 19.4992 6.82908 19.7722 6.14188 19.7722C5.45467 19.7722 4.79561 19.4992 4.30968 19.0133C3.82376 18.5273 3.55077 17.8683 3.55077 17.1811C3.55077 16.4939 3.82376 15.8348 4.30968 15.3489" stroke="#252729" stroke-width="1.5" stroke-miterlimit="10" stroke-linecap="round"/>
</svg>
