<svg width="24" height="24" viewBox="0 0 24 24" fill="none" xmlns="http://www.w3.org/2000/svg">
<g id="ic_trashcan_line">
<path id="Union" fill-rule="evenodd" clip-rule="evenodd" d="M6.25488 1.5C5.97874 1.5 5.75488 1.72386 5.75488 2C5.75488 2.27614 5.97874 2.5 6.25488 2.5H17.4112C17.6874 2.5 17.9112 2.27614 17.9112 2C17.9112 1.72386 17.6874 1.5 17.4112 1.5H6.25488ZM3 5.49353C2.72386 5.49353 2.5 5.71739 2.5 5.99353C2.5 6.26967 2.72386 6.49353 3 6.49353H5.05884V22C5.05884 22.2761 5.2827 22.5 5.55884 22.5H18.1177C18.3939 22.5 18.6177 22.2761 18.6177 22V6.49353H20.666C20.9421 6.49353 21.166 6.26967 21.166 5.99353C21.166 5.71739 20.9421 5.49353 20.666 5.49353H18.1177H5.55884H3ZM6.05884 21.5V6.49353H17.6177V21.5H6.05884ZM12.333 9.31262C12.333 9.03648 12.1091 8.81262 11.833 8.81262C11.5569 8.81262 11.333 9.03648 11.333 9.31262V18.606C11.333 18.8821 11.5569 19.106 11.833 19.106C12.1091 19.106 12.333 18.8821 12.333 18.606V9.31262Z" fill="#3A3D40"/>
</g>
</svg>
