<svg width="24" height="24" viewBox="0 0 24 24" fill="none" xmlns="http://www.w3.org/2000/svg">
<g clip-path="url(#clip0_3874_5938)">
<path d="M9.57312 14.4635V9.25769C9.57754 9.22488 9.57754 9.19161 9.57312 9.15879V9.05989C9.57312 7.99294 9.88825 6.94995 10.4787 6.06281C11.0691 5.17567 11.9082 4.48423 12.89 4.07593C13.8719 3.66762 14.9522 3.56079 15.9945 3.76894C17.0368 3.97709 17.9942 4.49088 18.7456 5.24533C19.4971 5.99978 20.0088 6.96101 20.2161 8.00746C20.4235 9.05391 20.3171 10.1386 19.9104 11.1243C19.5037 12.1101 18.815 12.9526 17.9314 13.5453C17.0478 14.1381 16.009 14.4545 14.9463 14.4545H9.57312V14.4635ZM11.0955 10.6513C10.8834 10.9015 10.7716 11.222 10.7821 11.5504C10.7821 11.9081 10.9236 12.2511 11.1755 12.504C11.4274 12.757 11.7691 12.8991 12.1254 12.8991H16.4239C16.7801 12.9253 17.1322 12.8083 17.4026 12.574C17.673 12.3396 17.8395 12.007 17.8657 11.6493C17.8918 11.2916 17.7753 10.9382 17.5419 10.6667C17.3084 10.3952 16.9771 10.228 16.6209 10.2017C16.6605 10.0705 16.6816 9.9343 16.6836 9.79715C16.6839 9.66638 16.6658 9.53622 16.6298 9.41054H17.391C17.7473 9.41054 18.089 9.26845 18.3409 9.01553C18.5928 8.76261 18.7343 8.41957 18.7343 8.06189C18.7343 7.7042 18.5928 7.36117 18.3409 7.10825C18.089 6.85533 17.7473 6.71324 17.391 6.71324H12.1254C11.8702 6.71586 11.621 6.79093 11.4065 6.92976C11.192 7.06859 11.021 7.26551 10.9133 7.49777C10.8056 7.73004 10.7656 7.98816 10.7978 8.24231C10.8301 8.49646 10.9333 8.73627 11.0955 8.93402C10.8834 9.18418 10.7716 9.50472 10.7821 9.83312C10.7929 10.1333 10.9032 10.4212 11.0955 10.6513Z" fill="#252729"/>
<path d="M14.9552 4.34861C15.8862 4.35566 16.7941 4.64061 17.5634 5.16721C18.3326 5.69382 18.9285 6.43827 19.2751 7.30585C19.6217 8.17343 19.7034 9.12492 19.5098 10.0393C19.3163 10.9536 18.8562 11.7895 18.1881 12.4405C18.3504 12.1492 18.4367 11.8213 18.4388 11.4875C18.4317 11.2107 18.3675 10.9383 18.2504 10.6877C18.1333 10.437 17.9657 10.2134 17.7582 10.0309C18.2522 9.93622 18.6931 9.65947 18.9942 9.25503C19.2953 8.8506 19.4349 8.34773 19.3855 7.84524C19.3361 7.34274 19.1014 6.87695 18.7273 6.53939C18.3533 6.20183 17.8671 6.0169 17.3642 6.02094H12.1254C11.7909 6.02112 11.4617 6.10452 11.1672 6.26369C11.606 5.66988 12.1771 5.1874 12.8348 4.85486C13.4926 4.52232 14.2188 4.34895 14.9552 4.34861ZM10.2537 8.79017L10.3075 8.90705C10.2813 8.94613 10.2602 8.98844 10.2448 9.03293C10.2448 8.95201 10.2448 8.87109 10.2448 8.79017H10.2537ZM10.2448 10.5075C10.2619 10.5541 10.2829 10.5992 10.3075 10.6423C10.2813 10.6814 10.2602 10.7237 10.2448 10.7682V10.5075ZM10.2448 12.2427C10.3938 12.6216 10.6527 12.9467 10.9881 13.176C11.3234 13.4053 11.7197 13.5281 12.1254 13.5284H16.4687C15.9906 13.6949 15.4881 13.78 14.9821 13.7802H10.2448V12.2517V12.2427ZM14.9552 2.99996C13.3512 2.99996 11.8128 3.63907 10.6777 4.77696C9.54271 5.91485 8.90386 7.45848 8.90149 9.06889C8.90149 9.06889 8.90149 9.14082 8.90149 9.17678V14.5714C8.90384 14.7201 8.96432 14.8618 9.06987 14.9661C9.17542 15.0704 9.31758 15.1288 9.46567 15.1288H14.9552C16.5584 15.1288 18.0959 14.4894 19.2295 13.3513C20.3631 12.2131 21 10.6695 21 9.0599C21 7.45032 20.3631 5.90666 19.2295 4.76852C18.0959 3.63037 16.5584 2.99097 14.9552 2.99097V2.99996ZM12.1254 8.71824C11.9472 8.71824 11.7764 8.64719 11.6504 8.52073C11.5245 8.39427 11.4537 8.22276 11.4537 8.04391C11.4537 7.86507 11.5245 7.69355 11.6504 7.56709C11.7764 7.44063 11.9472 7.36959 12.1254 7.36959H17.391C17.5692 7.36959 17.74 7.44063 17.866 7.56709C17.9919 7.69355 18.0627 7.86507 18.0627 8.04391C18.0627 8.22276 17.9919 8.39427 17.866 8.52073C17.74 8.64719 17.5692 8.71824 17.391 8.71824H12.1254ZM12.1254 10.4535C11.9472 10.4535 11.7764 10.3825 11.6504 10.256C11.5245 10.1295 11.4537 9.95802 11.4537 9.77918C11.4537 9.60034 11.5245 9.42882 11.6504 9.30236C11.7764 9.1759 11.9472 9.10485 12.1254 9.10485H15.3403C15.5184 9.10485 15.6893 9.1759 15.8152 9.30236C15.9412 9.42882 16.0119 9.60034 16.0119 9.77918C16.0119 9.95802 15.9412 10.1295 15.8152 10.256C15.6893 10.3825 15.5184 10.4535 15.3403 10.4535H12.1254ZM12.1254 12.1888C11.9472 12.1888 11.7764 12.1177 11.6504 11.9913C11.5245 11.8648 11.4537 11.6933 11.4537 11.5144C11.4537 11.3356 11.5245 11.1641 11.6504 11.0376C11.7764 10.9112 11.9472 10.8401 12.1254 10.8401H16.4239C16.602 10.8401 16.7728 10.9112 16.8988 11.0376C17.0248 11.1641 17.0955 11.3356 17.0955 11.5144C17.0955 11.6933 17.0248 11.8648 16.8988 11.9913C16.7728 12.1177 16.602 12.1888 16.4239 12.1888H12.1254Z" fill="#252729"/>
<path fill-rule="evenodd" clip-rule="evenodd" d="M8.20127 8.76576C8.32351 9.11738 8.1387 9.50191 7.78849 9.62464C6.9695 9.91165 6.23618 10.4021 5.65681 11.0503C5.07745 11.6984 4.67088 12.4833 4.47498 13.3317C4.27908 14.1801 4.30022 15.0645 4.53642 15.9025C4.77263 16.7405 5.21622 17.5048 5.82589 18.1244C6.43555 18.7439 7.19146 19.1985 8.02322 19.4457C8.85497 19.6929 9.73552 19.7248 10.5829 19.5384C11.4302 19.352 12.2168 18.9533 12.8693 18.3794C13.5218 17.8056 14.0191 17.0753 14.3148 16.2566C14.4413 15.9065 14.8265 15.7256 15.1752 15.8526C15.5239 15.9795 15.7041 16.3663 15.5777 16.7164C15.2047 17.7491 14.5774 18.6702 13.7543 19.394C12.9313 20.1177 11.9392 20.6206 10.8704 20.8558C9.80165 21.0909 8.69099 21.0507 7.64188 20.7389C6.59276 20.427 5.63932 19.8537 4.87033 19.0722C4.10135 18.2908 3.54183 17.3267 3.2439 16.2697C2.94597 15.2127 2.91931 14.0972 3.1664 13.0271C3.41349 11.957 3.9263 10.9671 4.65707 10.1495C5.38784 9.33193 6.3128 8.71334 7.3458 8.35133C7.69602 8.2286 8.07902 8.41415 8.20127 8.76576Z" fill="#252729"/>
</g>
<defs>
<clipPath id="clip0_3874_5938">
<rect width="18" height="18" fill="white" transform="translate(3 3)"/>
</clipPath>
</defs>
</svg>
