<svg width="24" height="24" viewBox="0 0 24 24" fill="none" xmlns="http://www.w3.org/2000/svg">
<g id="ic_check_line">
<path id="Vector" d="M9.83549 18.6904C9.76844 18.6921 9.70172 18.6805 9.63921 18.6562C9.5767 18.6319 9.51965 18.5954 9.47138 18.5488L2.14866 11.2261C2.10151 11.1789 2.06411 11.1229 2.03859 11.0613C2.01307 10.9997 1.99994 10.9337 1.99994 10.867C1.99994 10.8003 2.01307 10.7343 2.03859 10.6727C2.06411 10.6111 2.10151 10.5551 2.14866 10.508C2.24389 10.4127 2.37305 10.3592 2.50772 10.3592C2.5744 10.3592 2.64043 10.3724 2.70204 10.3979C2.76365 10.4234 2.81962 10.4608 2.86678 10.508L9.83549 17.4767L21.1331 6.14873C21.1803 6.10157 21.2362 6.06417 21.2978 6.03865C21.3594 6.01313 21.4255 6 21.4922 6C21.5588 6 21.6249 6.01313 21.6865 6.03865C21.7481 6.06417 21.8041 6.10157 21.8512 6.14873C21.8984 6.19588 21.9358 6.25186 21.9613 6.31346C21.9868 6.37507 21.9999 6.4411 21.9999 6.50778C21.9999 6.57446 21.9868 6.64049 21.9613 6.7021C21.9358 6.76371 21.8984 6.81969 21.8512 6.86684L10.1895 18.5488C10.1428 18.5946 10.0874 18.6307 10.0267 18.655C9.96589 18.6793 9.90092 18.6913 9.83549 18.6904Z" fill="#3A3D40"/>
</g>
</svg>
