<svg width="24" height="24" viewBox="0 0 24 24" fill="none" xmlns="http://www.w3.org/2000/svg">
<g id="ic_foodcalendar_line">
<path id="Vector" d="M21.843 15.7178C21.7583 15.6268 21.6448 15.576 21.5268 15.576C21.4087 15.576 21.2953 15.6268 21.2106 15.7178L20.1772 16.8618C20.0347 16.6744 19.8565 16.4772 19.6695 16.2602L20.685 15.136C20.7267 15.0901 20.7599 15.0356 20.7825 14.9755C20.8051 14.9154 20.8167 14.851 20.8167 14.7859C20.8167 14.7208 20.8051 14.6563 20.7825 14.5962C20.7599 14.5362 20.7267 14.4816 20.685 14.4358C20.6002 14.3448 20.4868 14.2939 20.3687 14.2939C20.2507 14.2939 20.1373 14.3448 20.0525 14.4358L19.037 15.56C18.8708 15.3594 18.6954 15.1685 18.5114 14.988L19.5537 13.8342C19.6375 13.7414 19.6847 13.6154 19.6847 13.4841C19.6847 13.3528 19.6375 13.2269 19.5537 13.134C19.4698 13.0412 19.356 12.989 19.2374 12.989C19.1188 12.989 19.0051 13.0412 18.9212 13.134L17.4425 14.7316C17.1071 15.1074 16.8978 15.5988 16.8492 16.1243C16.8006 16.6498 16.9157 17.1779 17.1752 17.6211L16.1419 18.7749L15.0997 17.6211C15.3512 17.1321 15.4467 16.5636 15.3707 16.0072C15.2948 15.4509 15.0518 14.939 14.681 14.5541C14.2317 14.0564 13.6241 13.7732 12.9885 13.7652C12.725 13.761 12.4635 13.8146 12.2188 13.9229C11.9742 14.0313 11.7514 14.1922 11.5632 14.3963C11.1714 14.8764 10.9667 15.5083 10.9933 16.1546C11.02 16.8009 11.276 17.4094 11.7057 17.8479C12.152 18.352 12.7608 18.6393 13.3983 18.6467C13.7784 18.6454 14.151 18.5295 14.4761 18.3114L15.5184 19.4653L14.0307 21.1122C13.9697 21.1811 13.9283 21.2683 13.9116 21.3631C13.8949 21.4578 13.9037 21.5559 13.9369 21.6451C13.9701 21.7344 14.0262 21.8109 14.0983 21.8652C14.1704 21.9194 14.2553 21.9491 14.3425 21.9504C14.4629 21.9501 14.5782 21.8969 14.6632 21.8025L16.1508 20.1556L17.6206 21.8321C17.7056 21.9265 17.8209 21.9797 17.9413 21.98C18.0285 21.9787 18.1134 21.949 18.1855 21.8947C18.2576 21.8405 18.3137 21.764 18.3469 21.6747C18.3801 21.5855 18.3889 21.4874 18.3722 21.3927C18.3556 21.2979 18.3141 21.2107 18.2531 21.1418L16.7298 19.4949L17.7721 18.341C18.1124 18.5819 18.5084 18.7086 18.9123 18.7059C19.4733 18.7149 20.0147 18.4773 20.4177 18.0452C20.4386 18.018 20.4565 17.9882 20.4712 17.9564L21.843 16.4377C21.8864 16.3909 21.9208 16.3349 21.9444 16.2731C21.9679 16.2112 21.98 16.1448 21.98 16.0778C21.98 16.0107 21.9679 15.9443 21.9444 15.8825C21.9208 15.8206 21.8864 15.7647 21.843 15.7178ZM13.3715 17.6902C13.1665 17.6891 12.9638 17.6423 12.7755 17.5525C12.5873 17.4627 12.4173 17.3317 12.2759 17.1675C12.1439 17.0397 12.0363 16.884 11.9594 16.7097C11.8824 16.5353 11.8377 16.3457 11.8277 16.1519C11.8178 15.9582 11.8428 15.7641 11.9014 15.5812C11.96 15.3983 12.051 15.2302 12.169 15.0867C12.2736 14.9734 12.3977 14.8846 12.5338 14.8253C12.67 14.766 12.8155 14.7375 12.9618 14.7415C13.1597 14.7435 13.3554 14.789 13.5373 14.8754C13.7193 14.9617 13.884 15.0872 14.0218 15.2444C14.286 15.498 14.4491 15.8566 14.4758 16.2426C14.5025 16.6285 14.3906 17.0105 14.1643 17.3055C14.0613 17.4232 13.9382 17.517 13.802 17.5813C13.6659 17.6456 13.5195 17.6793 13.3715 17.6803V17.6902ZM18.9301 17.6902C18.7707 17.6915 18.6126 17.6577 18.4651 17.5907C18.3176 17.5238 18.1836 17.4251 18.0708 17.3003C17.9581 17.1754 17.8689 17.0271 17.8084 16.8638C17.748 16.7004 17.7174 16.5255 17.7186 16.349C17.7166 16.1166 17.772 15.8881 17.879 15.6882C18.0839 15.8756 18.3689 16.1912 18.5916 16.4377L18.7252 16.5758L18.8499 16.7237C19.0726 16.9702 19.3577 17.2858 19.5359 17.5126C19.3541 17.64 19.145 17.7115 18.9301 17.7197V17.6902Z" fill="#3A3D40"/>
<path id="Vector_2" d="M7.99401 9.53247C7.86153 9.53247 7.73448 9.5851 7.64081 9.67877C7.54713 9.77244 7.49451 9.8995 7.49451 10.032C7.49451 10.1644 7.54713 10.2915 7.64081 10.3852C7.73448 10.4788 7.86153 10.5315 7.99401 10.5315H15.986C16.1185 10.5315 16.2455 10.4788 16.3392 10.3852C16.4329 10.2915 16.4855 10.1644 16.4855 10.032C16.4855 9.8995 16.4329 9.77244 16.3392 9.67877C16.2455 9.5851 16.1185 9.53247 15.986 9.53247H7.99401Z" fill="#3A3D40"/>
<path id="Vector_3" d="M11.6403 20.981H2.999V4.99696H8.13386V6.47548C8.13386 6.60796 8.18649 6.73501 8.28016 6.82868C8.37383 6.92235 8.50088 6.97498 8.63336 6.97498C8.76584 6.97498 8.89288 6.92235 8.98656 6.82868C9.08023 6.73501 9.13286 6.60796 9.13286 6.47548V4.99696H14.8471V6.47548C14.8471 6.60796 14.8998 6.73501 14.9934 6.82868C15.0871 6.92235 15.2142 6.97498 15.3466 6.97498C15.4791 6.97498 15.6062 6.92235 15.6998 6.82868C15.7935 6.73501 15.8461 6.60796 15.8461 6.47548V4.99696H20.981V11.6503C20.981 11.7828 21.0336 11.9098 21.1273 12.0035C21.221 12.0972 21.348 12.1498 21.4805 12.1498C21.613 12.1498 21.74 12.0972 21.8337 12.0035C21.9274 11.9098 21.98 11.7828 21.98 11.6503V4.99696C21.98 4.73201 21.8747 4.47791 21.6874 4.29056C21.5001 4.10321 21.246 3.99796 20.981 3.99796H15.8461V2.47948C15.8461 2.347 15.7935 2.21996 15.6998 2.12628C15.6062 2.03261 15.4791 1.97998 15.3466 1.97998C15.2142 1.97998 15.0871 2.03261 14.9934 2.12628C14.8998 2.21996 14.8471 2.347 14.8471 2.47948V3.99796H9.13286V2.47948C9.13286 2.347 9.08023 2.21996 8.98656 2.12628C8.89288 2.03261 8.76584 1.97998 8.63336 1.97998C8.50088 1.97998 8.37383 2.03261 8.28016 2.12628C8.18649 2.21996 8.13386 2.347 8.13386 2.47948V3.99796H2.999C2.73405 3.99796 2.47995 4.10321 2.2926 4.29056C2.10525 4.47791 2 4.73201 2 4.99696V20.981C2 21.2459 2.10525 21.5 2.2926 21.6874C2.47995 21.8747 2.73405 21.98 2.999 21.98H11.6403C11.7728 21.98 11.8999 21.9273 11.9935 21.8337C12.0872 21.74 12.1398 21.6129 12.1398 21.4805C12.1398 21.348 12.0872 21.2209 11.9935 21.1273C11.8999 21.0336 11.7728 20.981 11.6403 20.981Z" fill="#3A3D40"/>
</g>
</svg>
