<svg width="24" height="24" viewBox="0 0 24 24" fill="none" xmlns="http://www.w3.org/2000/svg">
<path fill-rule="evenodd" clip-rule="evenodd" d="M16.5 12.5C14.8431 12.5 13.5 13.8431 13.5 15.5C13.5 17.1569 14.8431 18.5 16.5 18.5C18.1569 18.5 19.5 17.1569 19.5 15.5C19.5 13.8431 18.1569 12.5 16.5 12.5ZM12 15.5C12 13.0147 14.0147 11 16.5 11C18.9853 11 21 13.0147 21 15.5C21 17.9853 18.9853 20 16.5 20C14.0147 20 12 17.9853 12 15.5Z" fill="#252729"/>
<path fill-rule="evenodd" clip-rule="evenodd" d="M16.5 13.585C16.8673 13.585 17.165 13.8827 17.165 14.25V15.085H17.7C18.0673 15.085 18.365 15.3827 18.365 15.75C18.365 16.1172 18.0673 16.415 17.7 16.415H16.5C16.1327 16.415 15.835 16.1172 15.835 15.75V14.25C15.835 13.8827 16.1327 13.585 16.5 13.585Z" fill="#252729"/>
<path fill-rule="evenodd" clip-rule="evenodd" d="M4.5 5.5V18.5H11.1438C11.558 18.5 11.8938 18.8358 11.8938 19.25C11.8938 19.6642 11.558 20 11.1438 20H4.19595C3.88505 20 3.58299 19.8799 3.35727 19.66C3.13083 19.4394 3 19.1361 3 18.8156V5.18439C3 4.86392 3.13083 4.56056 3.35727 4.33999C3.583 4.1201 3.88506 4 4.19595 4H19.8111L19.8182 4.00013C20.1236 4.00591 20.4185 4.12656 20.6402 4.34245C20.8624 4.5589 20.9936 4.85484 20.9999 5.16944L21 5.17692V10.484C21 10.8982 20.6642 11.234 20.25 11.234C19.8358 11.234 19.5 10.8982 19.5 10.484V5.5H4.5Z" fill="#252729"/>
<path fill-rule="evenodd" clip-rule="evenodd" d="M9 2C9.41421 2 9.75 2.33579 9.75 2.75V6.25C9.75 6.66421 9.41421 7 9 7C8.58579 7 8.25 6.66421 8.25 6.25V2.75C8.25 2.33579 8.58579 2 9 2Z" fill="#252729"/>
<path fill-rule="evenodd" clip-rule="evenodd" d="M15 2C15.4142 2 15.75 2.33579 15.75 2.75V6.25C15.75 6.66421 15.4142 7 15 7C14.5858 7 14.25 6.66421 14.25 6.25V2.75C14.25 2.33579 14.5858 2 15 2Z" fill="#252729"/>
<path fill-rule="evenodd" clip-rule="evenodd" d="M7.75 9.5C7.75 9.08579 8.08579 8.75 8.5 8.75H15.5C15.9142 8.75 16.25 9.08579 16.25 9.5C16.25 9.91421 15.9142 10.25 15.5 10.25H8.5C8.08579 10.25 7.75 9.91421 7.75 9.5Z" fill="#252729"/>
</svg>
