<svg width="24" height="24" viewBox="0 0 24 24" fill="none" xmlns="http://www.w3.org/2000/svg">
<g id="ic_checkcircle_line">
<path id="Vector" d="M10.7329 15.89C10.6659 15.891 10.5993 15.8781 10.5374 15.8523C10.4754 15.8265 10.4195 15.7883 10.3729 15.74L6.14293 11.51C6.05132 11.4165 6 11.2909 6 11.16C6 11.0291 6.05132 10.9035 6.14293 10.81C6.18941 10.7631 6.24471 10.7259 6.30564 10.7005C6.36657 10.6752 6.43192 10.6621 6.49793 10.6621C6.56393 10.6621 6.62929 10.6752 6.69022 10.7005C6.75115 10.7259 6.80645 10.7631 6.85293 10.81L10.7329 14.68L17.1229 8.28999C17.1694 8.24312 17.2247 8.20593 17.2856 8.18054C17.3466 8.15516 17.4119 8.14209 17.4779 8.14209C17.5439 8.14209 17.6093 8.15516 17.6702 8.18054C17.7311 8.20593 17.7864 8.24312 17.8329 8.28999C17.9245 8.38345 17.9759 8.50911 17.9759 8.63999C17.9759 8.77087 17.9245 8.89652 17.8329 8.98999L11.0829 15.74C11.0376 15.7871 10.9832 15.8246 10.9231 15.8504C10.863 15.8761 10.7983 15.8896 10.7329 15.89Z" fill="#3A3D40"/>
<path id="Vector_2" d="M12 3C13.78 3 15.5201 3.52784 17.0001 4.51677C18.4802 5.50571 19.6337 6.91131 20.3149 8.55585C20.9961 10.2004 21.1743 12.01 20.8271 13.7558C20.4798 15.5016 19.6226 17.1053 18.364 18.364C17.1053 19.6226 15.5016 20.4798 13.7558 20.8271C12.01 21.1743 10.2004 20.9961 8.55585 20.3149C6.91132 19.6337 5.50571 18.4802 4.51678 17.0001C3.52785 15.5201 3 13.78 3 12C3 9.61305 3.94822 7.32387 5.63604 5.63604C7.32387 3.94821 9.61306 3 12 3ZM12 2C10.0222 2 8.08879 2.58649 6.4443 3.6853C4.79981 4.78412 3.51809 6.3459 2.76121 8.17317C2.00433 10.0004 1.8063 12.0111 2.19215 13.9509C2.578 15.8907 3.53041 17.6725 4.92894 19.0711C6.32746 20.4696 8.10929 21.422 10.0491 21.8079C11.9889 22.1937 13.9996 21.9957 15.8268 21.2388C17.6541 20.4819 19.2159 19.2002 20.3147 17.5557C21.4135 15.9112 22 13.9778 22 12C22 10.6868 21.7413 9.38642 21.2388 8.17317C20.7363 6.95991 19.9997 5.85752 19.0711 4.92893C18.1425 4.00035 17.0401 3.26375 15.8268 2.7612C14.6136 2.25866 13.3132 2 12 2Z" fill="#3A3D40"/>
</g>
</svg>
