<svg width="24" height="24" viewBox="0 0 24 24" fill="none" xmlns="http://www.w3.org/2000/svg">
<path fill-rule="evenodd" clip-rule="evenodd" d="M16.5 12.5C14.8431 12.5 13.5 13.8431 13.5 15.5C13.5 17.1569 14.8431 18.5 16.5 18.5C18.1569 18.5 19.5 17.1569 19.5 15.5C19.5 13.8431 18.1569 12.5 16.5 12.5ZM12 15.5C12 13.0147 14.0147 11 16.5 11C18.9853 11 21 13.0147 21 15.5C21 17.9853 18.9853 20 16.5 20C14.0147 20 12 17.9853 12 15.5Z" fill="#252729"/>
<path fill-rule="evenodd" clip-rule="evenodd" d="M20.25 15.5C20.25 17.5711 18.5711 19.25 16.5 19.25C14.4289 19.25 12.75 17.5711 12.75 15.5C12.75 13.4289 14.4289 11.75 16.5 11.75C18.5711 11.75 20.25 13.4289 20.25 15.5ZM17.165 14.25C17.165 13.8827 16.8673 13.585 16.5 13.585C16.1328 13.585 15.835 13.8827 15.835 14.25V15.75C15.835 16.1172 16.1328 16.415 16.5 16.415H17.7C18.0673 16.415 18.365 16.1172 18.365 15.75C18.365 15.3827 18.0673 15.085 17.7 15.085H17.165V14.25Z" fill="#252729"/>
<path d="M11.1438 19.25H4.19595C4.07767 19.25 3.96422 19.2042 3.88059 19.1228C3.79696 19.0413 3.75 18.9308 3.75 18.8156V5.18439C3.75 5.06918 3.79696 4.95869 3.88059 4.87723C3.96422 4.79577 4.07767 4.75 4.19595 4.75H19.8041C19.9216 4.75222 20.0337 4.7987 20.1168 4.87969C20.2 4.96068 20.2477 5.06988 20.25 5.18439V10.484" stroke="#252729" stroke-width="1.5" stroke-miterlimit="10" stroke-linecap="round"/>
<path d="M9 2.75V6.25" stroke="#252729" stroke-width="1.5" stroke-miterlimit="10" stroke-linecap="round"/>
<path d="M15 2.75V6.25" stroke="#252729" stroke-width="1.5" stroke-miterlimit="10" stroke-linecap="round"/>
<path d="M8.5 9.5H15.5" stroke="#252729" stroke-width="1.5" stroke-miterlimit="10" stroke-linecap="round"/>
</svg>
