<svg width="24" height="24" viewBox="0 0 24 24" fill="none" xmlns="http://www.w3.org/2000/svg">
<g clip-path="url(#clip0_3947_4259)">
<path d="M16.72 10.2499C16.718 11.5352 16.3344 12.791 15.6178 13.858C14.9012 14.925 13.884 15.7552 12.695 16.2434C11.506 16.7316 10.1989 16.8557 8.93923 16.6001C7.67961 16.3445 6.52426 15.7206 5.61964 14.8076C4.71502 13.8945 4.10188 12.7334 3.85795 11.4715C3.61401 10.2095 3.75027 8.90359 4.24945 7.71919C4.74863 6.53479 5.58825 5.52528 6.66186 4.81864C7.73547 4.112 8.99473 3.74005 10.28 3.74995C11.9951 3.76053 13.6361 4.45065 14.8433 5.66907C16.0504 6.88748 16.7253 8.53479 16.72 10.2499V10.2499Z" stroke="#252729" stroke-width="1.5" stroke-linecap="round" stroke-linejoin="round"/>
<path d="M15.25 15.24L20.25 20.25" stroke="#252729" stroke-width="1.5" stroke-linecap="round" stroke-linejoin="round"/>
</g>
<defs>
<clipPath id="clip0_3947_4259">
<rect width="18" height="18" fill="white" transform="translate(3 3)"/>
</clipPath>
</defs>
</svg>
