<svg width="24" height="24" viewBox="0 0 24 24" fill="none" xmlns="http://www.w3.org/2000/svg">
<path d="M15.59 16.54L15.4205 17.2706L16.34 17.4839V16.54H15.59ZM2.96001 13.61L2.77311 14.3363L2.78179 14.3386L2.79052 14.3406L2.96001 13.61ZM2.75001 13.35H2.00001V13.365L2.00061 13.3799L2.75001 13.35ZM2.75001 8.92H3.50003L3.49999 8.91412L2.75001 8.92ZM2.96001 8.61L2.77797 7.88243L2.73172 7.894L2.68731 7.91134L2.96001 8.61ZM15.59 5.45H16.34V4.48923L15.408 4.72243L15.59 5.45ZM16.37 4.75C16.37 4.33579 16.0342 4 15.62 4C15.2058 4 14.87 4.33579 14.87 4.75H16.37ZM14.87 17.33C14.87 17.7442 15.2058 18.08 15.62 18.08C16.0342 18.08 16.37 17.7442 16.37 17.33H14.87ZM6.87001 15.04C6.87001 14.6258 6.53422 14.29 6.12001 14.29C5.7058 14.29 5.37001 14.6258 5.37001 15.04H6.87001ZM5.37001 19.25C5.37001 19.6642 5.7058 20 6.12001 20C6.53422 20 6.87001 19.6642 6.87001 19.25H5.37001ZM17.7845 8.95278C17.3718 8.91716 17.0084 9.22283 16.9728 9.63551C16.9372 10.0482 17.2428 10.4116 17.6555 10.4472L17.7845 8.95278ZM18.9539 11.045H18.2039H18.9539ZM17.6555 11.6428C17.2428 11.6784 16.9372 12.0418 16.9728 12.4545C17.0084 12.8672 17.3718 13.1728 17.7845 13.1372L17.6555 11.6428ZM17.6391 6.62102C17.2254 6.59943 16.8726 6.91727 16.851 7.33092C16.8294 7.74457 17.1473 8.0974 17.5609 8.11898L17.6391 6.62102ZM17.5609 13.971C17.1473 13.9926 16.8294 14.3454 16.851 14.7591C16.8726 15.1727 17.2254 15.4906 17.6391 15.469L17.5609 13.971ZM15.7595 15.8094L3.1295 12.8794L2.79052 14.3406L15.4205 17.2706L15.7595 15.8094ZM3.14691 12.8837C3.24478 12.9088 3.33192 12.9649 3.39542 13.0435L2.22851 13.986C2.36766 14.1583 2.55863 14.2811 2.77311 14.3363L3.14691 12.8837ZM3.39542 13.0435C3.45891 13.1221 3.49538 13.2191 3.49941 13.3201L2.00061 13.3799C2.00944 13.6012 2.08936 13.8137 2.22851 13.986L3.39542 13.0435ZM3.50001 13.35V8.92H2.00001V13.35H3.50001ZM3.49999 8.91412C3.50065 8.99922 3.47545 9.08251 3.42773 9.15297L2.18585 8.3117C2.06312 8.49287 1.99832 8.70705 2.00003 8.92588L3.49999 8.91412ZM3.42773 9.15297C3.38 9.22343 3.31199 9.27772 3.23271 9.30867L2.68731 7.91134C2.48345 7.9909 2.30858 8.13052 2.18585 8.3117L3.42773 9.15297ZM3.14205 9.33757L15.772 6.17757L15.408 4.72243L2.77797 7.88243L3.14205 9.33757ZM14.84 5.45V16.54H16.34V5.45H14.84ZM4.01001 8.14V14.12H5.51001V8.14H4.01001ZM14.87 4.75V17.33H16.37V4.75H14.87ZM5.37001 15.04V19.25H6.87001V15.04H5.37001ZM17.6555 10.4472C17.8052 10.4601 17.9445 10.5287 18.0461 10.6394L19.1514 9.62535C18.796 9.23798 18.3083 8.99798 17.7845 8.95278L17.6555 10.4472ZM18.0461 10.6394C18.1476 10.7501 18.2039 10.8948 18.2039 11.045H19.7039C19.7039 10.5193 19.5068 10.0127 19.1514 9.62535L18.0461 10.6394ZM18.2039 11.045C18.2039 11.1952 18.1476 11.3399 18.0461 11.4506L19.1514 12.4646C19.5068 12.0773 19.7039 11.5707 19.7039 11.045H18.2039ZM18.0461 11.4506C17.9445 11.5613 17.8052 11.6299 17.6555 11.6428L17.7845 13.1372C18.3082 13.092 18.796 12.852 19.1514 12.4646L18.0461 11.4506ZM17.5609 8.11898C18.3106 8.1581 19.0166 8.48344 19.5334 9.02788L20.6213 7.99523C19.84 7.17206 18.7725 6.68016 17.6391 6.62102L17.5609 8.11898ZM19.5334 9.02788C20.0501 9.57233 20.3382 10.2943 20.3382 11.045H21.8382C21.8382 9.91006 21.4026 8.8184 20.6213 7.99523L19.5334 9.02788ZM20.3382 11.045C20.3382 11.7957 20.0501 12.5177 19.5334 13.0621L20.6213 14.0948C21.4026 13.2716 21.8382 12.1799 21.8382 11.045H20.3382ZM19.5334 13.0621C19.0166 13.6066 18.3106 13.9319 17.5609 13.971L17.6391 15.469C18.7725 15.4098 19.84 14.9179 20.6213 14.0948L19.5334 13.0621Z" fill="#252729"/>
</svg>
