<svg width="24" height="24" viewBox="0 0 24 24" fill="none" xmlns="http://www.w3.org/2000/svg">
<g id="ic_checkcircle_filled">
<path id="Vector" d="M12 2C10.0222 2 8.08879 2.58649 6.4443 3.6853C4.79981 4.78412 3.51809 6.3459 2.76121 8.17317C2.00433 10.0004 1.8063 12.0111 2.19215 13.9509C2.578 15.8907 3.53041 17.6725 4.92894 19.0711C6.32746 20.4696 8.10929 21.422 10.0491 21.8079C11.9889 22.1937 13.9996 21.9957 15.8268 21.2388C17.6541 20.4819 19.2159 19.2002 20.3147 17.5557C21.4135 15.9112 22 13.9778 22 12C22 10.6868 21.7413 9.38642 21.2388 8.17317C20.7363 6.95991 19.9997 5.85752 19.0711 4.92893C18.1425 4.00035 17.0401 3.26375 15.8268 2.7612C14.6136 2.25866 13.3132 2 12 2ZM17.92 8.12C18.0551 8.12033 18.1846 8.17428 18.28 8.27C18.3716 8.36346 18.4229 8.48912 18.4229 8.62C18.4229 8.75088 18.3716 8.87654 18.28 8.97L11.51 15.74C11.4638 15.7853 11.4091 15.821 11.349 15.845C11.2889 15.869 11.2247 15.8809 11.16 15.88C11.0937 15.8817 11.0277 15.8702 10.9659 15.8462C10.9041 15.8221 10.8477 15.786 10.8 15.74L6.56 11.5C6.46775 11.4049 6.41617 11.2775 6.41617 11.145C6.41617 11.0125 6.46775 10.8851 6.56 10.79C6.65539 10.6943 6.78487 10.6403 6.92 10.64C7.05189 10.6419 7.17769 10.6958 7.27 10.79L11.16 14.68L17.57 8.27C17.6154 8.22291 17.6697 8.18537 17.7298 8.15961C17.7899 8.13385 17.8546 8.12038 17.92 8.12Z" fill="#3A3D40"/>
</g>
</svg>
