<svg width="24" height="24" viewBox="0 0 24 24" fill="none" xmlns="http://www.w3.org/2000/svg">
<g clip-path="url(#clip0_4971_5044)">
<path fill-rule="evenodd" clip-rule="evenodd" d="M3.73876 12C3.82088 12.0909 3.91493 12.1927 4.02025 12.3035C4.46963 12.7762 5.11991 13.4062 5.92155 14.0348C7.54363 15.3068 9.69231 16.5 12 16.5C14.3077 16.5 16.4564 15.3068 18.0784 14.0348C18.8801 13.4062 19.5304 12.7762 19.9797 12.3035C20.0851 12.1927 20.1791 12.0909 20.2612 12C20.1791 11.9091 20.0851 11.8073 19.9797 11.6965C19.5304 11.2238 18.8801 10.5938 18.0784 9.96518C16.4564 8.6932 14.3077 7.5 12 7.5C9.69231 7.5 7.54363 8.6932 5.92155 9.96518C5.11991 10.5938 4.46963 11.2238 4.02025 11.6965C3.91493 11.8073 3.82088 11.9091 3.73876 12ZM21.25 12C21.8389 11.5356 21.8388 11.5354 21.8386 11.5352L21.8382 11.5347L21.8371 11.5333L21.8337 11.529L21.8224 11.5149C21.8129 11.503 21.7993 11.4864 21.7819 11.4651C21.7471 11.4227 21.6966 11.3621 21.6313 11.286C21.5007 11.1338 21.3105 10.9192 21.0668 10.6629C20.5803 10.1512 19.8762 9.4687 19.0041 8.78482C17.2786 7.4318 14.8023 6 12 6C9.19769 6 6.72137 7.4318 4.99595 8.78482C4.12384 9.4687 3.41974 10.1512 2.93318 10.6629C2.68949 10.9192 2.49926 11.1338 2.3687 11.286C2.30339 11.3621 2.25292 11.4227 2.21808 11.4651C2.20066 11.4864 2.18713 11.503 2.1776 11.5149L2.16631 11.529L2.16293 11.5333L2.16182 11.5347L2.1614 11.5352C2.16123 11.5354 2.16108 11.5356 2.75 12L2.16108 11.5356C1.94631 11.808 1.94631 12.192 2.16108 12.4644L2.75 12C2.16108 12.4644 2.16123 12.4646 2.1614 12.4648L2.16182 12.4653L2.16293 12.4667L2.16631 12.471L2.1776 12.4851C2.18713 12.497 2.20066 12.5136 2.21808 12.5349C2.25292 12.5773 2.30339 12.6379 2.3687 12.714C2.49926 12.8662 2.68949 13.0808 2.93318 13.3371C3.41974 13.8488 4.12384 14.5313 4.99595 15.2152C6.72137 16.5682 9.19769 18 12 18C14.8023 18 17.2786 16.5682 19.0041 15.2152C19.8762 14.5313 20.5803 13.8488 21.0668 13.3371C21.3105 13.0808 21.5007 12.8662 21.6313 12.714C21.6966 12.6379 21.7471 12.5773 21.7819 12.5349C21.7993 12.5136 21.8129 12.497 21.8224 12.4851L21.8337 12.471L21.8371 12.4667L21.8382 12.4653L21.8386 12.4648C21.8388 12.4646 21.8389 12.4644 21.25 12ZM21.25 12L21.8389 12.4644C22.0537 12.192 22.0537 11.808 21.8389 11.5356L21.25 12Z" fill="#505458"/>
<path fill-rule="evenodd" clip-rule="evenodd" d="M12 9.75C10.7574 9.75 9.75 10.7574 9.75 12C9.75 13.2426 10.7574 14.25 12 14.25C13.2426 14.25 14.25 13.2426 14.25 12C14.25 10.7574 13.2426 9.75 12 9.75ZM8.25 12C8.25 9.92893 9.92893 8.25 12 8.25C14.0711 8.25 15.75 9.92893 15.75 12C15.75 14.0711 14.0711 15.75 12 15.75C9.92893 15.75 8.25 14.0711 8.25 12Z" fill="#505458"/>
</g>
<defs>
<clipPath id="clip0_4971_5044">
<rect width="20" height="12" fill="white" transform="translate(2 6)"/>
</clipPath>
</defs>
</svg>
