<svg width="24" height="24" viewBox="0 0 24 24" fill="none" xmlns="http://www.w3.org/2000/svg">
<g clip-path="url(#clip0_3932_4473)">
<path d="M11.97 5.99998L13.47 9.11998C13.6059 9.40516 13.8104 9.65218 14.0652 9.83892C14.32 10.0257 14.6171 10.1463 14.93 10.19L18.37 10.69L15.85 13.26C15.641 13.4819 15.4855 13.7486 15.3954 14.0398C15.3053 14.3309 15.2829 14.6388 15.33 14.94L15.94 18.5L12.94 16.89C12.6604 16.7392 12.3477 16.6602 12.03 16.66C11.7051 16.6633 11.3859 16.7456 11.1 16.9L8.09999 18.56L8.72999 15C8.77317 14.6965 8.74604 14.3872 8.65067 14.0959C8.55531 13.8046 8.39427 13.5391 8.17999 13.32L5.62999 10.74L9.06999 10.2C9.38684 10.1488 9.68673 10.0222 9.94433 9.83073C10.2019 9.63927 10.4097 9.38863 10.55 9.09998L11.97 5.99998ZM11.97 2.99998C11.889 2.99949 11.8098 3.02296 11.7421 3.06745C11.6745 3.11194 11.6216 3.17545 11.59 3.24998L9.14999 8.46998C9.12173 8.53218 9.07873 8.58655 9.02471 8.62837C8.97069 8.67019 8.90728 8.69821 8.83999 8.70998L3.35999 9.58998C3.28001 9.60589 3.20585 9.64322 3.14544 9.698C3.08504 9.75278 3.04065 9.82295 3.01703 9.901C2.99341 9.97905 2.99144 10.062 3.01134 10.1411C3.03123 10.2202 3.07224 10.2924 3.12999 10.35L7.12999 14.35C7.17979 14.4009 7.21737 14.4625 7.23989 14.53C7.26241 14.5976 7.26928 14.6694 7.25999 14.74L6.35999 20.46C6.34673 20.5218 6.34728 20.5858 6.36159 20.6474C6.3759 20.709 6.40362 20.7667 6.44277 20.8163C6.48192 20.866 6.53155 20.9064 6.58811 20.9347C6.64467 20.963 6.70677 20.9784 6.76999 20.98C6.83958 20.9787 6.90796 20.9616 6.96999 20.93L11.86 18.19C11.9214 18.1567 11.9901 18.1393 12.06 18.1393C12.1298 18.1393 12.1986 18.1567 12.26 18.19L17.18 20.85C17.2362 20.888 17.3022 20.9088 17.37 20.91C17.4345 20.9084 17.4979 20.8927 17.5556 20.8639C17.6134 20.8351 17.6641 20.794 17.7042 20.7434C17.7442 20.6928 17.7727 20.634 17.7875 20.5712C17.8024 20.5084 17.8032 20.4431 17.79 20.38L16.79 14.67C16.7761 14.6001 16.7798 14.5279 16.8008 14.4598C16.8217 14.3918 16.8593 14.33 16.91 14.28L20.85 10.2C20.9086 10.1429 20.9501 10.0706 20.9699 9.99128C20.9896 9.91193 20.9869 9.82863 20.962 9.75074C20.9371 9.67285 20.8909 9.60344 20.8287 9.55032C20.7666 9.49719 20.6908 9.46245 20.61 9.44998L15.12 8.64998C15.0509 8.63974 14.9855 8.61243 14.9296 8.57052C14.8737 8.52862 14.8292 8.47344 14.8 8.40998L12.33 3.24998C12.2995 3.17465 12.2469 3.11037 12.179 3.06571C12.1111 3.02105 12.0312 2.99812 11.95 2.99998H11.97Z" fill="#252729"/>
</g>
<defs>
<clipPath id="clip0_3932_4473">
<rect width="18" height="18" fill="white" transform="translate(3 3)"/>
</clipPath>
</defs>
</svg>
