<svg width="24" height="24" viewBox="0 0 24 24" fill="none" xmlns="http://www.w3.org/2000/svg">
<g id="ic_rank_line">
<path id="Vector" d="M11.6711 22L3 17.0166V6.98339L11.6711 2L20.3422 7.01661V17.0166L11.6711 22ZM3.99668 16.4186L11.6711 20.8372L19.3455 16.4186V7.5814L11.6711 3.16279L3.99668 7.5814V16.4186Z" fill="#3A3D40"/>
<path id="R" d="M13.3988 16.186H14.4951L12.7343 13.3289C13.8307 12.9634 14.5283 11.9003 14.4619 10.7707C14.5283 9.34217 13.432 8.14616 12.0034 8.07971C11.9702 8.07971 11.9038 8.07971 11.8705 8.07971H9.0134V16.2192H9.97685V13.495H11.7377L13.3988 16.186ZM9.97685 9.00994H11.8705C12.8008 9.00994 13.5317 9.74084 13.5317 10.6711C13.5317 10.7043 13.5317 10.7375 13.5317 10.7707C13.5981 11.701 12.9004 12.4651 12.0034 12.5315C11.9702 12.5315 11.937 12.5315 11.9038 12.5315H10.0101V9.00994H9.97685Z" fill="#3A3D40"/>
</g>
</svg>
