<svg width="24" height="24" viewBox="0 0 24 24" fill="none" xmlns="http://www.w3.org/2000/svg">
<g id="ic_calendar_line">
<path id="Vector" d="M20.981 4.01798H15.8462V2.4995C15.8462 2.36702 15.7935 2.23997 15.6999 2.1463C15.6062 2.05263 15.4791 2 15.3467 2C15.2142 2 15.0871 2.05263 14.9935 2.1463C14.8998 2.23997 14.8472 2.36702 14.8472 2.4995V4.01798H9.13287V2.4995C9.13287 2.36702 9.08024 2.23997 8.98657 2.1463C8.89289 2.05263 8.76584 2 8.63337 2C8.50089 2 8.37384 2.05263 8.28017 2.1463C8.18649 2.23997 8.13387 2.36702 8.13387 2.4995V4.01798H2.999C2.73405 4.01798 2.47995 4.12323 2.2926 4.31058C2.10525 4.49793 2 4.75203 2 5.01698V21.001C2 21.266 2.10525 21.5201 2.2926 21.7074C2.47995 21.8947 2.73405 22 2.999 22H20.981C21.246 22 21.5001 21.8947 21.6874 21.7074C21.8748 21.5201 21.98 21.266 21.98 21.001V5.01698C21.98 4.75203 21.8748 4.49793 21.6874 4.31058C21.5001 4.12323 21.246 4.01798 20.981 4.01798ZM20.981 21.001H2.999V5.01698H8.13387V6.4955C8.13387 6.62798 8.18649 6.75503 8.28017 6.8487C8.37384 6.94238 8.50089 6.995 8.63337 6.995C8.76584 6.995 8.89289 6.94238 8.98657 6.8487C9.08024 6.75503 9.13287 6.62798 9.13287 6.4955V5.01698H14.8472V6.4955C14.8472 6.62798 14.8998 6.75503 14.9935 6.8487C15.0871 6.94238 15.2142 6.995 15.3467 6.995C15.4791 6.995 15.6062 6.94238 15.6999 6.8487C15.7935 6.75503 15.8462 6.62798 15.8462 6.4955V5.01698H20.981V21.001Z" fill="#3A3D40"/>
<path id="Vector_2" d="M7.99401 9.55249C7.86153 9.55249 7.73448 9.60512 7.64081 9.69879C7.54713 9.79246 7.49451 9.91951 7.49451 10.052C7.49451 10.1845 7.54713 10.3115 7.64081 10.4052C7.73448 10.4989 7.86153 10.5515 7.99401 10.5515H15.986C16.1185 10.5515 16.2455 10.4989 16.3392 10.4052C16.4329 10.3115 16.4855 10.1845 16.4855 10.052C16.4855 9.91951 16.4329 9.79246 16.3392 9.69879C16.2455 9.60512 16.1185 9.55249 15.986 9.55249H7.99401Z" fill="#3A3D40"/>
</g>
</svg>
