<svg width="24" height="24" viewBox="0 0 24 24" fill="none" xmlns="http://www.w3.org/2000/svg">
<path fill-rule="evenodd" clip-rule="evenodd" d="M4.5 5.5V18.5H19.5V5.5H4.5ZM3 5.18465C3 4.51237 3.5537 4 4.19595 4H19.8041C20.4463 4 21 4.51237 21 5.18465V18.8153C21 19.4876 20.4463 20 19.8041 20H4.19595C3.5537 20 3 19.4876 3 18.8153V5.18465Z" fill="#252729"/>
<path fill-rule="evenodd" clip-rule="evenodd" d="M9 2C9.41421 2 9.75 2.33579 9.75 2.75V6.25C9.75 6.66421 9.41421 7 9 7C8.58579 7 8.25 6.66421 8.25 6.25V2.75C8.25 2.33579 8.58579 2 9 2Z" fill="#252729"/>
<path fill-rule="evenodd" clip-rule="evenodd" d="M15 2C15.4142 2 15.75 2.33579 15.75 2.75V6.25C15.75 6.66421 15.4142 7 15 7C14.5858 7 14.25 6.66421 14.25 6.25V2.75C14.25 2.33579 14.5858 2 15 2Z" fill="#252729"/>
<path fill-rule="evenodd" clip-rule="evenodd" d="M7.75 9.5C7.75 9.08579 8.08579 8.75 8.5 8.75H15.5C15.9142 8.75 16.25 9.08579 16.25 9.5C16.25 9.91421 15.9142 10.25 15.5 10.25H8.5C8.08579 10.25 7.75 9.91421 7.75 9.5Z" fill="#252729"/>
</svg>
