<svg width="24" height="24" viewBox="0 0 24 24" fill="none" xmlns="http://www.w3.org/2000/svg">
<path d="M7.25 12L4.75 12L4.75 2.76L7.25 2.76L7.25 12Z" stroke="#252729" stroke-width="1.5" stroke-linecap="round" stroke-linejoin="round"/>
<path d="M13.32 15C14.0945 15.049 14.8707 14.9359 15.599 14.6679C16.3273 14.4 16.9917 13.9831 17.5497 13.4439C18.1078 12.9046 18.5472 12.2549 18.84 11.5362C19.1328 10.8175 19.2724 10.0457 19.25 9.26998C19.25 5.67998 16.59 2.75997 13.32 2.75997L7.39 2.75997L7.39 9.27997C7.39 11.19 7.03 13.39 8.72 14.69" stroke="#252729" stroke-width="1.5" stroke-linecap="round" stroke-linejoin="round"/>
<path d="M8.7 14.69C8.7 14.69 9.4 20.53 10.04 21C10.68 21.47 12.25 21.06 12.89 19.84C13.53 18.62 13.27 15 13.27 15" stroke="#252729" stroke-width="1.5" stroke-linecap="round" stroke-linejoin="round"/>
<path d="M13.32 15C14.8535 14.9837 16.3225 14.3808 17.4253 13.3151C18.5282 12.2495 19.1811 10.802 19.25 9.27C19.25 5.68 16.59 2.76 13.32 2.76" stroke="#252729" stroke-width="1.5" stroke-linecap="round" stroke-linejoin="round"/>
</svg>
