<svg width="24" height="24" viewBox="0 0 24 24" fill="none" xmlns="http://www.w3.org/2000/svg">
<g clip-path="url(#clip0_3874_6104)">
<path d="M7.91407 14.88C7.94368 14.6954 7.93035 14.506 7.87522 14.3279C7.82008 14.1498 7.72476 13.9882 7.59733 13.8569L3.97742 10.2095L8.94573 9.42317C9.12373 9.39366 9.29233 9.31972 9.43725 9.20758C9.58217 9.09545 9.69916 8.94843 9.77833 8.77896L11.9684 4.04211L14.2218 8.77896C14.3032 8.94489 14.4211 9.08815 14.5659 9.19688C14.7107 9.30561 14.8781 9.37668 15.0543 9.40422L20.0408 10.1242L16.4752 13.8C16.3458 13.9299 16.2492 14.0914 16.1939 14.2699C16.1386 14.4484 16.1264 14.6385 16.1584 14.8232L17.0634 19.9958L12.6019 17.58C12.4445 17.498 12.2709 17.4558 12.0951 17.4569C11.9126 17.4579 11.7329 17.5033 11.5702 17.5895L7.13578 20.0716L7.91407 14.88Z" fill="#252729"/>
<path d="M11.9502 5.6526L13.5882 9.0726C13.7205 9.34015 13.9118 9.57082 14.1464 9.74547C14.3809 9.92011 14.6518 10.0337 14.9366 10.0768L18.5565 10.6073L15.9592 13.2884C15.7559 13.5031 15.6047 13.7656 15.5181 14.0541C15.4315 14.3425 15.4121 14.6484 15.4615 14.9463L16.095 18.7358L12.8552 16.9547C12.6043 16.8159 12.3245 16.7443 12.0407 16.7463C11.7474 16.7465 11.4586 16.8212 11.1991 16.9642L7.97733 18.7642L8.56559 14.9747C8.61119 14.6768 8.58817 14.3718 8.49845 14.0851C8.40873 13.7983 8.25489 13.5382 8.04974 13.3263L5.41625 10.6736L9.03616 10.1052C9.3204 10.0563 9.58938 9.93714 9.82076 9.75754C10.0521 9.57793 10.2392 9.34312 10.3665 9.0726L11.9593 5.63364L11.9502 5.6526ZM11.9593 2.98102C11.8789 2.97961 11.7998 3.00314 11.7322 3.04866C11.6646 3.09418 11.6113 3.15965 11.5791 3.2368L9.15382 8.45681C9.12345 8.52031 9.07872 8.57509 9.02352 8.61637C8.96831 8.65765 8.9043 8.68418 8.83707 8.69365L3.36197 9.5747C3.28377 9.58694 3.21037 9.62175 3.15003 9.67523C3.08968 9.7287 3.04477 9.79873 3.02033 9.87745C2.9959 9.95616 2.99291 10.0404 3.01169 10.1208C3.03047 10.2012 3.07028 10.2746 3.12666 10.3326L7.12668 14.3494C7.17645 14.4002 7.21328 14.4632 7.23383 14.5327C7.25438 14.6022 7.25798 14.676 7.2443 14.7473L6.33932 20.4315C6.32865 20.4948 6.33147 20.5597 6.34755 20.6216C6.36364 20.6836 6.39259 20.7411 6.43237 20.79C6.47214 20.8389 6.52175 20.8779 6.57764 20.9044C6.63352 20.9309 6.6943 20.9441 6.75563 20.9431C6.82082 20.9616 6.88954 20.9616 6.95473 20.9431L11.8416 18.2052C11.9103 18.1909 11.981 18.1909 12.0497 18.2052C12.112 18.1879 12.1775 18.1879 12.2398 18.2052L17.1629 20.8673C17.2231 20.9047 17.2919 20.9243 17.362 20.9242C17.4241 20.9224 17.4852 20.9066 17.541 20.878C17.5969 20.8494 17.6462 20.8085 17.6856 20.7583C17.7251 20.708 17.7538 20.6494 17.7698 20.5865C17.7858 20.5236 17.7886 20.4578 17.7783 20.3937L16.8009 14.7094C16.7872 14.6381 16.7908 14.5643 16.8114 14.4948C16.8319 14.4253 16.8687 14.3623 16.9185 14.3115L20.8642 10.2379C20.9208 10.1792 20.9605 10.1051 20.9788 10.024C20.9971 9.94293 20.9934 9.85807 20.9679 9.7791C20.9425 9.70014 20.8963 9.63024 20.8348 9.57736C20.7733 9.52448 20.6988 9.49073 20.6199 9.47997L15.1357 8.68417C15.0665 8.67362 15.0007 8.64572 14.944 8.60283C14.8873 8.55994 14.8413 8.50334 14.8099 8.43785L12.3303 3.25575C12.2942 3.18249 12.2398 3.12087 12.1728 3.07748C12.1059 3.03409 12.0289 3.01058 11.9502 3.00944L11.9593 2.98102Z" fill="#252729"/>
</g>
<defs>
<clipPath id="clip0_3874_6104">
<rect width="18" height="18" fill="white" transform="translate(3 3)"/>
</clipPath>
</defs>
</svg>
