<svg width="24" height="24" viewBox="0 0 24 24" fill="none" xmlns="http://www.w3.org/2000/svg">
<g clip-path="url(#clip0_3929_4090)">
<path fill-rule="evenodd" clip-rule="evenodd" d="M11.4692 3.17915C11.7469 2.94253 12.1545 2.94004 12.4351 3.17326L16.5867 6.62454L20.7301 10.0763C21.0483 10.3414 21.0914 10.8144 20.8262 11.1326C20.5611 11.4509 20.0882 11.4939 19.7699 11.2288L15.6278 7.77802L11.9616 4.73028L4.23706 11.3203C3.92207 11.5893 3.44866 11.552 3.17967 11.2371C2.91068 10.9221 2.94796 10.4487 3.26294 10.1797L11.4692 3.17915Z" fill="#252729"/>
<path fill-rule="evenodd" clip-rule="evenodd" d="M5.50005 8.5C5.91426 8.5 6.25005 8.83579 6.25005 9.25V19.3306C6.24972 19.3646 6.25537 19.3968 6.26518 19.4245C6.27499 19.4522 6.2876 19.4719 6.2984 19.4844C6.30613 19.4934 6.31226 19.4979 6.31549 19.5H17.6845C17.6877 19.4979 17.6939 19.4934 17.7016 19.4844C17.7124 19.4719 17.725 19.4522 17.7348 19.4245C17.7446 19.3968 17.7503 19.3646 17.75 19.3306L17.7499 19.3233L17.75 9.25C17.75 8.83579 18.0857 8.5 18.5 8.5C18.9142 8.5 19.25 8.83579 19.25 9.25V19.3201C19.2515 19.5254 19.2177 19.7307 19.1488 19.9251C19.0795 20.1209 18.975 20.3048 18.8372 20.4644C18.6993 20.6242 18.53 20.7574 18.3358 20.8514C18.1413 20.9456 17.9282 20.9972 17.7095 20.9999L17.7002 21.0001L6.29048 21C6.07178 20.9973 5.85866 20.9456 5.66415 20.8514C5.47003 20.7574 5.30065 20.6242 5.16277 20.4644C5.02504 20.3048 4.9205 20.1209 4.85119 19.9251C4.78235 19.7307 4.74852 19.5254 4.75005 19.3201V9.25C4.75005 8.83579 5.08584 8.5 5.50005 8.5Z" fill="#252729"/>
<path fill-rule="evenodd" clip-rule="evenodd" d="M12 12.25C11.0335 12.25 10.25 13.0335 10.25 14C10.25 14.9665 11.0335 15.75 12 15.75C12.9665 15.75 13.75 14.9665 13.75 14C13.75 13.0335 12.9665 12.25 12 12.25ZM8.75 14C8.75 12.2051 10.2051 10.75 12 10.75C13.7949 10.75 15.25 12.2051 15.25 14C15.25 15.7949 13.7949 17.25 12 17.25C10.2051 17.25 8.75 15.7949 8.75 14Z" fill="#252729"/>
</g>
<defs>
<clipPath id="clip0_3929_4090">
<rect width="18" height="18" fill="white" transform="translate(3 3)"/>
</clipPath>
</defs>
</svg>
