<svg width="24" height="24" viewBox="0 0 24 24" fill="none" xmlns="http://www.w3.org/2000/svg">
<g id="ic_star_line">
<path id="Vector" d="M12 2.90476L14.8067 8.55952L21.0945 9.46428L16.5382 13.8614L17.6135 20.0771L12 17.1457L6.37743 20.0771L7.44362 13.8614L2.88724 9.46428L9.17505 8.55952L12 2.90476ZM12 2C11.8292 1.99966 11.6618 2.04698 11.5167 2.13657C11.3717 2.22615 11.255 2.35439 11.1799 2.50667L8.58272 7.72714L2.77789 8.56857C2.60924 8.59237 2.45067 8.66263 2.3202 8.77138C2.18973 8.88013 2.09258 9.02301 2.03976 9.18381C1.99141 9.34094 1.98707 9.50818 2.02721 9.66758C2.06734 9.82697 2.15044 9.97251 2.26758 10.0886L6.47767 14.2052L5.48438 19.9233C5.45087 20.0921 5.46651 20.2668 5.52945 20.4271C5.5924 20.5873 5.70005 20.7264 5.83978 20.8281C5.99613 20.9405 6.1844 21.0007 6.37743 21C6.52579 20.9981 6.67195 20.9642 6.80573 20.9005L12 18.1862L17.1943 20.9005C17.3281 20.9642 17.4742 20.9981 17.6226 21C17.8156 21.0007 18.0039 20.9405 18.1602 20.8281C18.3 20.7264 18.4076 20.5873 18.4705 20.4271C18.5335 20.2668 18.5491 20.0921 18.5156 19.9233L17.5223 14.2052L21.7324 10.1429C21.8496 10.0268 21.9327 9.88126 21.9728 9.72186C22.0129 9.56247 22.0086 9.39523 21.9602 9.23809C21.9074 9.07729 21.8103 8.93441 21.6798 8.82567C21.5493 8.71692 21.3908 8.64666 21.2221 8.62286L15.4173 7.78143L12.8201 2.50667C12.745 2.35439 12.6283 2.22615 12.4833 2.13657C12.3382 2.04698 12.1708 1.99966 12 2Z" fill="#3A3D40"/>
</g>
</svg>
