<svg width="24" height="24" viewBox="0 0 24 24" fill="none" xmlns="http://www.w3.org/2000/svg">
<g id="ic_refresh_line">
<path id="Vector" d="M20.6656 10.3328C20.6656 8.12277 19.7877 6.0033 18.225 4.44061C16.6623 2.87791 14.5428 2 12.3328 2C10.1229 2 8.00339 2.87791 6.4407 4.44061C4.878 6.0033 4.00009 8.12277 4.00009 10.3328V13.0798C4.00009 13.2012 4.04833 13.3177 4.13419 13.4036C4.22005 13.4894 4.33651 13.5377 4.45794 13.5377C4.57936 13.5377 4.69582 13.4894 4.78168 13.4036C4.86754 13.3177 4.91578 13.2012 4.91578 13.0798V10.3328C4.91578 8.8658 5.35078 7.43178 6.16578 6.21205C6.98078 4.99232 8.13916 4.04166 9.49446 3.48028C10.8497 2.9189 12.3411 2.77202 13.7798 3.0582C15.2186 3.34439 16.5402 4.0508 17.5775 5.0881C18.6148 6.12539 19.3212 7.44699 19.6074 8.88576C19.8936 10.3245 19.7467 11.8159 19.1853 13.1711C18.6239 14.5264 17.6733 15.6848 16.4535 16.4998C15.2338 17.3148 13.7998 17.7498 12.3328 17.7498H10.4099L13.2485 14.9112C13.3347 14.825 13.3832 14.708 13.3832 14.5861C13.3832 14.4642 13.3347 14.3473 13.2485 14.2611C13.1623 14.1748 13.0454 14.1264 12.9235 14.1264C12.8015 14.1264 12.6846 14.1748 12.5984 14.2611L8.93565 17.9238C8.89185 17.9649 8.85694 18.0146 8.83308 18.0697C8.80921 18.1248 8.7969 18.1842 8.7969 18.2443C8.7969 18.3044 8.80921 18.3638 8.83308 18.4189C8.85694 18.474 8.89185 18.5237 8.93565 18.5648L12.2321 21.8613C12.2732 21.9051 12.3229 21.94 12.378 21.9638C12.4331 21.9877 12.4925 22 12.5526 22C12.6127 22 12.6721 21.9877 12.7272 21.9638C12.7823 21.94 12.832 21.9051 12.8731 21.8613C12.9169 21.8202 12.9518 21.7705 12.9757 21.7154C12.9995 21.6603 13.0118 21.6008 13.0118 21.5408C13.0118 21.4807 12.9995 21.4213 12.9757 21.3661C12.9518 21.311 12.9169 21.2614 12.8731 21.2203L10.3733 18.6472H12.3328C14.5389 18.6448 16.6542 17.7686 18.2159 16.2104C19.7775 14.6522 20.6583 12.5388 20.6656 10.3328Z" fill="#3A3D40"/>
</g>
</svg>
