<svg width="24" height="24" viewBox="0 0 24 24" fill="none" xmlns="http://www.w3.org/2000/svg">
<g id="ic_dots_vertical_line">
<path id="Vector" d="M12 5C12.8284 5 13.5 4.32843 13.5 3.5C13.5 2.67157 12.8284 2 12 2C11.1716 2 10.5 2.67157 10.5 3.5C10.5 4.32843 11.1716 5 12 5Z" fill="#3A3D40"/>
<path id="Vector_2" d="M12 13.5C12.8284 13.5 13.5 12.8284 13.5 12C13.5 11.1716 12.8284 10.5 12 10.5C11.1716 10.5 10.5 11.1716 10.5 12C10.5 12.8284 11.1716 13.5 12 13.5Z" fill="#3A3D40"/>
<path id="Vector_3" d="M12 22C12.8284 22 13.5 21.3284 13.5 20.5C13.5 19.6716 12.8284 19 12 19C11.1716 19 10.5 19.6716 10.5 20.5C10.5 21.3284 11.1716 22 12 22Z" fill="#3A3D40"/>
</g>
</svg>
